<svg width="31" height="31" viewBox="0 0 31 31" fill="none" xmlns="http://www.w3.org/2000/svg">
<g clip-path="url(#clip0_893_2479)">
<path d="M29.6355 11.7617C29.5452 11.7834 29.4671 11.84 29.4184 11.919C29.3696 11.998 29.3542 12.0932 29.3753 12.1836C29.6316 13.2713 29.7613 14.3849 29.762 15.5023C29.7575 19.2834 28.2535 22.9083 25.5799 25.5819C22.9062 28.2555 19.2814 29.7595 15.5003 29.7641C12.3948 29.7749 9.37268 28.7599 6.90343 26.8766C7.23497 26.3822 7.36744 25.7808 7.27428 25.1929C7.18113 24.605 6.86924 24.0741 6.40112 23.7064C5.933 23.3388 5.34323 23.1616 4.75001 23.2105C4.15678 23.2593 3.60394 23.5306 3.20227 23.9698C2.80059 24.4091 2.57977 24.984 2.58405 25.5792C2.58832 26.1744 2.81739 26.746 3.22533 27.1794C3.63328 27.6129 4.18997 27.8762 4.78383 27.9165C5.37769 27.9568 5.96485 27.7712 6.42764 27.3969C9.02754 29.3984 12.2192 30.4785 15.5003 30.4672C17.7607 30.4647 19.9912 29.9508 22.0247 28.964C24.0583 27.9771 25.8422 26.5429 27.2428 24.7687C28.6433 22.9946 29.6243 20.9265 30.1121 18.7194C30.6 16.5123 30.582 14.2234 30.0597 12.0242C30.0492 11.979 30.0299 11.9364 30.0029 11.8987C29.9758 11.861 29.9416 11.8291 29.9022 11.8047C29.8628 11.7803 29.8189 11.7639 29.7731 11.7566C29.7273 11.7492 29.6806 11.7509 29.6355 11.7617Z" fill="white"/>
<path d="M1.2383 15.5023C1.23845 12.9655 1.91522 10.4746 3.19882 8.28646C4.48243 6.09833 6.32642 4.29216 8.54068 3.05416C10.7549 1.81617 13.2593 1.19116 15.7956 1.24356C18.3319 1.29597 20.8083 2.02391 22.9695 3.35231C22.7465 3.82956 22.7108 4.37319 22.8695 4.87551C23.0283 5.37783 23.3699 5.80222 23.8267 6.06462C24.2835 6.32702 24.8222 6.40829 25.3361 6.29233C25.85 6.17637 26.3016 5.87165 26.6014 5.43851C26.9013 5.00537 27.0275 4.47541 26.9552 3.95359C26.8828 3.43177 26.6172 2.95616 26.2108 2.62095C25.8044 2.28573 25.2869 2.11538 24.7608 2.14361C24.2348 2.17185 23.7385 2.39662 23.3703 2.77341C21.1034 1.37201 18.5033 0.601401 15.8388 0.54123C13.1744 0.481059 10.5422 1.13351 8.21425 2.43114C5.88634 3.72878 3.94719 5.62453 2.59719 7.92247C1.24719 10.2204 0.535328 12.8372 0.53517 15.5023C0.53391 16.4158 0.617076 17.3275 0.783608 18.2257C0.797902 18.3067 0.840296 18.38 0.903321 18.4327C0.966347 18.4854 1.04596 18.5142 1.12814 18.514C1.14943 18.514 1.17065 18.5117 1.19142 18.507C1.28307 18.4904 1.3644 18.4382 1.41757 18.3618C1.47074 18.2853 1.4914 18.1909 1.47501 18.0992C1.31703 17.2426 1.23779 16.3733 1.2383 15.5023Z" fill="white"/>
<path d="M13.3906 13.1797V13.3906H17.6094V13.1797C17.5766 10.3297 13.4234 10.3297 13.3906 13.1797Z" fill="white"/>
<path d="M25.3312 8.19686C21.375 8.23671 17.5687 5.79217 16.1133 4.73749C15.9346 4.60837 15.7197 4.53888 15.4992 4.53888C15.2787 4.53888 15.0639 4.60837 14.8852 4.73749C13.4297 5.79217 9.61406 8.22733 5.66719 8.19686C5.52702 8.19547 5.38796 8.22182 5.25801 8.27439C5.12806 8.32696 5.0098 8.40472 4.91003 8.50318C4.81026 8.60165 4.73095 8.71888 4.67667 8.84812C4.62239 8.97736 4.59421 9.11606 4.59375 9.25624C4.59609 14.668 5.67891 22.4094 15.0234 27.1391C15.1708 27.2142 15.3338 27.2533 15.4992 27.2533C15.6646 27.2533 15.8276 27.2142 15.975 27.1391C25.3195 22.4094 26.4023 14.668 26.4047 9.25624C26.4026 8.97348 26.2884 8.70312 26.0871 8.5045C25.8858 8.30588 25.614 8.19524 25.3312 8.19686ZM19.3664 18.8984C19.3664 19.3646 19.1812 19.8117 18.8516 20.1414C18.5219 20.471 18.0748 20.6562 17.6086 20.6562H13.3898C12.9236 20.6562 12.4765 20.471 12.1469 20.1414C11.8172 19.8117 11.632 19.3646 11.632 18.8984V15.1484C11.6322 14.8065 11.7321 14.4721 11.9194 14.1862C12.1067 13.9002 12.3734 13.675 12.6867 13.5383V13.175C12.7289 9.41327 18.2695 9.41327 18.3117 13.175V13.5383C18.6251 13.675 18.8917 13.9002 19.079 14.1862C19.2664 14.4721 19.3662 14.8065 19.3664 15.1484V18.8984Z" fill="white"/>
<path d="M16.0762 16.6198C16.0709 16.5883 16.0724 16.5561 16.0805 16.5253C16.0886 16.4944 16.1031 16.4656 16.123 16.4407C16.2015 16.3272 16.2475 16.1944 16.2559 16.0566C16.2643 15.9188 16.2349 15.7814 16.1708 15.6591C16.1067 15.5369 16.0104 15.4345 15.8923 15.363C15.7742 15.2916 15.6388 15.2538 15.5008 15.2538C15.3627 15.2538 15.2273 15.2916 15.1092 15.363C14.9911 15.4345 14.8948 15.5369 14.8307 15.6591C14.7666 15.7814 14.7372 15.9188 14.7456 16.0566C14.754 16.1944 14.8 16.3272 14.8785 16.4407C14.8984 16.4653 14.9128 16.4939 14.9209 16.5244C14.929 16.555 14.9305 16.5869 14.9254 16.6181C14.8703 16.8926 14.7144 17.6773 14.6045 18.222C14.5912 18.2899 14.593 18.36 14.6099 18.4271C14.6269 18.4942 14.6585 18.5568 14.7025 18.6103C14.7465 18.6637 14.8017 18.7068 14.8644 18.7363C14.927 18.7659 14.9954 18.7812 15.0646 18.7812H15.9365C16.0058 18.7812 16.0743 18.7659 16.137 18.7362C16.1997 18.7065 16.2551 18.6634 16.2991 18.6097C16.3431 18.5561 16.3746 18.4934 16.3914 18.4261C16.4082 18.3588 16.4099 18.2886 16.3963 18.2206L16.0762 16.6198Z" fill="white"/>
</g>
<defs>
<clipPath id="clip0_893_2479">
<rect width="30" height="30" fill="white" transform="translate(0.5 0.5)"/>
</clipPath>
</defs>
</svg>
