<svg width="18" height="18" viewBox="0 0 18 18" fill="none" xmlns="http://www.w3.org/2000/svg">
<g clip-path="url(#clip0_673_5754)">
<path d="M17.6393 3.77554C17.2072 1.7656 16.5371 0.35798 16.5088 0.299066C16.3925 0.0568186 16.1125 -0.0592241 15.8589 0.0299022C15.8093 0.0472056 14.6285 0.465921 13.141 1.35348C11.9134 2.08612 10.2635 3.27567 9.01481 4.93556C8.73727 4.56587 8.42993 4.20552 8.09361 3.85588C7.34256 3.0753 6.44581 2.34623 5.42793 1.6887C3.70115 0.573037 2.23215 0.0516002 2.17035 0.0299022C1.91684 -0.0592241 1.63683 0.0568186 1.52038 0.299066C1.49209 0.35798 0.822059 1.7656 0.389885 3.77554C0.135278 4.96014 0.0166259 6.10986 0.0374999 7.19283C0.063867 8.56186 0.314355 9.82817 0.781684 10.9565C1.24915 12.0849 1.96752 13.1574 2.91687 14.1441C3.66778 14.9246 4.56468 15.6538 5.58242 16.3113C7.30919 17.427 8.7782 17.9486 8.83999 17.9702C8.89644 17.99 8.95549 17.9999 9.01454 17.9999C9.07359 17.9999 9.13264 17.99 9.18922 17.9702C9.25088 17.9486 10.72 17.427 12.4468 16.3113C13.4645 15.6538 14.3613 14.9246 15.1123 14.1441C16.0617 13.1574 16.7801 12.0849 17.2474 10.9565C17.7149 9.82817 17.9652 8.56186 17.9916 7.19283C18.0126 6.10986 17.8939 4.96014 17.6393 3.77554ZM1.75617 10.553C0.810248 8.26949 1.04893 5.7414 1.41559 4.0226C1.68187 2.77428 2.05294 1.75818 2.27678 1.20653C3.47443 1.7141 6.74161 3.29846 8.56218 6.13073C8.5674 6.13952 8.57303 6.14831 8.5788 6.15682C8.83697 6.56139 9.06549 6.99123 9.25431 7.44703C10.5676 10.6178 9.64035 14.2567 9.00548 16.0724L4.31707 4.7536C4.2057 4.48457 3.89712 4.35672 3.6281 4.46823C3.35907 4.57974 3.23122 4.88818 3.34273 5.15734L8.03099 16.4758C7.50214 16.2214 6.83706 15.8677 6.13297 15.4114C4.65834 14.4553 2.70195 12.8364 1.75617 10.553ZM16.273 10.553C15.3273 12.8364 13.3709 14.4553 11.8962 15.4114C11.1922 15.8679 10.5274 16.2212 9.99836 16.4757L15.2237 3.86027C15.3352 3.59125 15.2074 3.28267 14.9383 3.1713C14.6692 3.05992 14.3607 3.18764 14.2494 3.45667L10.9727 11.3673C11.012 9.78312 10.7636 8.33486 10.2287 7.04342C10.0636 6.64503 9.86721 6.25336 9.64048 5.87022C10.799 4.19687 12.45 2.99648 13.6605 2.27179C14.5266 1.75324 15.292 1.40058 15.7523 1.20612C15.9761 1.75763 16.3472 2.774 16.6136 4.0226C16.9803 5.7414 17.219 8.26949 16.273 10.553Z" fill="black"/>
</g>
<defs>
<clipPath id="clip0_673_5754">
<rect width="18" height="18" fill="white"/>
</clipPath>
</defs>
</svg>
