<svg width="30" height="30" viewBox="0 0 30 30" fill="none" xmlns="http://www.w3.org/2000/svg">
<g clip-path="url(#clip0_671_5608)">
<path d="M13.8657 17.0381C13.694 16.8665 13.4158 16.8665 13.2442 17.0381C13.0726 17.2098 13.0726 17.488 13.2442 17.6596L14.1311 18.5465C14.3028 18.7181 14.581 18.718 14.7526 18.5465L19.2417 14.0574C19.4133 13.8857 19.4133 13.6075 19.2417 13.4359L17.6639 11.858C17.4922 11.6865 17.214 11.6865 17.0424 11.858L14.4418 14.4587L12.9569 12.9737C12.7853 12.8022 12.5071 12.8022 12.3354 12.9737L10.7576 14.5515C10.586 14.7232 10.586 15.0014 10.7576 15.173L11.7891 16.2045C11.9608 16.3761 12.239 16.3761 12.4106 16.2045C12.5822 16.0328 12.5822 15.7546 12.4106 15.583L11.6898 14.8623L12.6461 13.906L14.131 15.3909C14.3027 15.5625 14.5809 15.5625 14.7525 15.3909L17.3531 12.7903L18.3094 13.7466L14.4417 17.6142L13.8657 17.0381Z" fill="black"/>
<path d="M29.0893 12.7253C28.795 12.2654 28.517 11.8311 28.404 11.4082C28.2838 10.9587 28.3066 10.4273 28.3306 9.86467C28.3655 9.0491 28.4014 8.20576 27.9921 7.49824C27.5762 6.7793 26.8215 6.38777 26.0916 6.00908C25.5974 5.75268 25.1306 5.51051 24.81 5.18994C24.4894 4.86937 24.2473 4.40256 23.9909 3.90838C23.6122 3.17854 23.2206 2.42385 22.5018 2.00783C21.7943 1.59855 20.9509 1.63436 20.1354 1.66939C19.5727 1.69348 19.0413 1.71621 18.5918 1.59592C18.1689 1.48289 17.7346 1.20492 17.2747 0.910664C16.5752 0.463008 15.8518 0 15 0C14.1482 0 13.4249 0.462891 12.7253 0.910664C12.2655 1.20492 11.8311 1.48295 11.4082 1.59592C10.9588 1.71604 10.4273 1.6933 9.86467 1.66934C9.04916 1.63465 8.20576 1.59855 7.49818 2.00789C7.26785 2.14113 7.05967 2.31562 6.86174 2.54121C6.70166 2.72361 6.71971 3.00135 6.90211 3.16137C7.08463 3.32145 7.36219 3.3034 7.52227 3.121C7.65609 2.96848 7.79221 2.85328 7.9384 2.76867C8.4242 2.48754 9.10576 2.5166 9.82717 2.54748C10.4312 2.57326 11.0556 2.59992 11.6351 2.44512C12.8694 2.11512 13.9211 0.878906 15 0.878906C16.0782 0.878906 17.1322 2.11559 18.3649 2.44506C18.9443 2.6001 19.569 2.57326 20.1729 2.54754C20.8944 2.51678 21.5757 2.4876 22.0615 2.76861C22.5585 3.05619 22.8753 3.66674 23.2106 4.31314C23.4865 4.84494 23.7718 5.39484 24.1884 5.81139C24.605 6.22805 25.1549 6.51334 25.6867 6.78926C26.3331 7.12465 26.9437 7.44141 27.2312 7.93834C27.5123 8.42414 27.4832 9.10559 27.4523 9.82705C27.4266 10.4311 27.3998 11.0556 27.5547 11.635C27.8849 12.8695 29.1211 13.9211 29.1211 15C29.1211 16.0782 27.8844 17.1322 27.5549 18.3649C27.4 18.9444 27.4267 19.5688 27.4525 20.1728C27.4833 20.8943 27.5124 21.5758 27.2313 22.0616C26.9438 22.5586 26.3333 22.8754 25.6868 23.2107C25.1551 23.4866 24.6052 23.7718 24.1886 24.1885C23.772 24.6051 23.4867 25.155 23.2108 25.6867C22.8754 26.3332 22.5587 26.9438 22.0617 27.2313C21.5759 27.5123 20.8943 27.4833 20.1729 27.4525C19.569 27.4267 18.9445 27.4 18.365 27.5549C17.1312 27.8846 16.0789 29.1211 15 29.1211C14.4054 29.1211 13.8195 28.7461 13.1991 28.3491C12.7029 28.0315 12.1899 27.7032 11.6352 27.5549C11.0558 27.3999 10.4312 27.4268 9.82717 27.4525C9.1057 27.4831 8.42432 27.5123 7.93852 27.2314C7.44152 26.9438 7.12471 26.3332 6.78938 25.6868C6.51352 25.1551 6.22828 24.6052 5.81162 24.1886C5.39496 23.772 4.84506 23.4867 4.31332 23.2107C3.6668 22.8754 3.05625 22.5586 2.76867 22.0615C2.4876 21.5757 2.51672 20.8942 2.54754 20.1728C2.57332 19.5688 2.60004 18.9442 2.44518 18.3649C2.11518 17.1306 0.878906 16.079 0.878906 15C0.878906 13.9219 2.11564 12.8677 2.44512 11.6352C2.59998 11.0557 2.57332 10.4312 2.54748 9.82723C2.51672 9.10576 2.48766 8.42426 2.76867 7.93846C3.05625 7.44141 3.6668 7.12459 4.31326 6.78926C4.845 6.5134 5.3949 6.22811 5.8115 5.8115C6.05262 5.57033 6.26818 5.26986 6.51035 4.83727C6.62889 4.62551 6.55336 4.35768 6.3416 4.23914C6.1299 4.12055 5.86195 4.19619 5.74348 4.40789C5.54232 4.76713 5.37164 5.00836 5.19 5.19C4.86949 5.51057 4.40268 5.75273 3.9085 6.00908C3.17865 6.38777 2.42385 6.77936 2.00789 7.49824C1.59861 8.20576 1.63459 9.0491 1.66939 9.86467C1.69342 10.4273 1.71615 10.9588 1.59598 11.4083C1.48295 11.8311 1.20498 12.2655 0.910664 12.7253C0.462949 13.4249 0 14.1482 0 15C0 15.8518 0.462949 16.5752 0.910723 17.2747C1.20498 17.7346 1.48301 18.1689 1.59598 18.5918C1.71615 19.0412 1.69342 19.5727 1.66939 20.1353C1.63453 20.9509 1.59855 21.7942 2.00789 22.5018C2.42385 23.2207 3.17854 23.6122 3.90844 23.9909C4.40268 24.2473 4.86943 24.4895 5.19 24.8101C5.51057 25.1306 5.75273 25.5974 6.00908 26.0916C6.38777 26.8214 6.77936 27.5762 7.49824 27.9922C8.2057 28.4014 9.04893 28.3655 9.86455 28.3306C10.4273 28.3066 10.9587 28.2838 11.4082 28.4041C11.8311 28.5171 12.2654 28.7951 12.7253 29.0893C13.4248 29.537 14.1482 30 15 30C15.8518 30 16.5752 29.5371 17.2747 29.0893C17.7346 28.7951 18.1689 28.5171 18.5918 28.4041C19.0412 28.2839 19.5725 28.3066 20.1353 28.3307C20.9509 28.3655 21.7942 28.4015 22.5018 27.9922C23.2207 27.5762 23.6122 26.8215 23.9909 26.0916C24.2473 25.5973 24.4895 25.1306 24.81 24.8101C25.1305 24.4895 25.5973 24.2473 26.0915 23.991C26.8213 23.6123 27.5762 23.2207 27.9921 22.5018C28.4014 21.7943 28.3655 20.951 28.3306 20.1354C28.3066 19.5727 28.2838 19.0413 28.404 18.5918C28.517 18.1689 28.795 17.7346 29.0893 17.2747C29.5371 16.5751 30 15.8518 30 15C30 14.1482 29.5371 13.4249 29.0893 12.7253Z" fill="black"/>
<path d="M17.37 22.7825C17.6026 22.7134 17.7352 22.4688 17.6661 22.2362C17.5971 22.0034 17.3524 21.8708 17.1198 21.94C16.7023 22.0639 16.0309 22.2074 15.6741 22.2231C15.4222 22.2343 15.2336 22.4534 15.2557 22.7012L15.5391 25.8752C15.5606 26.1156 15.7723 26.2951 16.0156 26.2739C16.797 26.2048 17.566 26.0554 18.3014 25.8301C18.5334 25.7589 18.6639 25.5131 18.5927 25.2811C18.5216 25.049 18.2757 24.9186 18.0438 24.9897C17.5042 25.1551 16.9446 25.2761 16.3748 25.3506L16.3114 24.6409C16.8176 24.5684 17.4201 24.4302 17.8344 24.3067C18.067 24.2373 18.1993 23.9926 18.1299 23.76C18.0605 23.5273 17.8156 23.395 17.5832 23.4644C17.2169 23.5737 16.6752 23.6973 16.2331 23.764L16.1694 23.0516C16.5716 22.9893 17.0378 22.8811 17.37 22.7825Z" fill="black"/>
<path d="M19.8049 25.2514C20.5032 24.9236 21.1736 24.5195 21.7974 24.0501C21.9914 23.9042 22.0303 23.6287 21.8844 23.4348C21.7384 23.2408 21.4629 23.2018 21.269 23.3478C20.8117 23.6918 20.3276 23.9979 19.8251 24.2605L19.5185 23.6074C19.8812 23.4196 20.2514 23.2148 20.8379 22.7781C21.0325 22.6331 21.0728 22.3578 20.9279 22.1632C20.7828 21.9685 20.5075 21.9283 20.3129 22.0732C19.7965 22.4578 19.4742 22.6398 19.1446 22.8113L18.8426 22.168C19.0918 22.0353 19.4451 21.8281 19.8797 21.5051C20.0745 21.3603 20.1151 21.085 19.9703 20.8903C19.8255 20.6954 19.5501 20.6549 19.3554 20.7997C18.654 21.3211 18.2225 21.4889 18.0497 21.5853C17.8482 21.6978 17.7678 21.947 17.8659 22.1559L19.2203 25.0404C19.3235 25.26 19.585 25.3545 19.8049 25.2514Z" fill="black"/>
<path d="M11.7632 22.4603C11.9852 22.5585 12.2447 22.4582 12.3429 22.2363C12.4411 22.0144 12.3408 21.7548 12.1189 21.6566C11.6274 21.4391 11.2259 21.2139 10.8169 20.9265C10.6186 20.7872 10.3451 20.8346 10.2053 21.0324C9.07687 22.6288 9.49353 22.0395 8.36584 23.6345C8.22568 23.8327 8.27279 24.1069 8.47101 24.247C8.66917 24.3871 8.94345 24.34 9.08349 24.1418L9.75533 23.1915C10.1853 23.4677 10.6155 23.6957 11.1313 23.923C11.3535 24.021 11.6128 23.9202 11.7107 23.6981C11.8086 23.4761 11.7079 23.2167 11.4858 23.1188C11.0276 22.9167 10.6438 22.7148 10.2633 22.4729L10.6765 21.8883C11.0144 22.1003 11.3622 22.2829 11.7632 22.4603Z" fill="black"/>
<path d="M13.947 22.1768C13.6878 22.1363 13.3726 22.0627 13.0758 21.9928C12.8457 21.9384 12.6131 22.0766 12.551 22.3052C12.1671 23.7167 12.5321 22.3751 11.7147 25.3802C11.651 25.6144 11.7893 25.8559 12.0235 25.9196C12.2588 25.9834 12.4994 25.8442 12.5629 25.6108L12.8694 24.4837C13.5143 24.6366 13.6093 24.5999 13.7331 24.671C13.8494 24.7364 13.9626 24.8751 13.953 25.0367L13.9047 25.8319C13.8893 26.0843 14.0897 26.298 14.3437 26.298C14.5742 26.298 14.7678 26.1184 14.7819 25.8852L14.8303 25.0892C14.8473 24.8004 14.7577 24.5157 14.5888 24.2825C14.7858 24.08 14.9089 23.8055 14.927 23.4988C14.9653 22.8491 14.5348 22.2683 13.947 22.1768ZM13.2883 22.9433C13.5065 22.9917 13.6254 23.0165 13.8078 23.0446L13.8079 23.0443C13.8092 23.0445 13.8106 23.0446 13.8119 23.0447L13.8118 23.0453C13.9473 23.0663 14.0607 23.258 14.0495 23.4472C14.0374 23.6542 13.8793 23.7773 13.7161 23.7534C13.7161 23.7534 13.7161 23.7534 13.716 23.7534C13.362 23.6952 13.3683 23.6988 13.1001 23.6353L13.2883 22.9433Z" fill="black"/>
<path d="M8.89844 15C8.89844 18.3645 11.6358 21.1019 15.0003 21.1019C18.3649 21.1019 21.1022 18.3645 21.1022 15C21.1022 13.9272 20.8199 12.8721 20.2856 11.9486C20.164 11.7386 19.8953 11.6668 19.6851 11.7883C19.4751 11.9098 19.4032 12.1786 19.5248 12.3887C19.9818 13.1786 20.2233 14.0816 20.2233 15C20.2233 17.8799 17.8803 20.223 15.0003 20.223C12.1203 20.223 9.77734 17.88 9.77734 15C9.77734 12.12 12.1203 9.77692 15.0003 9.77692C16.2064 9.77692 17.3391 10.1762 18.276 10.9316C18.465 11.084 18.7415 11.0542 18.8939 10.8652C19.0463 10.6763 19.0166 10.3997 18.8276 10.2473C17.7484 9.37731 16.3892 8.89807 15.0003 8.89807C11.6358 8.89807 8.89844 11.6354 8.89844 15Z" fill="black"/>
<path d="M11.3363 5.76406C11.026 5.06914 10.145 4.74458 9.3322 5.19933C9.3281 5.20162 9.32394 5.20402 9.3199 5.20648C8.52923 5.68308 8.36019 6.59955 8.81576 7.22603C9.73732 8.49394 8.4322 6.69822 10.1271 9.03048C10.2701 9.22712 10.5448 9.27013 10.741 9.12763C10.9374 8.9849 10.9809 8.71009 10.8382 8.51374L10.166 7.5889C10.3425 7.4733 10.5625 7.33736 10.9823 7.12068L11.4482 8.15808C11.5476 8.37945 11.8077 8.47824 12.0292 8.37892C12.2505 8.27949 12.3494 8.01933 12.25 7.79796C11.7169 6.61126 11.874 6.96101 11.3363 5.76406ZM9.76761 5.96281C10.1195 5.76951 10.4324 5.89507 10.5342 6.12324L10.6193 6.31279C10.2708 6.48904 9.91269 6.70138 9.64685 6.87453L9.52667 6.70917C9.37509 6.50076 9.42619 6.1724 9.76761 5.96281Z" fill="black"/>
<path d="M22.8837 6.87794C22.7061 6.70404 22.4269 6.71476 22.2609 6.88597C20.9314 8.25636 21.4323 7.74009 20.042 9.17312C19.8731 9.3472 19.8772 9.62511 20.051 9.79421C20.4083 10.1417 20.7309 10.5267 21.0098 10.9384C21.1457 11.1391 21.4188 11.1921 21.6201 11.0559C21.8211 10.9197 21.8736 10.6465 21.7375 10.4455C21.507 10.1052 21.2499 9.78132 20.9702 9.47857L21.4683 8.96511C21.7812 9.29956 22.046 9.6332 22.3305 10.0471C22.468 10.247 22.7414 10.2978 22.9416 10.1603C23.1416 10.0228 23.1923 9.74921 23.0548 9.54917C22.7347 9.08353 22.4372 8.71058 22.0811 8.33353L22.5791 7.82025C22.973 8.23445 23.2989 8.64191 23.6493 9.1529C23.7863 9.35242 24.0595 9.40439 24.2603 9.26675C24.4605 9.12947 24.5115 8.85589 24.3742 8.65574C23.9077 7.9757 23.4619 7.4439 22.8837 6.87794Z" fill="black"/>
<path d="M6.23685 8.53937C6.03581 8.40326 5.76265 8.4557 5.62648 8.65662C5.49036 8.85759 5.5428 9.13081 5.74372 9.26699C6.00886 9.44669 8.11659 10.8751 8.38167 11.0547C8.58347 11.1916 8.85646 11.1375 8.99198 10.9376C9.12816 10.7366 9.07571 10.4634 8.8748 10.3272L7.92862 9.68593C8.11735 9.43503 8.3195 9.1938 8.53366 8.96394L9.32931 9.7839C9.49876 9.95839 9.77679 9.96197 9.9507 9.79328C10.1249 9.62423 10.1291 9.34603 9.96007 9.17189C9.25419 8.44445 8.44677 7.61242 7.74089 6.88498C7.57196 6.71089 7.29376 6.70662 7.1195 6.8756C6.9453 7.04464 6.94114 7.32285 7.11013 7.49699L7.92083 8.33247C7.6646 8.60499 7.42366 8.89251 7.20025 9.19228L6.23685 8.53937Z" fill="black"/>
<path d="M19.6377 4.67172C19.4163 4.57217 19.1562 4.67084 19.0567 4.89227L17.7497 7.79858C17.65 8.02018 17.7493 8.2811 17.9713 8.38012C18.4145 8.57799 18.8478 8.82983 19.259 9.12877C19.4551 9.27133 19.7299 9.22832 19.8729 9.03174C20.0156 8.83545 19.9721 8.56065 19.7759 8.41785C19.4384 8.17246 19.0869 7.95514 18.7268 7.76881L19.8583 5.2528C19.9578 5.03143 19.8591 4.77121 19.6377 4.67172Z" fill="black"/>
<path d="M12.8075 4.82618C12.9622 4.73437 13.2422 4.71269 13.352 4.69165C13.4512 4.67882 13.5354 4.68532 13.5963 4.71028C13.8212 4.80269 14.0776 4.69505 14.1697 4.47058C14.2618 4.24605 14.1545 3.98929 13.93 3.89718C13.6493 3.78193 13.4122 3.79657 13.131 3.83677C12.9512 3.86232 12.6164 3.90984 12.3366 4.08392C12.3321 4.08673 12.3277 4.0896 12.3233 4.09253C11.861 4.40372 11.6554 4.92732 11.7991 5.42654C11.9787 6.05027 12.6533 6.45028 13.303 6.31763C13.3058 6.31704 13.3086 6.31646 13.3115 6.31587C13.3335 6.31271 13.3234 6.31423 13.5988 6.2656C13.705 6.25077 13.778 6.28839 13.8208 6.32273C13.8901 6.37816 13.9321 6.46376 13.9392 6.56355C13.9521 6.74472 13.8592 6.88933 13.7891 6.93403C13.7854 6.9365 13.7816 6.93896 13.7779 6.94148C13.687 6.99286 13.3873 7.05866 13.2597 6.96884C13.0611 6.82927 12.787 6.87708 12.6474 7.0756C12.5078 7.27411 12.5557 7.54822 12.7542 7.68784C12.9654 7.83632 13.2128 7.89087 13.4499 7.89087C13.7905 7.89087 14.1097 7.77831 14.2695 7.67009C14.6296 7.43571 14.849 6.96726 14.816 6.50138C14.7917 6.15919 14.6292 5.84402 14.3702 5.63665C14.1126 5.43028 13.7857 5.34532 13.4541 5.39864C13.1148 5.45859 13.1373 5.45454 13.1264 5.45671C12.9232 5.49726 12.6975 5.37005 12.6437 5.18337C12.5906 4.99874 12.7474 4.86819 12.8075 4.82618Z" fill="black"/>
<path d="M17.7841 4.1712C17.4874 3.92809 17.1594 3.87899 16.7875 3.82339C16.4012 3.76561 16.0166 3.86341 15.7315 4.09157C15.4767 4.29553 15.3234 4.58686 15.2999 4.91188C15.2653 5.38948 15.5294 5.86913 15.9573 6.10661C16.1888 6.23844 16.3719 6.26258 16.4816 6.277C16.5001 6.27946 16.5518 6.28842 16.5606 6.28983C16.8105 6.32915 16.8487 6.37643 16.8943 6.45583C16.9931 6.62839 16.8944 6.86024 16.7396 6.96899C16.6043 7.06432 16.301 6.99512 16.2105 6.93383C16.1848 6.91678 16.1594 6.88966 16.1367 6.85549C16.0029 6.65299 15.7302 6.59757 15.5278 6.73133C15.3253 6.86522 15.2697 7.13786 15.4036 7.3403C15.4917 7.47348 15.5995 7.58305 15.7204 7.66339C16.1091 7.92729 16.7973 8.00364 17.2454 7.68776C17.7918 7.3038 17.9727 6.57096 17.6567 6.01866C17.4113 5.59157 17.041 5.47702 16.7088 5.42352C16.6675 5.41503 16.6299 5.4101 16.5963 5.40565C16.3062 5.36751 16.1628 5.16495 16.1765 4.97534C16.1922 4.75725 16.432 4.66139 16.6513 4.69175C16.8599 4.72948 17.0946 4.74249 17.227 4.851C17.4147 5.00481 17.6916 4.97745 17.8454 4.78966C17.9993 4.60192 17.9718 4.32501 17.7841 4.1712Z" fill="black"/>
<path d="M5.84037 14.9625C4.92895 14.9625 4.1875 15.704 4.1875 16.6153C4.1875 17.5268 4.92895 18.2682 5.84037 18.2682C6.75174 18.2682 7.49318 17.5268 7.49318 16.6153C7.49318 15.704 6.75174 14.9625 5.84037 14.9625ZM5.84037 17.3893C5.41363 17.3893 5.06641 17.0421 5.06641 16.6153C5.06641 16.1886 5.41363 15.8414 5.84037 15.8414C6.26711 15.8414 6.61428 16.1886 6.61428 16.6153C6.61428 17.0421 6.26717 17.3893 5.84037 17.3893Z" fill="black"/>
<path d="M22.5078 16.6153C22.5078 17.5268 23.2493 18.2682 24.1606 18.2682C25.072 18.2682 25.8135 17.5268 25.8135 16.6153C25.8135 15.704 25.072 14.9625 24.1606 14.9625C23.2493 14.9625 22.5078 15.704 22.5078 16.6153ZM24.9346 16.6153C24.9346 17.0421 24.5874 17.3893 24.1606 17.3893C23.7339 17.3893 23.3867 17.0421 23.3867 16.6153C23.3867 16.1886 23.7339 15.8414 24.1606 15.8414C24.5874 15.8414 24.9346 16.1886 24.9346 16.6153Z" fill="black"/>
</g>
<defs>
<clipPath id="clip0_671_5608">
<rect width="30" height="30" fill="white"/>
</clipPath>
</defs>
</svg>
