<svg width="30" height="30" viewBox="0 0 30 30" fill="none" xmlns="http://www.w3.org/2000/svg">
<g clip-path="url(#clip0_671_5632)">
<path d="M21.5625 8.90625C19.3687 8.90625 17.3798 9.79734 15.9375 11.2364V6.70359C15.9375 6.20531 15.7828 5.72813 15.4894 5.32547L12.3769 1.04531C12.1144 0.684375 11.6906 0.46875 11.2439 0.46875C10.5295 0.46875 9.945 1.00828 9.86062 1.70063C9.85687 1.69922 9.85406 1.69734 9.85031 1.69641L6.41625 0.55125C6.25266 0.496406 6.08203 0.46875 5.90906 0.46875H5.82375C4.93875 0.46875 4.21875 1.18875 4.21875 2.07422C4.21875 2.70797 4.59281 3.28359 5.17172 3.54094L8.21906 4.89563C8.46328 5.00344 8.67 5.17828 8.81766 5.4L10.0763 7.28766C10.2309 7.51922 10.3125 7.78875 10.3125 8.06766V9.23297L9.71391 8.33484C9.36516 7.81219 8.78203 7.5 8.15391 7.5H3.51562C2.22328 7.5 1.17188 8.55141 1.17188 9.84375C1.17188 9.85359 1.17187 9.86344 1.17234 9.87328C0.768281 9.97734 0.46875 10.3448 0.46875 10.7812V15.5255C0.46875 15.862 0.543281 16.2014 0.684375 16.508L3.05156 21.6366C3.24891 22.0636 3.49734 22.4662 3.79031 22.8319L4.08797 23.2041C4.67859 23.9423 5.04 24.8438 5.13141 25.7812H4.21875V29.5312H14.5312V25.7812H13.5938V25.4437C13.5938 24.7964 13.7203 24.165 13.9688 23.5683L14.9245 21.2747C16.3533 23.4234 18.7941 24.8438 21.5625 24.8438C25.9566 24.8438 29.5312 21.2691 29.5312 16.875C29.5312 12.4809 25.9566 8.90625 21.5625 8.90625ZM13.5938 28.5938H5.15625V26.7188H13.5938V28.5938ZM13.1034 23.2078C12.8067 23.9194 12.6562 24.6722 12.6562 25.4437V25.7812H6.07359C5.97937 24.6309 5.54297 23.5223 4.81969 22.6186L4.52203 22.2464C4.27641 21.9394 4.06781 21.6019 3.90281 21.2437L1.53562 16.1152C1.45125 15.9314 1.40625 15.7275 1.40625 15.5255V10.7812C2.44031 10.7812 3.28125 11.6222 3.28125 12.6562V14.5312C3.28125 14.9714 3.49125 15.3923 3.84375 15.6558L4.78078 16.3589C5.22469 16.6917 5.77359 16.875 6.32812 16.875C7.74937 16.875 8.90625 15.7181 8.90625 14.2969V12.4219C8.90625 11.0006 7.74937 9.84375 6.32812 9.84375H2.10938C2.10938 9.06844 2.74031 8.4375 3.51562 8.4375H8.15391C8.46797 8.4375 8.75953 8.59359 8.93391 8.85516L10.1545 10.6866C10.2581 10.8417 10.3125 11.0217 10.3125 11.2069V13.5938H11.25V11.2069V8.06766C11.25 7.60313 11.1141 7.15359 10.8562 6.76781L9.59766 4.88016C9.35109 4.51031 9.00562 4.21922 8.59922 4.03875L5.55234 2.68406C5.31188 2.57719 5.15625 2.33766 5.15625 2.07422C5.15625 1.70578 5.45578 1.40625 5.82422 1.40625H5.90953C5.98125 1.40625 6.05297 1.4175 6.12047 1.44L9.55406 2.58469C9.84844 2.68266 10.1053 2.87859 10.2778 3.13641L11.7975 5.41594L12.42 6.34969C12.5747 6.58172 12.6562 6.85125 12.6562 7.13016V13.5938H13.5938V7.13016C13.5938 6.66563 13.4578 6.21609 13.2 5.83031L11.0597 2.61844C11.0583 2.61609 11.0559 2.61422 11.0541 2.61188L10.8591 2.31938C10.8084 2.24203 10.7812 2.15344 10.7812 2.06156V1.86891C10.7812 1.61391 10.9889 1.40625 11.2439 1.40625C11.3916 1.40625 11.5317 1.4775 11.6189 1.59656L14.7314 5.87625C14.9072 6.11859 15 6.40406 15 6.70359V12.3647C14.115 13.6486 13.5938 15.2016 13.5938 16.875C13.5938 18.0745 13.868 19.2084 14.3442 20.2298L13.1034 23.2078ZM3.50109 10.7812H6.32812C7.23281 10.7812 7.96875 11.5172 7.96875 12.4219V14.2969C7.96875 15.2016 7.23281 15.9375 6.32812 15.9375C5.97516 15.9375 5.62594 15.8208 5.34328 15.6094L4.40578 14.9062C4.28859 14.8181 4.21875 14.678 4.21875 14.5312V12.6562C4.21875 11.9367 3.94687 11.2791 3.50109 10.7812ZM21.5625 23.9062C17.6855 23.9062 14.5312 20.752 14.5312 16.875C14.5312 12.998 17.6855 9.84375 21.5625 9.84375C25.4395 9.84375 28.5938 12.998 28.5938 16.875C28.5938 20.752 25.4395 23.9062 21.5625 23.9062Z" fill="black"/>
<path d="M24.5117 13.7312L19.6869 18.556L18.612 17.4812L17.9492 18.144L19.6869 19.8817L25.1745 14.394L24.5117 13.7312Z" fill="black"/>
<path d="M21.5625 22.0312C18.7195 22.0312 16.4062 19.7179 16.4062 16.8749C16.4062 15.6585 16.8398 14.4773 17.6269 13.5477L16.912 12.9417C15.9816 14.0404 15.4688 15.4373 15.4688 16.8749C15.4688 20.2349 18.2025 22.9687 21.5625 22.9687C23.0002 22.9687 24.397 22.4559 25.4958 21.5254L24.8897 20.8106C23.9602 21.5976 22.7789 22.0312 21.5625 22.0312Z" fill="black"/>
<path d="M21.5622 10.7812C20.1245 10.7812 18.7277 11.2941 17.6289 12.2245L18.235 12.9394C19.1645 12.1523 20.3458 11.7188 21.5622 11.7188C24.4052 11.7188 26.7184 14.032 26.7184 16.875C26.7184 18.0914 26.2848 19.2727 25.4978 20.2022L26.2127 20.8083C27.1431 19.7095 27.6559 18.3127 27.6559 16.875C27.6559 13.515 24.9222 10.7812 21.5622 10.7812Z" fill="black"/>
</g>
<defs>
<clipPath id="clip0_671_5632">
<rect width="30" height="30" fill="white"/>
</clipPath>
</defs>
</svg>
