<svg width="30" height="30" viewBox="0 0 30 30" fill="none" xmlns="http://www.w3.org/2000/svg">
<g clip-path="url(#clip0_671_5625)">
<path d="M29.3849 10.7491C29.293 10.4375 28.9662 10.2593 28.6544 10.351C28.3428 10.4428 28.1645 10.7698 28.2563 11.0814C29.689 15.9456 28.3538 21.1924 24.7718 24.7744C19.4693 30.077 10.8952 30.1625 5.48698 25.0311L7.17197 24.6941C7.49055 24.6304 7.69713 24.3205 7.63343 24.0019C7.56972 23.6834 7.25997 23.4766 6.94128 23.5405L4.00021 24.1287C3.72528 24.1837 3.52734 24.4251 3.52734 24.7055V27.6466C3.52734 27.9714 3.79069 28.2348 4.11556 28.2348C4.44043 28.2348 4.70377 27.9714 4.70377 27.6466V25.9091C7.49837 28.5499 11.1364 29.9994 14.9975 29.9994C19.004 29.9994 22.7707 28.4393 25.6038 25.6062C29.4904 21.7196 30.9393 16.0266 29.3849 10.7491Z" fill="black"/>
<path d="M5.22482 5.22571C10.5273 -0.0768579 19.1015 -0.162266 24.5097 4.96896L22.8247 5.30594C22.5061 5.36965 22.2995 5.67952 22.3632 5.99809C22.4191 6.27773 22.6648 6.47108 22.9394 6.47108C22.9776 6.47108 23.0165 6.46731 23.0554 6.45955L25.9965 5.87133C26.2715 5.81634 26.4693 5.57493 26.4693 5.29453V2.35346C26.4693 2.02859 26.2059 1.76525 25.8811 1.76525C25.5563 1.76525 25.2929 2.02859 25.2929 2.35346V4.09093C22.4982 1.45014 18.8603 0.000610352 14.9992 0.000610352C10.9927 0.000610352 7.22598 1.56079 4.39291 4.39386C2.48581 6.30096 1.12762 8.68317 0.465234 11.283C-0.1778 13.8067 -0.153801 16.4679 0.534467 18.9789C0.606053 19.2401 0.842985 19.4118 1.10139 19.4118C1.15286 19.4118 1.20521 19.4049 1.2572 19.3907C1.57055 19.3048 1.75489 18.9812 1.66895 18.6679C0.357062 13.8817 1.71954 8.73093 5.22482 5.22571Z" fill="black"/>
<path d="M14.999 6.17676C10.1339 6.17676 6.17578 10.1348 6.17578 15C6.17578 16.6672 6.6407 18.2278 7.44756 19.5591C7.46638 19.5983 7.48909 19.6356 7.51644 19.67C9.0775 22.1622 11.8477 23.8232 14.999 23.8232C17.9161 23.8232 20.5067 22.3997 22.114 20.2114C22.1448 20.1783 22.1709 20.1416 22.1931 20.1028C23.2186 18.6613 23.8222 16.8998 23.8222 15C23.8222 10.1348 19.8641 6.17676 14.999 6.17676ZM14.999 22.6467C12.3686 22.6467 10.0442 21.3115 8.66763 19.2834C9.94441 17.1772 12.2261 15.8823 14.7049 15.8823C17.3645 15.8823 19.7964 17.3853 20.996 19.7389C19.5942 21.5091 17.427 22.6467 14.999 22.6467ZM14.999 14.7059C13.7016 14.7059 12.6461 13.6504 12.6461 12.353C12.6461 11.0556 13.7016 10.0001 14.999 10.0001C16.2963 10.0001 17.3518 11.0556 17.3518 12.353C17.3518 13.6504 16.2963 14.7059 14.999 14.7059ZM21.7247 18.6358C20.6858 16.9445 19.0745 15.6963 17.2123 15.0993C18.0141 14.4518 18.5283 13.4615 18.5283 12.3531C18.5283 10.407 16.9451 8.82378 14.999 8.82378C13.053 8.82378 11.4698 10.407 11.4698 12.3531C11.4698 13.3904 11.9197 14.3245 12.6346 14.9707C10.7864 15.4501 9.15061 16.561 8.02206 18.1286C7.5919 17.1731 7.35227 16.114 7.35227 15C7.35227 10.7836 10.7826 7.35324 14.999 7.35324C19.2155 7.35324 22.6458 10.7836 22.6458 15C22.6458 16.3151 22.3119 17.5538 21.7247 18.6358Z" fill="black"/>
</g>
<defs>
<clipPath id="clip0_671_5625">
<rect width="30" height="30" fill="white"/>
</clipPath>
</defs>
</svg>
