<svg width="30" height="30" viewBox="0 0 30 30" fill="none" xmlns="http://www.w3.org/2000/svg">
<g clip-path="url(#clip0_671_5638)">
<path d="M26.7991 5.73848H27.726C28.0493 5.73848 28.3116 5.47627 28.3116 5.15293C28.3116 4.82958 28.0493 4.56737 27.726 4.56737H25.5009C25.1776 4.56737 24.9153 4.82958 24.9153 5.15293V7.37803C24.9153 7.70137 25.1776 7.96358 25.5009 7.96358C25.8242 7.96358 26.0865 7.70137 26.0865 7.37803V6.73375C27.8631 9.11232 28.8289 11.9983 28.8289 15C28.8289 22.6253 22.6253 28.8289 15 28.8289C7.37469 28.8289 1.17111 22.6253 1.17111 15C1.17111 7.37469 7.37469 1.17111 15 1.17111C15.5639 1.17111 16.1315 1.20536 16.6871 1.27288C17.0077 1.31164 17.3001 1.08333 17.3391 0.762273C17.3781 0.441273 17.1495 0.149316 16.8284 0.110318C16.2261 0.0371241 15.611 0 15 0C10.9934 0 7.22649 1.56027 4.39341 4.39341C1.56027 7.22649 0 10.9934 0 15C0 19.0066 1.56027 22.7735 4.39341 25.6066C7.22649 28.4397 10.9934 30 15 30C19.0066 30 22.7735 28.4397 25.6066 25.6066C28.4397 22.7735 30 19.0066 30 15C30 11.619 28.8705 8.37312 26.7991 5.73848Z" fill="black"/>
<path d="M6.35147 8.84265C6.07819 8.66968 5.71649 8.75107 5.54346 9.02417C4.2067 11.1354 3.61494 13.6745 3.87721 16.1737C4.14335 18.71 5.28488 21.1017 7.09155 22.9085C9.27186 25.0888 12.1359 26.179 14.9999 26.179C17.864 26.179 20.7279 25.0888 22.9083 22.9085C27.269 18.5478 27.269 11.4524 22.9083 7.09179C21.1044 5.28793 18.7165 4.14681 16.1845 3.87863C13.6899 3.61425 11.1536 4.20138 9.0432 5.53158C8.76957 5.70403 8.68765 6.06561 8.86004 6.33918C9.03248 6.61281 9.39406 6.69473 9.66763 6.52234C13.6458 4.015 18.7499 4.5896 22.0801 7.91988C25.9842 11.8239 25.9842 18.1763 22.0801 22.0803C18.1761 25.9844 11.8237 25.9844 7.9197 22.0803C4.63545 18.7961 4.05223 13.5687 6.53299 9.65072C6.7059 9.37744 6.62469 9.01568 6.35147 8.84265Z" fill="black"/>
<path d="M22.6129 15.5949H23.335C23.6583 15.5949 23.9206 15.3327 23.9206 15.0094C23.9206 14.686 23.6583 14.4238 23.335 14.4238H22.6129C22.2896 14.4238 22.0273 14.686 22.0273 15.0094C22.0273 15.3327 22.2895 15.5949 22.6129 15.5949Z" fill="black"/>
<path d="M6.08203 14.9906C6.08203 15.3139 6.34424 15.5761 6.66758 15.5761H7.38969C7.71303 15.5761 7.97524 15.3139 7.97524 14.9906C7.97524 14.6672 7.71303 14.405 7.38969 14.405H6.66758C6.34424 14.405 6.08203 14.6672 6.08203 14.9906Z" fill="black"/>
<path d="M15.5969 7.38774V6.66563C15.5969 6.34229 15.3347 6.08008 15.0113 6.08008C14.688 6.08008 14.4258 6.34229 14.4258 6.66563V7.38774C14.4258 7.71108 14.688 7.97329 15.0113 7.97329C15.3347 7.97329 15.5969 7.71108 15.5969 7.38774Z" fill="black"/>
<path d="M14.4062 22.6122V23.3343C14.4062 23.6576 14.6685 23.9198 14.9918 23.9198C15.3151 23.9198 15.5774 23.6576 15.5774 23.3343V22.6122C15.5774 22.2888 15.3151 22.0266 14.9918 22.0266C14.6685 22.0266 14.4062 22.2888 14.4062 22.6122Z" fill="black"/>
<path d="M12.066 11.2368C11.8373 11.0082 11.4667 11.0082 11.2379 11.2368C11.0092 11.4655 11.0092 11.8362 11.2379 12.0649L13.2224 14.0494C13.0703 14.3328 12.9838 14.6565 12.9838 15C12.9838 16.1123 13.8888 17.0172 15.0011 17.0172C16.1134 17.0172 17.0183 16.1123 17.0183 15C17.0183 14.6565 16.9318 14.3328 16.7798 14.0494L20.7839 10.0453C21.0126 9.81659 21.0126 9.44582 20.7839 9.2171C20.5552 8.9885 20.1846 8.9885 19.9558 9.2171L15.9516 13.2213C15.6682 13.0692 15.3446 12.9827 15.0011 12.9827C14.6576 12.9827 14.334 13.0693 14.0505 13.2213L12.066 11.2368ZM15.8472 15C15.8472 15.4665 15.4676 15.8461 15.0011 15.8461C14.5345 15.8461 14.155 15.4665 14.155 15C14.155 14.5334 14.5345 14.1538 15.0011 14.1538C15.4676 14.1538 15.8472 14.5334 15.8472 15Z" fill="black"/>
<path d="M7.92141 7.91946C8.03091 7.81055 8.09351 7.65948 8.09351 7.50547C8.09351 7.35147 8.03091 7.20099 7.92141 7.09149C7.8125 6.98263 7.66196 6.91992 7.50743 6.91992C7.35343 6.91992 7.20235 6.98258 7.09344 7.09149C6.98459 7.2004 6.92188 7.35147 6.92188 7.50547C6.92188 7.66006 6.98453 7.81055 7.09344 7.91946C7.20235 8.02832 7.35343 8.09103 7.50743 8.09103C7.66196 8.09103 7.8125 8.02832 7.92141 7.91946Z" fill="black"/>
<path d="M19.0543 1.74948C19.2089 1.74948 19.36 1.68735 19.4689 1.57791C19.5778 1.469 19.6405 1.31845 19.6405 1.16392C19.6405 1.00992 19.5778 0.858849 19.4689 0.749936C19.36 0.641082 19.2089 0.578369 19.0543 0.578369C18.9003 0.578369 18.7492 0.641023 18.6404 0.749936C18.5315 0.858849 18.4688 1.00992 18.4688 1.16392C18.4688 1.31851 18.5314 1.469 18.6404 1.57791C18.7492 1.68735 18.9003 1.74948 19.0543 1.74948Z" fill="black"/>
</g>
<defs>
<clipPath id="clip0_671_5638">
<rect width="30" height="30" fill="white"/>
</clipPath>
</defs>
</svg>
