<svg width="94" height="94" viewBox="0 0 94 94" fill="none" xmlns="http://www.w3.org/2000/svg">
<path d="M3.71329 74.5511C3.32985 73.7117 3.13203 72.7994 3.13334 71.8765V69.9688C3.12938 53.6551 5.70379 37.4433 10.7613 21.9333H45.0679C43.6282 26.454 42.382 31.0732 41.3567 35.694L44.4156 36.3727C45.4927 31.5183 46.8212 26.6671 48.3626 21.9333H51.7C53.3614 21.9315 54.9543 21.2706 56.1291 20.0958C57.3039 18.921 57.9648 17.3281 57.9666 15.6667V10.9667C57.9667 10.7609 57.9261 10.5572 57.8474 10.3671C57.7687 10.177 57.6533 10.0043 57.5078 9.85885C57.3623 9.71337 57.1896 9.59797 56.9995 9.51924C56.8094 9.44051 56.6057 9.39999 56.4 9.4H48.5667C48.5685 7.73855 49.2294 6.14568 50.4042 4.97086C51.579 3.79603 53.1719 3.1352 54.8333 3.13333H55.1169C56.4911 3.13561 57.8265 3.58852 58.9186 4.42262C60.0106 5.25672 60.799 6.42597 61.1627 7.75109L63.4681 16.2043C64.0149 18.2089 64.5286 20.2544 64.995 22.2842L68.0488 21.5825C67.573 19.5118 67.0489 17.4249 66.4911 15.3799L64.1857 6.92665C63.64 4.93897 62.4575 3.18511 60.8194 1.93397C59.1814 0.682824 57.1782 0.00344904 55.1169 0H12.5333C10.0412 0.0028176 7.65188 0.994076 5.88965 2.75631C4.12742 4.51854 3.13616 6.90783 3.13334 9.4V15.6667C3.13502 17.0063 3.5652 18.3103 4.361 19.3879C5.15679 20.4656 6.27646 21.2604 7.5563 21.6562C2.54475 37.2705 -0.00455969 53.57 9.97162e-06 69.9688V71.8765C-0.00197316 73.2472 0.291867 74.6022 0.861467 75.849L3.71329 74.5511ZM54.8333 12.5333V15.6667C54.8333 16.4977 54.5032 17.2946 53.9156 17.8823C53.328 18.4699 52.531 18.8 51.7 18.8C50.869 18.8 50.072 18.4699 49.4844 17.8823C48.8968 17.2946 48.5667 16.4977 48.5667 15.6667V12.5333H54.8333ZM6.26667 15.6667V9.4C6.26854 7.73855 6.92937 6.14568 8.1042 4.97086C9.27902 3.79603 10.8719 3.1352 12.5333 3.13333H47.8327C46.2861 4.85401 45.4313 7.0864 45.4333 9.4V15.6667C45.432 16.767 45.7222 17.8482 46.2743 18.8H9.40001C8.56929 18.799 7.77286 18.4686 7.18545 17.8812C6.59805 17.2938 6.26762 16.4974 6.26667 15.6667Z" fill="#DB5353"/>
<path d="M78.69 41.6131L77.9766 44.6642C87.4908 46.8887 90.8666 49.8447 90.8666 51.7C90.8666 53.2951 88.6027 55.1461 84.4167 56.7816C83.6852 54.4515 80.7423 52.5249 75.6366 51.0434L74.7634 54.0526C79.1148 55.3152 81.2264 56.8391 81.4463 57.8033C75.2217 59.6974 66.132 61.1 54.8333 61.1C43.5341 61.1 34.4441 59.6972 28.2195 57.8031C28.5327 56.3245 33.0007 53.8123 42.5141 52.5L42.0859 49.3961C37.3127 50.0546 33.2563 51.0758 30.3552 52.3495C27.4964 53.6045 25.7864 55.0915 25.2504 56.7818C21.0641 55.1462 18.8 53.2952 18.8 51.7C18.8 51.0396 19.3383 48.6931 26.2645 46.2286C31.5406 44.3512 38.939 43.0396 47.0967 42.5354L46.9033 39.408C38.4614 39.9298 30.7586 41.3037 25.2141 43.2765C17.323 46.0845 15.6667 49.4071 15.6667 51.7C15.6642 55.0007 16.2781 58.2729 17.4767 61.3483L20.6472 69.5012L23.5675 68.3656L20.397 60.2127C20.0391 59.2917 19.7395 58.3491 19.5 57.3905C21.5093 58.7332 24.2905 59.9328 27.8075 60.9586C35.0477 63.0704 44.6457 64.2334 54.8333 64.2334C65.0209 64.2334 74.6189 63.0704 81.8592 60.9586C85.3762 59.9328 88.1573 58.7332 90.1666 57.3905C89.9271 58.3491 89.6275 59.2917 89.2696 60.2127L83.8908 74.0439C83.3814 75.3553 82.6784 76.583 81.8051 77.686L84.2615 79.6311C85.329 78.283 86.1884 76.7824 86.8111 75.1795L92.1899 61.3483C93.3885 58.2729 94.0024 55.0007 94 51.7C94 46.0383 84.4078 42.9501 78.69 41.6131Z" fill="#DB5353"/>
<path d="M66.2535 29.4871C58.558 32.2857 52.222 37.9177 48.5403 45.2319L44.0323 54.2462L46.8347 55.6476L51.343 46.633C54.4711 40.4193 59.7301 35.5384 66.1595 32.8817C66.2379 33.1868 66.3395 33.4855 66.4632 33.7752C62.1418 37.4135 58.2583 42.3729 55.442 47.8809L50.8301 56.8403L53.6159 58.2744L58.2299 49.3112C60.844 44.1988 64.4239 39.6091 68.3971 36.2437C68.5723 36.3761 68.7544 36.4992 68.9427 36.6125C69.1513 36.7366 69.3671 36.8482 69.589 36.9466C68.9618 38.1213 68.3079 39.3433 67.6271 40.6127C65.9184 43.802 64.1581 47.1082 62.346 50.5314L58.7933 57.2328L61.5617 58.7004L65.1167 51.9947C66.919 48.5693 68.6765 45.2686 70.389 42.0925C71.1988 40.581 71.9774 39.1275 72.7119 37.7495C73.0316 43.1169 71.8318 48.4657 69.2501 53.1823L67.0499 57.2165L69.8008 58.7168L72.0008 54.683C75.0757 49.0674 76.3802 42.6531 75.7428 36.2826C76.3804 35.8144 76.9205 35.2263 77.3327 34.5511L89.8024 14.146C90.6502 12.7578 90.9119 11.0898 90.53 9.50871C90.1481 7.92764 89.1539 6.56297 87.766 5.71481C86.3781 4.86665 84.7102 4.60446 83.129 4.98588C81.5478 5.36731 80.1828 6.36112 79.3343 7.74877L66.8645 28.154C66.6086 28.5725 66.4035 29.0201 66.2535 29.4871ZM69.5381 29.7878L82.0078 9.38266C82.2132 9.04609 82.4828 8.75327 82.8013 8.52095C83.1199 8.28863 83.4811 8.12136 83.8643 8.02871C84.2475 7.93605 84.6453 7.91982 85.0348 7.98094C85.4243 8.04206 85.7979 8.17934 86.1343 8.38493C86.4707 8.59051 86.7633 8.86038 86.9954 9.17911C87.2275 9.49783 87.3945 9.85917 87.4868 10.2425C87.5792 10.6257 87.5951 11.0235 87.5337 11.4129C87.4723 11.8024 87.3347 12.1759 87.1289 12.5122L74.6591 32.9173C74.4538 33.2538 74.1841 33.5467 73.8656 33.779C73.5471 34.0113 73.1858 34.1786 72.8026 34.2712C72.4194 34.3639 72.0217 34.3801 71.6322 34.319C71.2427 34.2579 70.8691 34.1206 70.5326 33.915C70.1962 33.7094 69.9036 33.4395 69.6715 33.1208C69.4395 32.8021 69.2725 32.4408 69.1801 32.0575C69.0878 31.6742 69.0718 31.2764 69.1333 30.887C69.1947 30.4975 69.3322 30.124 69.5381 29.7878Z" fill="#DB5353"/>
<path d="M77.9932 78.7082C77.3914 78.1598 76.6823 77.7424 75.9108 77.4825C75.1392 77.2225 74.3221 77.1256 73.5111 77.198L72.0316 77.3325C71.0533 75.7254 69.678 74.3969 68.0379 73.4747C66.3979 72.5525 64.5483 72.0676 62.6668 72.0667H17.2335C15.3513 72.0672 13.5009 72.5518 11.8601 73.4741C10.2193 74.3963 8.84336 75.7251 7.86446 77.3327L6.38938 77.1986C5.60075 77.1268 4.80577 77.2157 4.05247 77.4599C3.29916 77.704 2.60317 78.0983 2.00653 78.619C1.4099 79.1397 0.925004 79.7759 0.581152 80.4892C0.2373 81.2026 0.0416255 81.9782 0.00594917 82.7693C-0.0297271 83.5603 0.0953358 84.3504 0.373582 85.0918C0.651828 85.8332 1.07748 86.5105 1.62483 87.0828C2.17217 87.655 2.82985 88.1104 3.55812 88.4214C4.28639 88.7323 5.07015 88.8924 5.86203 88.892C6.0373 88.892 6.21343 88.884 6.38928 88.8681L7.86432 88.734C8.84793 90.3373 10.2249 91.6627 11.8647 92.5843C13.5044 93.5059 15.3525 93.9932 17.2335 94H62.6668C64.1074 94.0043 65.5346 93.7226 66.8656 93.1713C68.1965 92.62 69.4049 91.81 70.4205 90.7883C71.0393 90.1704 71.5824 89.481 72.0383 88.7347L73.5131 88.8688C73.6897 88.8846 73.8691 88.8926 74.0466 88.8926C75.2274 88.8915 76.3804 88.5336 77.3543 87.8659C78.3282 87.1981 79.0776 86.2517 79.5042 85.1507C79.9309 84.0496 80.0149 82.8453 79.7453 81.6957C79.4756 80.5461 78.8649 79.5048 77.9932 78.7082ZM6.10557 85.7475C5.73915 85.7808 5.36979 85.7395 5.01975 85.6261C4.66971 85.5128 4.34625 85.3297 4.06885 85.088C3.79145 84.8463 3.56586 84.5509 3.40567 84.2197C3.24549 83.8885 3.15402 83.5282 3.13678 83.1607C3.11955 82.7932 3.1769 82.426 3.30538 82.0812C3.43387 81.7365 3.63083 81.4213 3.88439 81.1547C4.13795 80.8881 4.44286 80.6755 4.78076 80.5299C5.11865 80.3843 5.48252 80.3086 5.85045 80.3074C5.93498 80.3074 6.02005 80.3113 6.10567 80.3191L15.5378 81.1765C16.0011 81.2186 16.432 81.4325 16.7457 81.776C17.0595 82.1196 17.2334 82.568 17.2334 83.0333C17.2334 83.4986 17.0595 83.947 16.7457 84.2906C16.432 84.6341 16.0011 84.848 15.5378 84.8901L6.10557 85.7475ZM11.5382 88.4L15.8215 88.0106C17.0635 87.8976 18.2185 87.3244 19.0595 86.4034C19.9005 85.4825 20.3667 84.2804 20.3667 83.0333C20.3667 81.7861 19.9004 80.584 19.0594 79.6631C18.2184 78.7422 17.0635 78.169 15.8215 78.056L11.5301 77.6659C11.5846 77.6081 11.6389 77.5502 11.6953 77.4939C12.6063 76.5832 13.7278 75.9112 14.9605 75.5373C16.1932 75.1635 17.4991 75.0995 18.7625 75.3509C20.0258 75.6023 21.2077 76.1615 22.2034 76.9787C23.1991 77.796 23.9778 78.8462 24.4707 80.0363C24.9636 81.2264 25.1553 82.5197 25.029 83.8017C24.9027 85.0836 24.4622 86.3146 23.7465 87.3856C23.0308 88.4566 22.062 89.3346 20.9259 89.9418C19.7899 90.549 18.5216 90.8667 17.2335 90.8666C16.1666 90.8627 15.1116 90.642 14.1326 90.2179C13.1536 89.7939 12.271 89.1754 11.5382 88.4ZM68.2049 88.5727C67.4795 89.3025 66.6164 89.8811 65.6658 90.2748C64.7151 90.6686 63.6957 90.8698 62.6668 90.8666H24.898C25.9432 89.8473 26.7738 88.629 27.3409 87.2837C27.908 85.9384 28.2001 84.4933 28.2001 83.0333C28.2001 81.5734 27.908 80.1282 27.3409 78.7829C26.7738 77.4376 25.9432 76.2194 24.898 75.2H62.6668C64.2161 75.1999 65.7307 75.6593 67.0189 76.5201C68.3072 77.3809 69.3112 78.6044 69.904 80.0359C70.4969 81.4673 70.6518 83.0425 70.3494 84.562C70.0469 86.0816 69.3006 87.4773 68.2049 88.5727ZM74.0466 85.7593C73.9622 85.7593 73.8768 85.7555 73.7949 85.7481L73.3078 85.7038C73.7435 83.9501 73.7419 82.1162 73.3031 80.3632L73.7941 80.3185C74.1607 80.2852 74.5303 80.3265 74.8805 80.4399C75.2307 80.5533 75.5543 80.7365 75.8319 80.9783C76.1094 81.2202 76.335 81.5158 76.4952 81.8473C76.6554 82.1787 76.7467 82.5392 76.7638 82.9069C76.7809 83.2747 76.7233 83.642 76.5945 83.9869C76.4657 84.3318 76.2684 84.647 76.0145 84.9136C75.7606 85.1801 75.4553 85.3925 75.1171 85.5378C74.7789 85.6832 74.4147 85.7585 74.0466 85.7593Z" fill="#DB5353"/>
</svg>
