<svg width="73" height="94" viewBox="0 0 73 94" fill="none" xmlns="http://www.w3.org/2000/svg">
<path opacity="0.998" d="M33.1419 11.2435C32.023 11.2435 31.1159 12.1504 31.1159 13.2693C31.1159 14.3882 32.0228 15.2954 33.1417 15.2954H33.1419H34.3672V16.1995C29.1847 16.6058 24.8282 18.5757 21.7165 21.7195C18.6418 24.8259 16.823 29.022 16.4196 33.7307H15.6118C14.4931 33.7307 13.5861 34.6374 13.5859 35.7563C13.5859 36.8752 14.4927 37.7823 15.6116 37.7823H57.1738C58.2925 37.7821 59.1994 36.8751 59.1994 35.7563C59.1992 34.6378 58.2925 33.7309 57.1738 33.7307H56.3673C55.9639 29.022 54.1456 24.826 51.0709 21.7195C47.9592 18.5757 43.6013 16.6058 38.4186 16.1995V15.2954H39.6452C40.7641 15.2954 41.6711 14.3886 41.6711 13.2696V13.2695C41.6711 12.1506 40.7643 11.2435 39.6454 11.2435H33.1419ZM36.3926 20.1714C41.5731 20.1714 45.4983 21.8486 48.192 24.5701C50.4744 26.8761 51.8453 30.0218 52.2309 33.7307H20.5549C20.9405 30.0216 22.3131 26.8759 24.5956 24.5701C27.2891 21.8486 31.2122 20.1714 36.3926 20.1714Z" fill="#DB5353"/>
<path d="M2.02594 0C0.907211 0.00017568 0.00017568 0.907036 0 2.02594V91.9741C0.00017568 93.0928 0.907035 93.9998 2.02594 94H70.1232C71.2419 93.9998 72.1489 93.093 72.1491 91.9741V2.02594C72.1489 0.907211 71.2421 0.00017568 70.1232 0H2.02594ZM4.05188 4.05171H68.0974V89.9481H4.05188V4.05171Z" fill="#DB5353"/>
<path d="M13.9059 56.2175C12.787 56.2175 11.8799 57.1246 11.8799 58.2433C11.8799 59.3622 12.787 60.2692 13.9057 60.2692H58.8798C59.9987 60.2692 60.9057 59.3622 60.9057 58.2435C60.9057 57.1246 59.9987 56.2175 58.8799 56.2175H13.9059Z" fill="#DB5353"/>
<path d="M13.9059 67.4612C12.787 67.4612 11.8799 68.3682 11.8799 69.4869C11.8799 70.6058 12.787 71.5129 13.9057 71.5129H58.8798C59.9987 71.5129 60.9057 70.6058 60.9057 69.4871C60.9057 68.3682 59.9987 67.4614 58.8799 67.4612H13.9059Z" fill="#DB5353"/>
</svg>
