<svg width="94" height="94" viewBox="0 0 94 94" fill="none" xmlns="http://www.w3.org/2000/svg">
<path d="M75.701 15.7643C76.5452 15.2029 76.7745 14.0633 76.2131 13.2192C75.6516 12.375 74.5121 12.1457 73.6679 12.7071C72.8237 13.2685 72.5944 14.4081 73.1559 15.2523C73.7173 16.0966 74.8568 16.3258 75.701 15.7643Z" fill="#DB5353"/>
<path d="M53.1899 80.6196C53.1286 80.6548 47.014 84.0895 40.812 80.6098C39.926 80.1132 38.8048 80.4279 38.3076 81.3143C37.8106 82.2003 38.126 83.3215 39.0121 83.8187C41.7322 85.3445 44.4149 85.8536 46.7847 85.8536C51.3883 85.8536 54.8105 83.9316 55.0238 83.8089C55.9045 83.3026 56.208 82.1779 55.7016 81.2974C55.1953 80.4167 54.0706 80.113 53.1899 80.6196Z" fill="#DB5353"/>
<path d="M42.6393 64.9716C43.1363 64.0856 42.8209 62.9644 41.9348 62.4672C35.9704 59.1214 30.2405 62.3384 29.9996 62.477C29.1892 62.9429 28.8516 63.9786 29.236 64.8312C29.6757 65.8063 30.8955 66.2056 31.8249 65.6711C31.9943 65.5758 36.0244 63.37 40.1347 65.6759C41.0209 66.1731 42.1419 65.8579 42.6393 64.9716Z" fill="#DB5353"/>
<path d="M64.0025 62.4674C58.0384 59.1216 52.3081 62.3385 52.067 62.4771C51.1865 62.9834 50.883 64.1081 51.3894 64.9888C51.8957 65.8694 53.0202 66.1732 53.9011 65.6665C53.9419 65.6428 58.0397 63.3409 62.2023 65.6762C63.1392 66.2017 64.3539 65.791 64.7866 64.8113C65.1641 63.9563 64.8163 62.924 64.0025 62.4674Z" fill="#DB5353"/>
<path d="M79.0597 21.6595C79.1175 20.6453 78.3422 19.7762 77.3279 19.7185C76.3153 19.6576 75.4446 20.4362 75.3869 21.4504C75.1539 25.5388 72.3486 29.0399 68.4063 30.1621C67.6159 30.3872 67.0705 31.1092 67.0705 31.9314V45.8013H56.223V36.5148C56.223 35.499 55.3994 34.6752 54.3834 34.6752C53.3674 34.6752 52.5438 35.4988 52.5438 36.5148V45.8013H48.8488V30.9383C48.8488 29.9225 48.0252 29.0987 47.0092 29.0987C45.9934 29.0987 45.1696 29.9223 45.1696 30.9383V45.8013H41.4749V36.5148C41.4749 35.499 40.6513 34.6752 39.6353 34.6752C38.6195 34.6752 37.7957 35.4988 37.7957 36.5148V45.8013H26.9481V31.9314C26.9481 31.1094 26.4026 30.3872 25.6123 30.1621C21.493 28.9895 18.6159 25.1771 18.6159 20.8915C18.6159 15.5755 22.9408 11.2506 28.2567 11.2506C29.8797 11.2506 31.4852 11.6624 32.8995 12.4414C33.3625 12.6964 33.9125 12.7399 34.4095 12.5613C34.9067 12.3825 35.3031 11.9984 35.4975 11.5071C37.3795 6.75184 41.8981 3.67904 47.0092 3.67904C52.1204 3.67904 56.6389 6.75184 58.5207 11.5071C58.7153 11.9984 59.1115 12.3823 59.6089 12.5613C60.1055 12.7401 60.6561 12.6966 61.1189 12.4414C62.5333 11.6622 64.1387 11.2506 65.7618 11.2506C66.547 11.2506 67.3275 11.345 68.0817 11.5312C69.068 11.7742 70.0651 11.1722 70.3085 10.186C70.552 9.19952 69.9496 8.2026 68.9633 7.95916C67.9209 7.70194 66.8437 7.57141 65.7618 7.57141C64.1774 7.57141 62.6044 7.85579 61.1274 8.40309C58.3439 3.24208 52.9892 0 47.0094 0C41.0297 0 35.675 3.24208 32.8914 8.40327C31.4146 7.85616 29.8415 7.57159 28.2571 7.57159C20.9124 7.57159 14.9372 13.5468 14.9372 20.8915C14.9372 26.3374 18.3006 31.2306 23.2694 33.2417V54.3452C21.7063 57.2528 20.7081 60.3713 20.2957 63.6413C17.4822 64.3643 15.3971 66.9223 15.3971 69.958C15.3971 73.5041 18.2422 76.3981 21.7696 76.4774C23.5657 81.276 26.7615 85.5536 30.8836 88.64C35.5671 92.1464 41.1434 94 47.0094 94C52.8756 94 58.4519 92.1464 63.1351 88.6398C67.2572 85.5536 70.4532 81.2759 72.2493 76.4773C75.7767 76.3979 78.6218 73.504 78.6218 69.9578C78.6218 66.9221 76.5368 64.3639 73.7232 63.6411C73.3108 60.3709 72.3126 57.2524 70.7493 54.3447V33.2428C75.4862 31.3325 78.765 26.8368 79.0597 21.6595ZM67.0703 49.4804V52.9741H26.9484V49.4804H67.0703ZM72.0356 67.1178C72.0461 67.1178 72.0563 67.1178 72.0668 67.1177L72.1175 67.116C73.6769 67.125 74.9426 68.3966 74.9426 69.9578C74.9426 71.5248 73.6677 72.7997 72.1008 72.7997C71.4661 72.7997 70.919 72.5451 70.2947 72.7962C69.7845 73.0015 69.3863 73.4336 69.2237 73.9589C67.7861 78.5987 64.8407 82.7666 60.9302 85.6946C56.888 88.7209 52.0744 90.3208 47.0094 90.3208C41.9446 90.3208 37.1307 88.7211 33.0887 85.6946C29.1782 82.7666 26.2328 78.5987 24.7953 73.9589C24.6372 73.4485 24.2505 73.0204 23.7589 72.8111C23.4905 72.6969 23.1956 72.6482 22.9048 72.6688C22.5732 72.6923 22.2521 72.7997 21.918 72.7997C20.351 72.7997 19.0761 71.5248 19.0761 69.9578C19.0761 68.3968 20.3415 67.1255 21.9005 67.116L21.9521 67.1177C22.9232 67.1356 23.7491 66.3827 23.8178 65.4077C24.0297 62.4002 24.8028 59.5292 26.1159 56.8542H67.9031C69.2161 59.5292 69.9893 62.4002 70.2011 65.4077C70.2692 66.3724 71.0721 67.1178 72.0356 67.1178Z" fill="#DB5353"/>
<path d="M41.1747 74.1994C41.6811 75.0803 42.806 75.384 43.6863 74.8773C43.7194 74.8584 47.0071 73.0118 50.3495 74.887C51.2864 75.4124 52.501 75.0017 52.9337 74.0221C53.3112 73.1673 52.9635 72.1349 52.1496 71.6783C47.0055 68.7928 42.0606 71.5684 41.8528 71.6881C40.9717 72.1942 40.6684 73.3187 41.1747 74.1994Z" fill="#DB5353"/>
<path d="M32.1007 24.6447C31.2449 25.192 30.9949 26.3297 31.5423 27.1856C31.8934 27.7344 32.4871 28.034 33.0937 28.034C33.4328 28.034 33.7761 27.9402 34.0831 27.744C35.9385 26.5572 37.0737 24.6462 37.3661 22.2178C37.5688 20.5351 37.2925 19.1782 37.2604 19.0291C37.0461 18.0359 36.0666 17.3999 35.0732 17.614C34.0802 17.8281 33.4477 18.8022 33.6619 19.7953C33.6689 19.829 34.3311 23.218 32.1007 24.6447Z" fill="#DB5353"/>
<path d="M58.9446 17.6188C57.9521 17.4049 56.9728 18.0361 56.7585 19.0292C56.7264 19.1782 56.4501 20.5352 56.6528 22.2178C56.9452 24.6462 58.0804 26.5572 59.9358 27.744C60.2428 27.9404 60.5861 28.0341 60.9252 28.0341C61.5316 28.0341 62.1255 27.7344 62.4766 27.1857C63.024 26.3299 62.774 25.1922 61.9183 24.6447C59.7023 23.2272 60.3416 19.8729 60.3568 19.7962C60.5654 18.8061 59.9347 17.8323 58.9446 17.6188Z" fill="#DB5353"/>
</svg>
