<svg width="18" height="18" viewBox="0 0 18 18" fill="none" xmlns="http://www.w3.org/2000/svg">
<g clip-path="url(#clip0_768_4531)">
<path d="M8.9994 18.0001C7.51853 18.0003 6.06045 17.6353 4.75435 16.9374C3.44826 16.2395 2.33448 15.2302 1.51171 13.9989C0.68893 12.7676 0.182561 11.3524 0.0374647 9.87866C-0.107631 8.40491 0.113025 6.91812 0.679885 5.55003C1.24675 4.18195 2.14231 2.97481 3.28721 2.03556C4.43212 1.09632 5.79103 0.453982 7.24352 0.16546C8.69602 -0.123063 10.1973 -0.0488582 11.6142 0.381496C13.0312 0.81185 14.3201 1.58507 15.3668 2.63264C16.6269 3.89134 17.4852 5.4956 17.833 7.24234C18.1809 8.98908 18.0026 10.7998 17.3209 12.4451C16.6391 14.0905 15.4845 15.4966 14.0032 16.4855C12.5218 17.4743 10.7804 18.0014 8.9994 18.0001ZM8.9994 1.02027C7.15282 1.02126 5.36371 1.66249 3.93692 2.83471C2.51012 4.00693 1.53392 5.63761 1.17464 7.4489C0.815357 9.26019 1.09523 11.14 1.96657 12.7681C2.83792 14.3962 4.24682 15.6717 5.95321 16.3775C7.65961 17.0832 9.55792 17.1755 11.3247 16.6385C13.0915 16.1015 14.6174 14.9685 15.6425 13.4326C16.6676 11.8967 17.1284 10.0528 16.9464 8.21525C16.7644 6.37766 15.9509 4.66002 14.6445 3.35499C13.9038 2.61304 13.0238 2.02482 12.055 1.62415C11.0862 1.22347 10.0478 1.01825 8.9994 1.02027Z" fill="black"/>
<path d="M12.2555 14.1904H5.74183C5.37584 14.19 5.02498 14.0444 4.76619 13.7856C4.5074 13.5268 4.3618 13.1759 4.36133 12.8099V7.47521C4.36133 7.26474 4.53077 7.27901 4.74123 7.27901H13.2561C13.4666 7.27901 13.636 7.26474 13.636 7.47521V12.8099C13.6355 13.1759 13.4899 13.5268 13.2311 13.7856C12.9723 14.0444 12.6215 14.19 12.2555 14.1904ZM5.12114 7.85333V12.8099C5.12161 12.9747 5.1874 13.1326 5.30409 13.2489C5.42077 13.3653 5.57883 13.4306 5.74361 13.4306H12.2573C12.4221 13.4306 12.5801 13.3653 12.6968 13.2489C12.8135 13.1326 12.8793 12.9747 12.8798 12.8099V7.84798L5.12114 7.85333Z" fill="black"/>
<path d="M13.2572 7.84777H4.74231C4.6716 7.8476 4.60234 7.82771 4.54233 7.79033C4.48231 7.75294 4.43392 7.69956 4.40259 7.63617C4.37127 7.57278 4.35826 7.50191 4.36502 7.43152C4.37179 7.36114 4.39806 7.29404 4.44088 7.23778L6.41353 4.67476C6.48666 4.58201 6.59189 4.71043 6.71496 4.71043H11.5307C11.6573 4.71043 11.775 4.58915 11.8446 4.69438L13.5746 7.26275C13.6127 7.31993 13.6345 7.38636 13.6378 7.45497C13.6411 7.52357 13.6258 7.59179 13.5934 7.65236C13.561 7.71293 13.5128 7.76359 13.4539 7.79894C13.395 7.83429 13.3276 7.85301 13.259 7.85312L13.2572 7.84777ZM5.37013 7.21102H12.6829L11.3238 5.2794H6.9058L5.37013 7.21102Z" fill="black"/>
<path d="M8.44661 14.1136C8.23793 14.1136 8.25219 13.9441 8.25219 13.7337V7.5892L6.59167 5.11893C6.55065 5.05472 6.34375 4.98159 6.34375 4.90668V4.23783C6.34422 3.97922 6.44717 3.73134 6.63003 3.54848C6.81289 3.36562 7.06077 3.26268 7.31937 3.26221H10.9383C11.197 3.26221 11.4452 3.36499 11.6282 3.54796C11.8111 3.73092 11.9139 3.97908 11.9139 4.23783V4.83355C11.9139 4.93431 11.8739 5.03094 11.8026 5.10218C11.7314 5.17343 11.6348 5.21346 11.534 5.21346C11.4332 5.21346 11.3366 5.17343 11.2654 5.10218C11.1941 5.03094 11.1541 4.93431 11.1541 4.83355V4.23783C11.1541 4.18059 11.1314 4.1257 11.0909 4.08522C11.0504 4.04475 10.9955 4.02201 10.9383 4.02201H7.31402C7.25679 4.02201 7.20189 4.04475 7.16142 4.08522C7.12095 4.1257 7.09821 4.18059 7.09821 4.23783V4.79074L8.7623 7.2628C8.80405 7.32573 8.82637 7.39954 8.82651 7.47505V13.7337C8.82651 13.8344 8.78648 13.9311 8.71524 14.0023C8.64399 14.0735 8.54736 14.1136 8.44661 14.1136Z" fill="black"/>
<path d="M5.16462 13.2074C5.11421 13.1327 5.0712 13.0533 5.0362 12.9702C4.98269 12.8436 4.93454 12.7134 4.88638 12.585L2.72467 14.7467C2.6733 14.7983 2.63835 14.864 2.62421 14.9354C2.61007 15.0069 2.61738 15.0809 2.64522 15.1482C2.67305 15.2155 2.72017 15.2731 2.78065 15.3136C2.84112 15.3542 2.91224 15.376 2.98507 15.3763C3.08332 15.3756 3.17742 15.3366 3.24726 15.2675L5.22526 13.2895C5.21099 13.2627 5.19137 13.236 5.16462 13.2074Z" fill="black"/>
<path d="M15.2678 2.73239C15.2335 2.69804 15.1928 2.67078 15.1479 2.65219C15.1031 2.63359 15.055 2.62402 15.0065 2.62402C14.9579 2.62402 14.9099 2.63359 14.8651 2.65219C14.8202 2.67078 14.7795 2.69804 14.7452 2.73239L12.0234 5.45593C12.152 5.60973 12.2661 5.77512 12.3641 5.94998C12.3891 5.99457 12.4158 6.03738 12.4408 6.08019L15.2678 3.25498C15.3021 3.22069 15.3294 3.17996 15.348 3.13512C15.3666 3.09029 15.3762 3.04222 15.3762 2.99369C15.3762 2.94515 15.3666 2.89708 15.348 2.85225C15.3294 2.80741 15.3021 2.76668 15.2678 2.73239Z" fill="black"/>
</g>
<defs>
<clipPath id="clip0_768_4531">
<rect width="18" height="18" fill="white"/>
</clipPath>
</defs>
</svg>
