<svg width="18" height="18" viewBox="0 0 18 18" fill="none" xmlns="http://www.w3.org/2000/svg">
<g clip-path="url(#clip0_768_4506)">
<path d="M9.00091 18C6.9188 17.9984 4.90165 17.2749 3.29314 15.9529C1.68462 14.6308 0.584256 12.7919 0.179511 10.7495C-0.225234 8.70713 0.0906841 6.58759 1.07344 4.75201C2.0562 2.91642 3.64499 1.47836 5.56913 0.68283C7.49327 -0.112698 9.63372 -0.216475 11.6258 0.389181C13.6179 0.994836 15.3383 2.27245 16.4941 4.00436C17.6498 5.73626 18.1693 7.81531 17.964 9.88728C17.7587 11.9592 16.8414 13.8959 15.3683 15.3674C14.5327 16.204 13.54 16.8672 12.4473 17.3189C11.3545 17.7707 10.1833 18.0022 9.00091 18ZM9.00091 1.02021C7.15433 1.0212 5.36522 1.66244 3.93843 2.83466C2.51163 4.00688 1.53543 5.63756 1.17615 7.44885C0.816866 9.26014 1.09674 11.14 1.96808 12.768C2.83943 14.3961 4.24833 15.6717 5.95472 16.3774C7.66111 17.0832 9.55943 17.1754 11.3262 16.6384C13.093 16.1014 14.6189 14.9685 15.644 13.4325C16.6691 11.8966 17.1299 10.0528 16.9479 8.21519C16.7659 6.3776 15.9524 4.65996 14.646 3.35493C13.9053 2.61299 13.0253 2.02477 12.0565 1.62409C11.0877 1.22342 10.0493 1.01819 9.00091 1.02021Z" fill="black"/>
<path d="M9.31231 14.0369H8.27604C7.65131 14.0365 7.05229 13.7881 6.61054 13.3463C6.16878 12.9045 5.92039 12.3055 5.91992 11.6808V11.0744C5.91992 10.9604 5.96521 10.851 6.04582 10.7704C6.12643 10.6898 6.23577 10.6445 6.34977 10.6445H6.94905C7.57379 10.645 8.1728 10.8934 8.61456 11.3351C9.05632 11.7769 9.3047 12.3759 9.30517 13.0007L9.31231 14.0369ZM6.63692 11.3615V11.6826C6.6374 12.1176 6.81043 12.5347 7.11805 12.8424C7.42568 13.15 7.84278 13.323 8.27783 13.3235H8.59887V13.0024C8.5984 12.5674 8.42537 12.1503 8.11774 11.8427C7.81012 11.535 7.39302 11.362 6.95797 11.3615H6.63692Z" fill="black"/>
<path d="M9.31231 11.5415H8.27604C7.65116 11.5415 7.05187 11.2932 6.61001 10.8514C6.16815 10.4095 5.91992 9.81024 5.91992 9.18536V8.58072C5.91992 8.46672 5.96521 8.35739 6.04582 8.27678C6.12643 8.19617 6.23577 8.15088 6.34977 8.15088H6.94905C7.57393 8.15088 8.17322 8.39911 8.61508 8.84097C9.05694 9.28283 9.30517 9.88212 9.30517 10.507L9.31231 11.5415ZM6.63692 8.8661V9.18536C6.63739 9.62057 6.81037 10.0379 7.11795 10.3458C7.42552 10.6537 7.84262 10.8271 8.27783 10.828H8.59887V10.507C8.5984 10.072 8.42537 9.65485 8.11774 9.34723C7.81012 9.0396 7.39302 8.86657 6.95797 8.8661H6.63692Z" fill="black"/>
<path d="M9.31231 9.04816H8.27604C7.65131 9.04768 7.05229 8.79929 6.61054 8.35754C6.16878 7.91578 5.92039 7.31677 5.91992 6.69203V6.08561C5.91992 5.97161 5.96521 5.86227 6.04582 5.78166C6.12643 5.70105 6.23577 5.65576 6.34977 5.65576H6.94905C7.57379 5.65623 8.1728 5.90462 8.61456 6.34638C9.05632 6.78813 9.3047 7.38715 9.30517 8.01189L9.31231 9.04816ZM6.63692 6.37277V6.69381C6.6374 7.12886 6.81043 7.54596 7.11805 7.85359C7.42568 8.16122 7.84278 8.33425 8.27783 8.33472H8.59887V8.01367C8.5984 7.57862 8.42537 7.16153 8.11774 6.8539C7.81012 6.54627 7.39302 6.37324 6.95797 6.37277H6.63692Z" fill="black"/>
<path d="M9.62611 14.0369H8.58984V13.0007C8.58984 12.3758 8.83808 11.7765 9.27993 11.3346C9.72179 10.8928 10.3211 10.6445 10.946 10.6445H11.5506C11.6071 10.6443 11.6631 10.6553 11.7154 10.6768C11.7676 10.6983 11.8151 10.7299 11.8551 10.7699C11.895 10.8099 11.9267 10.8574 11.9482 10.9096C11.9697 10.9619 11.9807 11.0179 11.9805 11.0744V11.6808C11.9805 12.3054 11.7325 12.9044 11.291 13.3462C10.8495 13.788 10.2507 14.0365 9.62611 14.0369ZM9.30507 13.3235H9.62611C10.0612 13.323 10.4783 13.15 10.7859 12.8424C11.0935 12.5347 11.2665 12.1176 11.267 11.6826V11.3615H10.946C10.5109 11.362 10.0938 11.535 9.7862 11.8427C9.47857 12.1503 9.30554 12.5674 9.30507 13.0024V13.3235Z" fill="black"/>
<path d="M9.62611 11.5415H8.58984V10.507C8.58961 10.1975 8.65039 9.89104 8.76872 9.60508C8.88704 9.31912 9.06058 9.05928 9.27941 8.84045C9.49825 8.62162 9.75808 8.44808 10.044 8.32975C10.33 8.21143 10.6365 8.15065 10.946 8.15088H11.5506C11.6071 8.15065 11.6631 8.1616 11.7154 8.18312C11.7676 8.20464 11.8151 8.23629 11.8551 8.27625C11.895 8.31622 11.9267 8.36369 11.9482 8.41595C11.9697 8.46821 11.9807 8.52421 11.9805 8.58072V9.18536C11.9807 9.49469 11.92 9.80103 11.8018 10.0869C11.6835 10.3727 11.5102 10.6325 11.2915 10.8513C11.0729 11.0701 10.8132 11.2437 10.5275 11.3621C10.2417 11.4805 9.93544 11.5415 9.62611 11.5415ZM9.30507 10.828H9.62611C10.0613 10.8271 10.4784 10.6537 10.786 10.3458C11.0936 10.0379 11.2665 9.62058 11.267 9.18536V8.8661H10.946C10.5109 8.86657 10.0938 9.0396 9.7862 9.34723C9.47857 9.65486 9.30554 10.072 9.30507 10.507V10.828Z" fill="black"/>
<path d="M9.62611 9.04816H8.58984V8.01189C8.58984 7.38701 8.83808 6.78772 9.27993 6.34586C9.72179 5.904 10.3211 5.65576 10.946 5.65576H11.6166C11.6642 5.65575 11.7113 5.66526 11.7552 5.68374C11.7991 5.70223 11.8388 5.7293 11.872 5.76338C11.9053 5.79745 11.9314 5.83784 11.9488 5.88215C11.9662 5.92646 11.9745 5.97381 11.9733 6.0214V6.69203C11.9733 7.31537 11.7263 7.91331 11.2864 8.35492C10.8464 8.79652 10.2494 9.0458 9.62611 9.04816ZM9.30507 8.33472H9.62611C10.0612 8.33425 10.4783 8.16122 10.7859 7.85359C11.0935 7.54596 11.2665 7.12886 11.267 6.69381V6.37277H10.946C10.5109 6.37324 10.0938 6.54627 9.7862 6.8539C9.47857 7.16153 9.30554 7.57862 9.30507 8.01367V8.33472Z" fill="black"/>
<path d="M8.95257 7.53395L8.19811 6.77771C7.96875 6.54862 7.7868 6.27656 7.66265 5.9771C7.53851 5.67764 7.47461 5.35664 7.47461 5.03247C7.47461 4.70829 7.53851 4.3873 7.66265 4.08784C7.7868 3.78837 7.96875 3.51631 8.19811 3.28722L8.71179 2.77355C8.74394 2.74124 8.78215 2.71561 8.82424 2.69812C8.86633 2.68063 8.91145 2.67163 8.95703 2.67163C9.00261 2.67163 9.04773 2.68063 9.08982 2.69812C9.1319 2.71561 9.17012 2.74124 9.20227 2.77355L9.71595 3.28722C10.1783 3.75037 10.438 4.37805 10.438 5.03247C10.438 5.68689 10.1783 6.31457 9.71595 6.77771L8.95257 7.53395ZM8.95257 3.53692L8.6993 3.7902C8.37135 4.11975 8.18725 4.56576 8.18725 5.03068C8.18725 5.49561 8.37135 5.94162 8.6993 6.27117L8.95257 6.52444L9.20762 6.27117C9.53557 5.94162 9.71967 5.49561 9.71967 5.03068C9.71967 4.56576 9.53557 4.11975 9.20762 3.7902L8.95257 3.53692Z" fill="black"/>
<path d="M8.96414 15.5422C8.86953 15.5422 8.7788 15.5046 8.7119 15.4377C8.645 15.3708 8.60742 15.2801 8.60742 15.1854V7.02908C8.60742 6.93447 8.645 6.84374 8.7119 6.77684C8.7788 6.70995 8.86953 6.67236 8.96414 6.67236C9.05875 6.67236 9.14948 6.70995 9.21638 6.77684C9.28328 6.84374 9.32086 6.93447 9.32086 7.02908V15.1837C9.32109 15.2307 9.31204 15.2772 9.29421 15.3207C9.27639 15.3642 9.25016 15.4037 9.21701 15.4371C9.18386 15.4704 9.14446 15.4968 9.10106 15.5148C9.05767 15.5329 9.01114 15.5422 8.96414 15.5422Z" fill="black"/>
<path d="M6.10703 12.1624C6.0322 11.9497 5.98777 11.7275 5.97505 11.5024L2.73248 14.7468C2.68111 14.7984 2.64616 14.8641 2.63202 14.9355C2.61789 15.007 2.62519 15.081 2.65303 15.1483C2.68086 15.2156 2.72798 15.2732 2.78845 15.3138C2.84892 15.3543 2.92005 15.3761 2.99288 15.3764C3.09113 15.3757 3.18523 15.3367 3.25507 15.2676L6.17481 12.3479C6.15162 12.2854 6.12844 12.2248 6.10703 12.1624Z" fill="black"/>
<path d="M15.268 2.73239C15.2337 2.69804 15.193 2.67078 15.1482 2.65219C15.1033 2.63359 15.0553 2.62402 15.0067 2.62402C14.9582 2.62402 14.9101 2.63359 14.8653 2.65219C14.8204 2.67078 14.7797 2.69804 14.7454 2.73239L11.6562 5.82335C11.8578 5.99101 11.9006 6.3174 11.9184 6.55819C11.9175 6.57304 11.9175 6.58793 11.9184 6.60278L15.2662 3.25498C15.3007 3.22081 15.3281 3.18017 15.3468 3.1354C15.3656 3.09062 15.3753 3.04259 15.3755 2.99406C15.3757 2.94552 15.3663 2.89742 15.3478 2.85252C15.3294 2.80762 15.3023 2.7668 15.268 2.73239Z" fill="black"/>
</g>
<defs>
<clipPath id="clip0_768_4506">
<rect width="18" height="18" fill="white"/>
</clipPath>
</defs>
</svg>
