<svg width="18" height="18" viewBox="0 0 18 18" fill="none" xmlns="http://www.w3.org/2000/svg">
<path d="M8.07775 13.9221C8.05535 13.9221 8.03255 13.9185 8.01015 13.9101C7.29255 13.6521 6.81055 12.9665 6.81055 12.2037C6.81055 11.4409 7.29255 10.7553 8.01015 10.4973C8.05375 10.4817 8.10175 10.4817 8.14535 10.4973C8.86295 10.7553 9.34495 11.4409 9.34495 12.2037C9.34495 12.3141 9.25535 12.4037 9.14495 12.4037C9.03455 12.4037 8.94495 12.3141 8.94495 12.2037C8.94495 11.6333 8.59935 11.1185 8.07775 10.8997C7.55615 11.1181 7.21055 11.6333 7.21055 12.2037C7.21055 12.7981 7.58615 13.3329 8.14575 13.5337C8.24975 13.5709 8.30375 13.6857 8.26615 13.7897C8.23655 13.8713 8.15975 13.9221 8.07775 13.9221Z" fill="black"/>
<path d="M9.40476 14.6145C8.81996 14.6145 8.25636 14.3309 7.91276 13.8361C7.88636 13.7981 7.87396 13.7517 7.87756 13.7053C7.94116 12.9453 8.47876 12.3021 9.21556 12.1049C9.95236 11.9077 10.7396 12.1957 11.1744 12.8221C11.2008 12.8601 11.2132 12.9065 11.2096 12.9529C11.146 13.7129 10.6084 14.3561 9.87156 14.5533C9.71676 14.5945 9.55996 14.6145 9.40476 14.6145ZM8.28436 13.6665C8.63036 14.1137 9.21756 14.3145 9.76836 14.1669C10.3192 14.0193 10.7272 13.5521 10.8032 12.9917C10.4572 12.5445 9.86996 12.3437 9.31916 12.4913C8.76836 12.6389 8.36036 13.1061 8.28436 13.6665Z" fill="black"/>
<path d="M14.3703 11.8905H12.0303C11.9199 11.8905 11.8303 11.8009 11.8303 11.6905C11.8303 11.5801 11.9199 11.4905 12.0303 11.4905H14.3703C15.8479 11.4905 17.0503 10.2881 17.0503 8.81049V8.65049H0.970312V8.81049C0.970312 10.2881 2.17271 11.4905 3.65031 11.4905H5.99031C6.10071 11.4905 6.19031 11.5801 6.19031 11.6905C6.19031 11.8009 6.10071 11.8905 5.99031 11.8905H3.65031C1.95191 11.8905 0.570312 10.5089 0.570312 8.81049V8.45049C0.570312 8.34009 0.659912 8.25049 0.770312 8.25049H17.2503C17.3607 8.25049 17.4503 8.34009 17.4503 8.45049V8.81049C17.4503 10.5089 16.0687 11.8905 14.3703 11.8905Z" fill="black"/>
<path d="M13.5507 13.0905H12.1311C12.0207 13.0905 11.9311 13.0009 11.9311 12.8905C11.9311 12.7801 12.0207 12.6905 12.1311 12.6905H13.5507C13.7711 12.6905 13.9507 12.5109 13.9507 12.2905V11.6905C13.9507 11.5801 14.0403 11.4905 14.1507 11.4905C14.2611 11.4905 14.3507 11.5801 14.3507 11.6905V12.2905C14.3507 12.7317 13.9919 13.0905 13.5507 13.0905ZM5.88952 13.0905H4.46992C4.02872 13.0905 3.66992 12.7317 3.66992 12.2905V11.6905C3.66992 11.5801 3.75952 11.4905 3.86992 11.4905C3.98032 11.4905 4.06992 11.5801 4.06992 11.6905V12.2905C4.06992 12.5109 4.24952 12.6905 4.46992 12.6905H5.88952C5.99992 12.6905 6.08952 12.7801 6.08952 12.8905C6.08952 13.0009 5.99992 13.0905 5.88952 13.0905Z" fill="black"/>
<path d="M9.01107 15.8898C7.16987 15.8898 5.67188 14.3918 5.67188 12.5506C5.67188 10.7094 7.16987 9.21143 9.01107 9.21143C10.8523 9.21143 12.3503 10.7094 12.3503 12.5506C12.3503 14.3918 10.8523 15.8898 9.01107 15.8898ZM9.01107 9.61143C7.39027 9.61143 6.07187 10.9298 6.07187 12.5506C6.07187 14.1714 7.39027 15.4898 9.01107 15.4898C10.6319 15.4898 11.9503 14.1714 11.9503 12.5506C11.9503 10.9298 10.6319 9.61143 9.01107 9.61143Z" fill="black"/>
<path d="M7.03342 8.65054C7.00662 8.65054 6.97942 8.64494 6.95342 8.63374C6.85222 8.58934 6.80582 8.47174 6.85022 8.37054C6.87662 8.31054 6.90142 8.25174 6.92542 8.19454C7.07702 7.83574 7.21982 7.49654 7.53582 7.31454C7.94422 7.07894 8.25582 6.73614 8.41342 6.35014C8.56382 5.98174 8.55422 5.61814 8.38582 5.32694C8.02862 4.70814 7.06542 4.59254 6.23942 5.06934C5.92342 5.25174 5.55862 5.20614 5.17222 5.15774C4.62302 5.08934 4.00022 5.01134 3.21862 5.46254C2.12342 6.09494 1.54502 7.30414 1.81222 8.40334C1.83822 8.51054 1.77262 8.61894 1.66502 8.64494C1.55782 8.67134 1.44942 8.60534 1.42342 8.49774C1.11462 7.22694 1.77022 5.83654 3.01822 5.11614C3.91622 4.59774 4.67062 4.69214 5.22142 4.76094C5.56662 4.80414 5.83982 4.83814 6.03902 4.72294C7.05622 4.13574 8.26422 4.31694 8.73182 5.12694C8.96342 5.52774 8.98142 6.01614 8.78302 6.50134C8.59182 6.96934 8.21982 7.38094 7.73502 7.66094C7.53542 7.77614 7.42862 8.02934 7.29302 8.35014C7.26822 8.40894 7.24262 8.46934 7.21582 8.53094C7.18382 8.60574 7.11062 8.65054 7.03342 8.65054Z" fill="black"/>
<path d="M8.7188 6.00886C8.6496 6.00886 8.5824 5.97286 8.5456 5.90886C8.4904 5.81326 8.5232 5.69086 8.6188 5.63566L10.4012 4.60646C10.4484 4.57926 10.5044 4.57246 10.5568 4.58766C10.6092 4.60286 10.6528 4.63886 10.6784 4.68686C10.6828 4.69526 10.6876 4.70406 10.6924 4.71246C10.8884 5.05166 11.3236 5.16846 11.6628 4.97246C12.002 4.77646 12.1188 4.34126 11.9228 4.00206C11.8324 3.84566 11.6872 3.73046 11.5144 3.67766C11.4136 3.64686 11.354 3.54366 11.3776 3.44086C11.4184 3.26486 11.3912 3.08166 11.3008 2.92526C11.206 2.76086 11.0528 2.64326 10.8692 2.59446C10.686 2.54526 10.4944 2.57046 10.33 2.66526C10.1656 2.76006 10.048 2.91326 9.9988 3.09646C9.9496 3.27966 9.9748 3.47126 10.0696 3.63566C10.0748 3.64446 10.0796 3.65286 10.0848 3.66126C10.114 3.70726 10.1228 3.76326 10.11 3.81606C10.0972 3.86886 10.0628 3.91406 10.016 3.94126L8.2336 4.97046C8.138 5.02566 8.0156 4.99286 7.9604 4.89726C7.9052 4.80166 7.938 4.67926 8.0336 4.62406L9.6524 3.68926C9.5644 3.46886 9.55 3.22686 9.6124 2.99326C9.6892 2.70686 9.8728 2.46726 10.1296 2.31886C10.3864 2.17046 10.6856 2.13126 10.9724 2.20806C11.2588 2.28486 11.4984 2.46846 11.6468 2.72526C11.7588 2.91926 11.8088 3.13886 11.7928 3.35886C11.9912 3.45526 12.1564 3.60846 12.2684 3.80206C12.5744 4.33246 12.3924 5.01286 11.862 5.31886C11.3796 5.59726 10.7728 5.47166 10.4368 5.04726L8.818 5.98206C8.7872 6.00006 8.7528 6.00886 8.7188 6.00886Z" fill="black"/>
<path d="M16.2104 8.65035C16.1676 8.65035 16.124 8.63675 16.0876 8.60835C16.0004 8.54035 15.9848 8.41475 16.0528 8.32755C16.196 8.14355 16.272 7.92355 16.272 7.69155C16.272 7.11835 15.8056 6.65195 15.2324 6.65195H10.2716C9.69843 6.65195 9.23203 7.11835 9.23203 7.69155C9.23203 7.92355 9.30803 8.14355 9.45123 8.32755C9.51923 8.41475 9.50363 8.54035 9.41643 8.60835C9.32923 8.67635 9.20363 8.66075 9.13563 8.57355C8.93723 8.31835 8.83203 8.01355 8.83203 7.69155C8.83203 6.89755 9.47803 6.25195 10.2716 6.25195H15.2324C16.026 6.25195 16.672 6.89795 16.672 7.69155C16.672 8.01355 16.5672 8.31835 16.3684 8.57355C16.3292 8.62395 16.27 8.65035 16.2104 8.65035Z" fill="black"/>
</svg>
