<svg width="18" height="18" viewBox="0 0 18 18" fill="none" xmlns="http://www.w3.org/2000/svg">
<g clip-path="url(#clip0_768_4522)">
<path d="M8.70445 3.14436C8.56348 3.32489 5.25 7.60263 5.25 10.4781C5.25 12.4286 6.73535 14.0195 8.625 14.2119V15.3751C8.625 15.5824 8.79273 15.7501 9.00001 15.7501C9.20729 15.7501 9.37502 15.5824 9.37502 15.3751V14.2119C11.2647 14.0195 12.75 12.4286 12.75 10.4781C12.75 7.6026 9.43655 3.32489 9.29557 3.14436C9.15343 2.96197 8.84652 2.96197 8.70445 3.14436ZM8.62496 13.4618C7.14914 13.2735 5.99995 12.015 5.99995 10.4781C5.99995 10.2515 6.02903 10.0111 6.07371 9.76439L8.62496 11.8055V13.4618ZM8.62496 10.8449L6.27596 8.96525C6.44123 8.4449 6.6668 7.90888 6.92509 7.38417L8.625 8.8009V10.8449H8.62496ZM8.62496 7.82433L7.27989 6.70312C7.73945 5.86342 8.23789 5.09451 8.62496 4.53324V7.82433ZM9.37499 4.53324C9.76206 5.09451 10.2605 5.86342 10.7201 6.70312L9.37499 7.82433V4.53324ZM9.37499 8.80093L11.0749 7.3842C11.3332 7.90888 11.5588 8.44494 11.724 8.96529L9.37502 10.8449V8.80093H9.37499ZM9.37499 11.8055L11.9262 9.76435C11.9709 10.0111 12 10.2515 12 10.4781C12 12.015 10.8508 13.2734 9.37499 13.4618V11.8055Z" fill="black"/>
<path d="M17.3943 10.3953C17.6785 9.99425 18 9.53979 18 9C18 8.46021 17.6785 8.00575 17.3943 7.60472C17.2079 7.3414 17.0317 7.09274 16.9706 6.86422C16.9054 6.61922 16.9336 6.30577 16.9633 5.97361C17.0087 5.46971 17.0552 4.94821 16.7952 4.49888C16.5315 4.04258 16.0309 3.81185 15.5893 3.60861C15.2901 3.47055 15.0077 3.34055 14.8338 3.16659C14.6598 2.99264 14.5298 2.70991 14.3917 2.41109C14.1881 1.96942 13.9574 1.46883 13.5015 1.20516C13.0514 0.944789 12.5303 0.992004 12.0264 1.03669C11.6942 1.06597 11.3811 1.09417 11.1361 1.02938C10.9073 0.968203 10.6586 0.79207 10.3953 0.605672C9.99425 0.321539 9.53979 0 9 0C8.46021 0 8.00575 0.321539 7.60472 0.605707C7.3414 0.792105 7.09274 0.968273 6.86422 1.02941C6.61848 1.09424 6.30503 1.06604 5.97361 1.03672C5.47007 0.991688 4.94895 0.944438 4.49888 1.2048C4.04258 1.46848 3.81185 1.9691 3.60861 2.41073C3.47055 2.70991 3.34055 2.99229 3.16659 3.16624C2.99264 3.3402 2.70991 3.4702 2.41109 3.60826C1.96942 3.81189 1.46883 4.04258 1.20516 4.49852C0.945141 4.94786 0.991652 5.46936 1.03669 5.97361C1.06671 6.30541 1.09455 6.61925 1.02938 6.86387C0.968203 7.09274 0.79207 7.3414 0.605672 7.60472C0.321539 8.00575 0 8.46021 0 9C0 9.53979 0.321539 9.99425 0.605707 10.3953C0.792105 10.6586 0.968273 10.9073 1.02941 11.1358C1.09459 11.3808 1.06639 11.6942 1.03672 12.0264C0.991301 12.5303 0.944789 13.0518 1.2048 13.5011C1.46848 13.9574 1.9691 14.1881 2.41073 14.3914C2.70991 14.5294 2.99229 14.6595 3.16624 14.8334C3.3402 15.0074 3.4702 15.2901 3.60826 15.5889C3.81189 16.0306 4.04258 16.5312 4.49852 16.7948C4.94824 17.0549 5.46936 17.008 5.97361 16.9633C6.30503 16.9329 6.61852 16.9047 6.86387 16.9706C7.09274 17.0318 7.3414 17.2079 7.60472 17.3943C8.00575 17.6785 8.46021 18 9 18C9.53979 18 9.99425 17.6785 10.3953 17.3943C10.6586 17.2079 10.9073 17.0317 11.1358 16.9706C11.38 16.9047 11.6942 16.9329 12.0264 16.9633C12.5299 17.0087 13.0511 17.0559 13.5011 16.7952C13.9574 16.5315 14.1881 16.0309 14.3914 15.5893C14.5294 15.2901 14.6595 15.0077 14.8334 14.8338C15.0074 14.6598 15.2901 14.5298 15.5889 14.3917C16.0306 14.1881 16.5312 13.9574 16.7948 13.5015C17.0549 13.0521 17.0083 12.5306 16.9633 12.0264C16.9333 11.6946 16.9054 11.3807 16.9706 11.1361C17.0317 10.9072 17.2079 10.6586 17.3943 10.3953ZM16.7824 9.96166C16.5659 10.2675 16.3422 10.5839 16.2462 10.9424C16.1466 11.3156 16.1818 11.7111 16.2162 12.0934C16.2525 12.4992 16.2869 12.8822 16.1459 13.1258C16.0009 13.3759 15.6482 13.5385 15.275 13.7106C14.9293 13.8699 14.5719 14.0347 14.3031 14.3035C14.0343 14.5723 13.8695 14.9297 13.7102 15.2754C13.5385 15.6486 13.3759 16.0013 13.1254 16.1463C12.8815 16.2873 12.498 16.2525 12.0934 16.2162C11.7103 16.1814 11.3156 16.1459 10.942 16.2463C10.5839 16.3422 10.2675 16.566 9.9617 16.7824C9.62223 17.023 9.30104 17.25 9.00004 17.25C8.69903 17.25 8.37784 17.023 8.03837 16.7824C7.73258 16.566 7.41618 16.3422 7.05765 16.2463C6.87491 16.1972 6.68668 16.1811 6.49733 16.1811C6.29993 16.1811 6.10182 16.1987 5.90664 16.2162C5.50051 16.2529 5.11819 16.2869 4.87427 16.1459C4.62414 16.0009 4.46154 15.6483 4.28945 15.2751C4.13016 14.9294 3.96534 14.5719 3.69654 14.3031C3.42773 14.0343 3.0703 13.8695 2.72461 13.7102C2.35143 13.5385 1.99877 13.3759 1.85375 13.1254C1.71278 12.8818 1.7472 12.4988 1.78379 12.0934C1.81821 11.7111 1.85337 11.3156 1.75377 10.942C1.65783 10.5839 1.43406 10.2675 1.21764 9.9617C0.977027 9.62223 0.749988 9.30104 0.749988 9.00004C0.749988 8.69903 0.977027 8.37784 1.21764 8.03837C1.43406 7.73258 1.65783 7.41618 1.75377 7.05765C1.85337 6.68447 1.81821 6.28896 1.78379 5.90664C1.74755 5.50086 1.71313 5.1178 1.85411 4.87427C1.99913 4.62414 2.35178 4.46154 2.72496 4.28945C3.07065 4.13016 3.42809 3.96534 3.69689 3.69654C3.9657 3.42773 4.13047 3.0703 4.2898 2.72461C4.46154 2.35143 4.62414 1.99877 4.87463 1.85375C5.11741 1.71239 5.50048 1.74646 5.9066 1.78379C6.28857 1.81821 6.6837 1.85375 7.05797 1.75377C7.41614 1.65783 7.73255 1.43406 8.0383 1.21764C8.37777 0.977027 8.69896 0.749988 8.99996 0.749988C9.30097 0.749988 9.62216 0.977027 9.96163 1.21764C10.2674 1.43406 10.5838 1.65783 10.9423 1.75377C11.3151 1.85375 11.7103 1.81821 12.0934 1.78379C12.5002 1.74829 12.8826 1.71348 13.1257 1.85411C13.3759 1.99913 13.5385 2.35178 13.7106 2.72496C13.8698 3.07065 14.0347 3.42809 14.3035 3.69689C14.5723 3.9657 14.9297 4.13047 15.2754 4.2898C15.6486 4.46154 16.0012 4.62414 16.1462 4.87463C16.2872 5.11815 16.2528 5.50121 16.2162 5.9066C16.1818 6.28893 16.1466 6.68443 16.2462 7.05797C16.3422 7.41614 16.5659 7.73255 16.7824 8.0383C17.023 8.37777 17.25 8.69896 17.25 8.99996C17.25 9.30097 17.0229 9.6222 16.7824 9.96166Z" fill="black"/>
</g>
<defs>
<clipPath id="clip0_768_4522">
<rect width="18" height="18" fill="white"/>
</clipPath>
</defs>
</svg>
