<svg width="20" height="20" viewBox="0 0 20 20" fill="none" xmlns="http://www.w3.org/2000/svg">
<g clip-path="url(#clip0_0_89)">
<rect width="20" height="20" fill="white"/>
<path fill-rule="evenodd" clip-rule="evenodd" d="M9.85706 16.8146V17.8114C9.85706 18.6107 9.4587 19.3007 8.76647 19.7003C8.43343 19.8926 8.06171 19.9998 7.67632 20C7.29058 20.0002 6.91897 19.8928 6.58569 19.7003L2.15382 17.1416C1.46151 16.7419 1.06323 16.052 1.06323 15.2526V2.18117C1.06323 0.978398 2.04167 0 3.2444 0H13.005C14.2078 0 15.1863 0.97832 15.1863 2.18117V4.9366C15.1863 5.33187 14.8654 5.65281 14.4701 5.65281C14.0747 5.65281 13.7541 5.33191 13.7541 4.9366V2.18117C13.7541 1.76816 13.418 1.43211 13.005 1.43211H4.45218L8.76647 3.9234C9.45847 4.32301 9.85706 5.01285 9.85706 5.81195V15.3824H13.005C13.418 15.3824 13.7541 15.0465 13.7541 14.6335V12.218C13.7541 11.8225 14.0745 11.5018 14.4701 11.5018C14.8655 11.5018 15.1863 11.8225 15.1863 12.218V14.6335C15.1863 15.8363 14.2078 16.8146 13.005 16.8146H9.85706ZM16.4931 9.12336L15.7044 9.91207C15.4248 10.1917 15.4248 10.6451 15.7044 10.9248C15.839 11.0595 16.0204 11.1343 16.2108 11.1343C16.4013 11.1343 16.5825 11.0596 16.7173 10.9248L18.7282 8.91352C19.0078 8.63391 19.0078 8.18078 18.7282 7.90117L16.7173 5.89023C16.4376 5.61055 15.9842 5.61066 15.7044 5.8902C15.4249 6.16957 15.425 6.62312 15.7044 6.90258L16.4931 7.69109H11.2095C10.8139 7.69109 10.4935 8.01172 10.4935 8.40734C10.4935 8.80297 10.8139 9.1234 11.2095 9.1234H16.4931V9.12336Z" fill="black"/>
</g>
<defs>
<clipPath id="clip0_0_89">
<rect width="20" height="20" fill="white"/>
</clipPath>
</defs>
</svg>
