<svg width="25" height="25" viewBox="0 0 25 25" fill="none" xmlns="http://www.w3.org/2000/svg">
<path fill-rule="evenodd" clip-rule="evenodd" d="M12.4995 4.37661C14.878 4.37661 16.8062 6.30478 16.8062 8.68325C16.8062 11.0618 14.878 12.9899 12.4995 12.9899C10.1209 12.9899 8.19287 11.0618 8.19287 8.68325C8.19287 6.30483 10.1209 4.37661 12.4995 4.37661ZM12.8901 16.5912V24.6731L20.8623 21.5734V16.5193L14.6287 18.9431C14.4474 19.0132 14.2457 18.9383 14.1514 18.7751L12.8901 16.5912ZM12.1088 24.6731V16.5912L10.8479 18.7752C10.7473 18.9488 10.5334 19.0158 10.3541 18.9367L4.13677 16.5193V21.5733L12.1088 24.6731ZM21.0822 12.2157L13.0639 15.3334L14.6588 18.0958L22.6772 14.9781L21.0822 12.2157ZM11.935 15.3334L3.91665 12.2157L2.32178 14.9781L10.3402 18.0958L11.935 15.3334ZM12.4995 13.7711C10.3606 13.7711 8.53008 12.4514 7.77764 10.5818L4.82046 11.7316L12.4995 14.7175L20.1785 11.7316L17.2213 10.5818C16.4689 12.4514 14.6383 13.7711 12.4995 13.7711ZM20.3623 8.39545C20.5781 8.39545 20.7529 8.57036 20.7529 8.78608C20.7529 9.0018 20.5781 9.1767 20.3623 9.1767H18.5329C18.3171 9.1767 18.1422 9.0018 18.1422 8.78608C18.1422 8.57036 18.3171 8.39545 18.5329 8.39545H20.3623ZM12.1088 0.717621C12.1088 0.501898 12.2837 0.326996 12.4995 0.326996C12.7152 0.326996 12.8901 0.501898 12.8901 0.717621V2.54716C12.8901 2.76288 12.7152 2.93779 12.4995 2.93779C12.2837 2.93779 12.1088 2.76288 12.1088 2.54716V0.717621ZM8.16563 1.92714C8.05864 1.74096 8.12285 1.50317 8.30908 1.39614C8.49531 1.28915 8.73311 1.35336 8.84009 1.53959L9.75483 3.12402C9.86187 3.31025 9.79766 3.54804 9.61138 3.65502C9.4252 3.76201 9.18735 3.69785 9.08037 3.51157L8.16563 1.92714ZM5.3543 4.94863C5.16807 4.84077 5.10454 4.60229 5.2124 4.41611C5.32022 4.22993 5.55869 4.1663 5.74492 4.27421L7.3293 5.18896C7.51548 5.29682 7.57905 5.5353 7.47119 5.72148C7.36338 5.90766 7.12485 5.97123 6.93867 5.86337L5.3543 4.94863ZM4.43101 8.97109C4.21528 8.97109 4.04038 8.79619 4.04038 8.58046C4.04038 8.36474 4.21528 8.18984 4.43101 8.18984H6.2605C6.47627 8.18984 6.65112 8.36474 6.65112 8.58046C6.65112 8.79619 6.47627 8.97109 6.2605 8.97109H4.43101ZM16.1313 1.64238C16.2383 1.45619 16.4761 1.39194 16.6624 1.49892C16.8485 1.6059 16.9128 1.84374 16.8058 2.02993L15.8911 3.61435C15.784 3.80058 15.5462 3.86479 15.3601 3.75781C15.1738 3.65082 15.1096 3.41303 15.2166 3.2268L16.1313 1.64238ZM19.1513 4.45224C19.3375 4.34433 19.5759 4.40795 19.6838 4.59413C19.7917 4.78032 19.728 5.01879 19.5419 5.12665L17.9575 6.0414C17.7713 6.14926 17.5328 6.08569 17.425 5.89951C17.3171 5.71332 17.3807 5.47485 17.5668 5.36699L19.1513 4.45224ZM14.1301 6.71928L11.579 9.27045L10.7084 8.17485C10.4942 7.90541 10.1022 7.86069 9.83286 8.0748C9.56343 8.28901 9.51865 8.68095 9.73286 8.95038L11.014 10.5626C11.2355 10.88 11.6917 10.9234 11.9678 10.6473L15.0129 7.60219C15.2566 7.35839 15.2566 6.96313 15.0129 6.71928C14.7692 6.47553 14.3739 6.47553 14.1301 6.71928Z" fill="black"/>
</svg>
