<svg width="28" height="20" viewBox="0 0 28 20" fill="none" xmlns="http://www.w3.org/2000/svg">
<path d="M25.625 0H1.875C1.37818 0.00148381 0.902124 0.199504 0.550814 0.550814C0.199504 0.902123 0.00148381 1.37818 0 1.875V3.75H27.5V1.875C27.4985 1.37818 27.3005 0.902123 26.9492 0.550814C26.5979 0.199504 26.1218 0.00148381 25.625 0Z" fill="black"/>
<path d="M0 18.125C0.00148381 18.6218 0.199504 19.0979 0.550814 19.4492C0.902124 19.8005 1.37818 19.9985 1.875 20H25.625C26.1218 19.9985 26.5979 19.8005 26.9492 19.4492C27.3005 19.0979 27.4985 18.6218 27.5 18.125V7.5H0V18.125ZM21.25 16.25H24.375C24.5408 16.25 24.6997 16.3158 24.8169 16.4331C24.9342 16.5503 25 16.7092 25 16.875C25 17.0408 24.9342 17.1997 24.8169 17.3169C24.6997 17.4342 24.5408 17.5 24.375 17.5H21.25C21.0842 17.5 20.9253 17.4342 20.8081 17.3169C20.6908 17.1997 20.625 17.0408 20.625 16.875C20.625 16.7092 20.6908 16.5503 20.8081 16.4331C20.9253 16.3158 21.0842 16.25 21.25 16.25Z" fill="black"/>
</svg>
