<svg width="34" height="34" viewBox="0 0 34 34" fill="none" xmlns="http://www.w3.org/2000/svg">
<path d="M9.20761 4.25C13.7327 4.25 16.9993 7.98582 16.9992 13.5173C16.9702 21.5543 10.9284 27.2366 2.21227 28.3278C1.40362 28.4291 1.09182 27.3089 1.83648 26.9778C5.18093 25.4906 6.87005 23.6035 7.08823 21.7357C7.25123 20.3402 6.49261 19.1177 5.54004 18.8888C3.07053 18.2954 1.41594 15.2201 1.41594 12.0417C1.41594 7.73845 4.90439 4.25 9.20761 4.25Z" fill="#DB5353"/>
<path d="M26.2076 4.25C30.7327 4.25 33.9993 7.98582 33.9992 13.5173C33.9702 21.5543 27.9284 27.2366 19.2123 28.3278C18.4036 28.4291 18.0918 27.3089 18.8365 26.9778C22.1809 25.4906 23.8701 23.6035 24.0882 21.7357C24.2512 20.3402 23.4926 19.1177 22.54 18.8888C20.0705 18.2954 18.4159 15.2201 18.4159 12.0417C18.4159 7.73845 21.9044 4.25 26.2076 4.25Z" fill="#DB5353"/>
</svg>
