<svg width="38" height="24" viewBox="0 0 38 24" fill="none" xmlns="http://www.w3.org/2000/svg">
<g clip-path="url(#clip0_480_2378)">
<path opacity="0.07" d="M35 0H3C1.3 0 0 1.3 0 3V21C0 22.7 1.4 24 3 24H35C36.7 24 38 22.7 38 21V3C38 1.3 36.6 0 35 0Z" fill="black"/>
<path d="M35 1C36.1 1 37 1.9 37 3V21C37 22.1 36.1 23 35 23H3C1.9 23 1 22.1 1 21V3C1 1.9 1.9 1 3 1H35Z" fill="white"/>
<path d="M26.1422 7.7837C25.8355 6.81767 25.244 6.02345 24.3874 5.42512C24.2871 5.34415 23.2161 4.49438 21.202 4.50003C19.3592 4.5053 17.3409 5.21749 15.2023 6.62134L15.1351 6.66608L15.1247 6.67173L14.9335 6.79176L14.7688 6.90335C14.332 7.19945 13.9141 7.52006 13.5256 7.86185C12.6231 8.7356 11.5948 10.1941 11.6634 11.4298C11.6918 11.9557 11.9128 12.3827 12.3203 12.6986C12.687 12.9843 13.1456 13.1274 13.6794 13.1256C14.7783 13.1218 15.9794 12.5253 16.8004 12.0207L16.9556 11.9143C17.099 11.8211 17.242 11.7255 17.3844 11.6285L17.5259 11.5348C18.6924 10.7519 19.9006 9.94218 21.2612 9.46719C21.6142 9.3443 21.9228 9.28498 22.2077 9.28404C22.3482 9.28404 22.485 9.29759 22.6165 9.32923C23.0306 9.42293 23.3354 9.65595 23.5171 10.0241C23.8351 10.6648 23.7627 11.6751 23.3354 12.6011C22.7519 13.8633 21.7486 15.1075 20.3511 16.3019C19.6418 16.9082 18.9825 17.3781 18.3967 17.6977L18.3441 17.7256C18.072 17.8762 17.7639 18.0443 17.4398 18.1686L17.3953 18.1851C17.2983 18.2213 17.2164 18.2543 17.1421 18.2788C16.259 18.517 16.2737 18.107 16.4091 17.7817C16.4819 17.6037 16.729 17.2963 17.029 16.9837C17.1927 16.8185 17.3603 16.6622 17.5335 16.5002C17.7195 16.3279 17.9102 16.1504 18.1018 15.9555L18.1444 15.9146C18.382 15.6754 18.7085 15.3487 18.6882 14.8808C18.6593 14.2612 18.0247 13.8766 17.4303 13.8615H17.3872C16.8146 13.8615 16.2751 14.1977 15.9221 14.4792C15.5695 14.7621 15.1919 15.1868 14.942 15.5855C14.5809 16.1613 13.8171 17.6282 14.5663 18.7976C14.8672 19.2655 15.366 19.5019 16.0508 19.5C16.5297 19.5 17.0948 19.3814 17.7322 19.1497C18.6858 18.8032 19.4397 18.3268 20.1689 17.8655L20.3653 17.7407C21.1377 17.2544 21.8882 16.6885 22.6643 16.0111C24.377 14.5112 25.4039 13.0447 25.9893 11.2516C26.2259 10.5251 26.5615 9.1094 26.1422 7.7837Z" fill="#F21016"/>
</g>
<defs>
<clipPath id="clip0_480_2378">
<rect width="38" height="24" fill="white"/>
</clipPath>
</defs>
</svg>
