<svg width="38" height="24" viewBox="0 0 38 24" fill="none" xmlns="http://www.w3.org/2000/svg">
<g clip-path="url(#clip0_480_2344)">
<path opacity="0.07" d="M35 0H3C1.3 0 0 1.3 0 3V21C0 22.7 1.4 24 3 24H35C36.7 24 38 22.7 38 21V3C38 1.3 36.6 0 35 0Z" fill="black"/>
<path d="M35 1C36.1 1 37 1.9 37 3V21C37 22.1 36.1 23 35 23H3C1.9 23 1 22.1 1 21V3C1 1.9 1.9 1 3 1H35Z" fill="white"/>
<path d="M24.413 17.323C18.3463 20.0498 14.5813 17.7684 12.1711 16.3826C12.022 16.2953 11.7685 16.4031 11.9884 16.6416C12.7914 17.5611 15.4228 19.7774 18.8575 19.7774C22.2946 19.7774 24.3394 18.0061 24.5952 17.6971C24.8492 17.3908 24.6697 17.2218 24.413 17.323H24.413ZM26.1169 16.4343C25.9539 16.2339 25.1262 16.1966 24.6053 16.257C24.0836 16.3157 23.3005 16.6169 23.3685 16.7977C23.4035 16.8654 23.4748 16.835 23.8332 16.8046C24.1926 16.7707 25.1994 16.6507 25.4092 16.9097C25.6199 17.1705 25.0881 18.4129 24.9909 18.6133C24.8971 18.8136 25.0268 18.8653 25.2031 18.7318C25.3769 18.5984 25.6917 18.253 25.9029 17.7641C26.1127 17.2726 26.2407 16.5869 26.1169 16.4343Z" fill="#FF9900"/>
<path fill-rule="evenodd" clip-rule="evenodd" d="M20.3352 11.7589C20.3352 12.4743 20.3544 13.071 19.9715 13.7064C19.6624 14.2231 19.1728 14.5408 18.6259 14.5408C17.8792 14.5408 17.4443 14.0035 17.4443 13.2105C17.4443 11.6452 18.9294 11.3611 20.3352 11.3611V11.7589ZM22.2962 16.2352C22.1676 16.3437 21.9816 16.3515 21.8367 16.2791C21.1913 15.7729 21.0764 15.5378 20.7208 15.0548C19.6542 16.0828 18.8994 16.3902 17.5155 16.3902C15.88 16.3902 14.6055 15.4371 14.6055 13.5282C14.6055 12.0378 15.4616 11.0227 16.6785 10.5268C17.7343 10.0876 19.2084 10.0102 20.3352 9.88879V9.65113C20.3352 9.21458 20.3707 8.69799 20.1 8.3209C19.862 7.98251 19.4081 7.84302 19.0087 7.84302C18.2676 7.84302 17.6057 8.20204 17.4443 8.94594C17.4115 9.1113 17.283 9.27404 17.108 9.28177L15.2208 9.09066C15.0622 9.05701 14.8872 8.93565 14.931 8.70573C15.3658 6.54638 17.4306 5.89542 19.2794 5.89542C20.2257 5.89542 21.4619 6.13308 22.2086 6.80984C23.1549 7.64413 23.0646 8.75739 23.0646 9.96883V12.8308C23.0646 13.691 23.4421 14.068 23.7976 14.533C23.9234 14.6983 23.9508 14.8973 23.7921 15.0212C23.3955 15.3337 22.6899 15.9149 22.3016 16.2404L22.2961 16.2352" fill="black"/>
<path d="M24.413 17.323C18.3463 20.0498 14.5813 17.7684 12.1711 16.3826C12.022 16.2953 11.7685 16.4031 11.9884 16.6416C12.7914 17.5611 15.4228 19.7774 18.8575 19.7774C22.2946 19.7774 24.3394 18.0061 24.5952 17.6971C24.8492 17.3908 24.6697 17.2218 24.413 17.323H24.413ZM26.1169 16.4343C25.9539 16.2339 25.1262 16.1966 24.6053 16.257C24.0836 16.3157 23.3005 16.6169 23.3685 16.7977C23.4035 16.8654 23.4748 16.835 23.8332 16.8046C24.1926 16.7707 25.1994 16.6507 25.4092 16.9097C25.6199 17.1705 25.0881 18.4129 24.9909 18.6133C24.8971 18.8136 25.0268 18.8653 25.2031 18.7318C25.3769 18.5984 25.6917 18.253 25.9029 17.7641C26.1127 17.2726 26.2407 16.5869 26.1169 16.4343Z" fill="#FF9900"/>
<path fill-rule="evenodd" clip-rule="evenodd" d="M20.3352 11.7589C20.3352 12.4743 20.3544 13.071 19.9715 13.7064C19.6624 14.2231 19.1728 14.5408 18.6259 14.5408C17.8792 14.5408 17.4443 14.0035 17.4443 13.2105C17.4443 11.6452 18.9294 11.3611 20.3352 11.3611V11.7589ZM22.2962 16.2352C22.1676 16.3437 21.9816 16.3515 21.8367 16.2791C21.1913 15.7729 21.0764 15.5378 20.7208 15.0548C19.6542 16.0828 18.8994 16.3902 17.5155 16.3902C15.88 16.3902 14.6055 15.4371 14.6055 13.5282C14.6055 12.0378 15.4616 11.0227 16.6785 10.5268C17.7343 10.0876 19.2084 10.0102 20.3352 9.88879V9.65113C20.3352 9.21458 20.3707 8.69799 20.1 8.3209C19.862 7.98251 19.4081 7.84302 19.0087 7.84302C18.2676 7.84302 17.6057 8.20204 17.4443 8.94594C17.4115 9.1113 17.283 9.27404 17.108 9.28177L15.2208 9.09066C15.0622 9.05701 14.8872 8.93565 14.931 8.70573C15.3658 6.54638 17.4306 5.89542 19.2794 5.89542C20.2257 5.89542 21.4619 6.13308 22.2086 6.80984C23.1549 7.64413 23.0646 8.75739 23.0646 9.96883V12.8308C23.0646 13.691 23.4421 14.068 23.7976 14.533C23.9234 14.6983 23.9508 14.8973 23.7921 15.0212C23.3955 15.3337 22.6899 15.9149 22.3016 16.2404L22.2961 16.2352" fill="black"/>
</g>
<defs>
<clipPath id="clip0_480_2344">
<rect width="38" height="24" fill="white"/>
</clipPath>
</defs>
</svg>
