<svg width="38" height="24" viewBox="0 0 38 24" fill="none" xmlns="http://www.w3.org/2000/svg">
<g clip-path="url(#clip0_480_2371)">
<path opacity="0.07" d="M35 0H3C1.3 0 0 1.3 0 3V21C0 22.7 1.4 24 3 24H35C36.7 24 38 22.7 38 21V3C38 1.3 36.6 0 35 0Z" fill="black"/>
<path d="M35 1C36.1 1 37 1.9 37 3V21C37 22.1 36.1 23 35 23H3C1.9 23 1 22.1 1 21V3C1 1.9 1.9 1 3 1H35Z" fill="white"/>
<path d="M22.0371 17.5048H15.9453V6.49513H22.0371V17.5048Z" fill="#7375CF"/>
<path d="M16.341 12C16.341 9.76861 17.377 7.77508 18.9984 6.49515C17.8161 5.55502 16.3185 5 14.6971 5C10.8573 5 7.73828 8.13754 7.73828 12C7.73828 15.8625 10.8573 19 14.6971 19C16.3185 19 17.8161 18.445 18.9984 17.5049C17.377 16.2249 16.341 14.2314 16.341 12Z" fill="#EB001B"/>
<path d="M30.2602 12C30.2602 15.8625 27.1411 19 23.3014 19C21.6799 19 20.1823 18.445 19 17.5049C20.6215 16.2249 21.6574 14.2314 21.6574 12C21.6574 9.76861 20.6215 7.77508 19 6.49515C20.1823 5.55502 21.6799 5 23.3014 5C27.1411 5 30.2602 8.13754 30.2602 12Z" fill="#00A2E5"/>
</g>
<defs>
<clipPath id="clip0_480_2371">
<rect width="38" height="24" fill="white"/>
</clipPath>
</defs>
</svg>
