<svg width="38" height="24" viewBox="0 0 38 24" fill="none" xmlns="http://www.w3.org/2000/svg">
<g clip-path="url(#clip0_480_2382)">
<path opacity="0.07" d="M35 0H3C1.3 0 0 1.3 0 3V21C0 22.7 1.4 24 3 24H35C36.7 24 38 22.7 38 21V3C38 1.3 36.6 0 35 0Z" fill="black"/>
<path d="M35 1C36.1 1 37 1.9 37 3V21C37 22.1 36.1 23 35 23H3C1.9 23 1 22.1 1 21V3C1 1.9 1.9 1 3 1H35Z" fill="white"/>
<g clip-path="url(#clip1_480_2382)">
<path d="M31.6529 10.363C31.4217 9.70186 30.7915 9.22713 30.0514 9.22713H30.0359C29.5548 9.22713 29.1212 9.42738 28.8125 9.74885C28.5033 9.42738 28.0697 9.22713 27.5891 9.22713H27.5736C27.1507 9.22713 26.7641 9.38199 26.4672 9.63831V9.50801C26.457 9.37825 26.3502 9.27626 26.2183 9.27626H25.083C24.9442 9.27626 24.832 9.3884 24.832 9.52777V15.6929C24.832 15.8322 24.9442 15.9444 25.083 15.9444H26.2183C26.3449 15.9444 26.449 15.8499 26.4656 15.7276L26.465 11.3017C26.465 11.2863 26.4656 11.2718 26.4672 11.2574C26.4853 11.0598 26.63 10.8975 26.8586 10.8772H26.9008H27.0199H27.0679C27.1635 10.8858 27.2441 10.9194 27.3077 10.9701C27.4065 11.0486 27.4615 11.1693 27.4615 11.3017L27.4657 15.7057C27.4657 15.8451 27.5784 15.9577 27.7167 15.9577H28.852C28.9861 15.9577 29.095 15.8509 29.1014 15.718L29.1009 11.2959C29.1003 11.1506 29.1676 11.0193 29.2856 10.9413C29.3438 10.9039 29.4138 10.8788 29.4944 10.8713H29.5366H29.6557H29.7038C29.9494 10.8927 30.0979 11.0791 30.0973 11.2959L30.1016 15.6939C30.1016 15.8333 30.2143 15.9455 30.3526 15.9455H31.4879C31.6262 15.9455 31.7389 15.8333 31.7389 15.6939V10.9637C31.7389 10.6412 31.7026 10.5039 31.6529 10.363Z" fill="#54C1F0"/>
<path d="M23.968 9.29234H23.3187V8.24034C23.3187 8.23927 23.3187 8.23821 23.3187 8.23714C23.3187 8.11058 23.2161 8.00805 23.0896 8.00805C23.0746 8.00805 23.0602 8.01019 23.0463 8.01286C22.3265 8.21044 22.4707 9.20743 21.1565 9.29234H21.1271H21.0289C21.0096 9.29234 20.9915 9.29501 20.9739 9.29874C20.8617 9.32384 20.7773 9.4237 20.7773 9.54332V10.6786C20.7773 10.8169 20.89 10.9296 21.0289 10.9296H21.714L21.7129 15.7437C21.7129 15.8809 21.824 15.992 21.9612 15.992H23.0837C23.2204 15.992 23.3315 15.8809 23.3315 15.7437L23.332 10.9296H23.968C24.1063 10.9296 24.219 10.8169 24.219 10.6786V9.54332C24.219 9.40501 24.1063 9.29234 23.968 9.29234Z" fill="#54C1F0"/>
<path d="M19.8826 9.29234H18.7473C18.609 9.29234 18.4969 9.40501 18.4969 9.54332V11.8908C18.4942 12.0361 18.3767 12.1525 18.2309 12.1525H17.7557C17.6083 12.1525 17.4892 12.0339 17.4892 11.8865L17.4849 9.54332C17.4849 9.40501 17.3722 9.29234 17.2339 9.29234H16.0986C15.9598 9.29234 15.8477 9.40501 15.8477 9.54332V12.1162C15.8477 13.0934 16.5445 13.7903 17.5223 13.7903C17.5223 13.7903 18.256 13.7903 18.2785 13.7945C18.4109 13.8095 18.5139 13.9206 18.5139 14.0573C18.5139 14.1924 18.413 14.3029 18.2822 14.3195C18.2758 14.3205 18.2699 14.3221 18.263 14.3232L16.6027 14.3291C16.4639 14.3291 16.3518 14.4418 16.3518 14.5801V15.7148C16.3518 15.8537 16.4639 15.9658 16.6027 15.9658H18.4589C19.4372 15.9658 20.1336 15.2695 20.1336 14.2917V9.54332C20.1336 9.40501 20.0214 9.29234 19.8826 9.29234Z" fill="#233266"/>
<path d="M8.89347 11.3725V11.9023V12.0732C8.89347 12.22 8.77439 12.3396 8.62753 12.3396L7.90716 12.3402V10.9363H8.62753C8.77439 10.9363 8.89347 11.0548 8.89347 11.2022V11.3725ZM8.99333 9.29206H6.5118C6.37563 9.29206 6.26562 9.4026 6.26562 9.53824V10.6506C6.26562 10.6527 6.26616 10.6548 6.26616 10.657C6.26616 10.6623 6.26562 10.6677 6.26562 10.6725V14.2402V15.7071C6.26562 15.8438 6.36815 15.9554 6.49525 15.9586H6.51661H7.6519C7.79021 15.9586 7.90289 15.8465 7.90289 15.7076L7.90716 13.9822H8.99333C9.90221 13.9822 10.5355 13.3516 10.5355 12.439V10.8375C10.5355 9.92486 9.90221 9.29206 8.99333 9.29206Z" fill="#233266"/>
<path d="M13.6026 14.0379V14.2152C13.6026 14.2296 13.6004 14.2435 13.5983 14.2568C13.5956 14.2696 13.5919 14.2819 13.5876 14.2937C13.5524 14.393 13.453 14.4651 13.335 14.4651H12.8624C12.715 14.4651 12.5949 14.3529 12.5949 14.2152V14.001C12.5949 13.9984 12.5944 13.9957 12.5944 13.993L12.5949 13.4232V13.4222V13.3592V13.2449L12.5954 13.2433C12.596 13.106 12.715 12.995 12.8624 12.995H13.335C13.4829 12.995 13.6026 13.1066 13.6026 13.2449V14.0379ZM13.4221 9.29857H11.8467C11.7074 9.29857 11.5947 9.4043 11.5947 9.53406V9.97569C11.5947 9.97836 11.5952 9.98156 11.5952 9.98423C11.5952 9.98744 11.5947 9.99064 11.5947 9.99384V10.5989C11.5947 10.7361 11.7143 10.8483 11.8617 10.8483H13.3617C13.4803 10.8669 13.5743 10.9535 13.5876 11.0886V11.2349C13.5743 11.3636 13.4813 11.4576 13.3681 11.4682H12.6253C11.6374 11.4682 10.9336 12.1245 10.9336 13.0462V14.3326V14.3663C10.9336 15.2826 11.5386 15.9347 12.5196 15.9347H14.5782C14.9477 15.9347 15.2473 15.6548 15.2473 15.3104V11.0026C15.2473 9.95807 14.709 9.29857 13.4221 9.29857Z" fill="#233266"/>
</g>
</g>
<defs>
<clipPath id="clip0_480_2382">
<rect width="38" height="24" fill="white"/>
</clipPath>
<clipPath id="clip1_480_2382">
<rect width="25.488" height="8" fill="white" transform="translate(6.25781 8)"/>
</clipPath>
</defs>
</svg>
