<svg width="38" height="24" viewBox="0 0 38 24" fill="none" xmlns="http://www.w3.org/2000/svg">
<g clip-path="url(#clip0_480_2352)">
<path opacity="0.07" d="M35 0H3C1.3 0 0 1.3 0 3V21C0 22.7 1.4 24 3 24H35C36.7 24 38 22.7 38 21V3C38 1.3 36.6 0 35 0Z" fill="black"/>
<path d="M35 1C36.1 1 37 1.9 37 3V21C37 22.1 36.1 23 35 23H3C1.9 23 1 22.1 1 21V3C1 1.9 1.9 1 3 1H35Z" fill="white"/>
<g clip-path="url(#clip1_480_2352)">
<path d="M32.4793 8.59377L34.1937 11.9991L30.5898 15.4061L32.4793 8.59377Z" fill="#008C44"/>
<path d="M31.292 8.59377L33.0038 11.9991L29.4023 15.4061L31.292 8.59377Z" fill="#F47920"/>
<path d="M3.80859 14.167L5.51783 8.00665H8.25046C9.10449 8.00665 9.67498 8.1419 9.96522 8.42062C10.2534 8.69709 10.3089 9.14838 10.1352 9.78269C10.0301 10.1563 9.87046 10.47 9.6511 10.7178C9.43353 10.9661 9.14657 11.1624 8.7932 11.3067C9.093 11.3788 9.28371 11.522 9.36921 11.7367C9.45427 11.9513 9.44442 12.2644 9.34116 12.6748L9.13329 13.5353L9.13269 13.5585C9.0727 13.7995 9.09046 13.9285 9.1882 13.9389L9.12523 14.167H7.27661C7.28288 14.0221 7.29437 13.8925 7.30661 13.7837C7.32004 13.6723 7.3366 13.586 7.35302 13.5267L7.52537 12.9115C7.61222 12.5916 7.61759 12.3684 7.53701 12.2399C7.45568 12.1079 7.27363 12.043 6.98622 12.043H6.20935L5.61692 14.167H3.80859ZM6.59375 10.6548H7.42584C7.71743 10.6548 7.93261 10.6132 8.06527 10.527C8.19853 10.4401 8.29747 10.2934 8.35552 10.0811C8.41566 9.86524 8.40088 9.71476 8.31463 9.62922C8.22853 9.54234 8.02245 9.50009 7.69848 9.50009H6.91414L6.59375 10.6548Z" fill="#1B3281"/>
<path d="M15.2073 9.62113L13.9472 14.167H12.416L12.6042 13.501C12.3347 13.7659 12.0589 13.9669 11.7809 14.0955C11.5051 14.2263 11.2141 14.2906 10.9078 14.2906C10.6545 14.2906 10.4371 14.2446 10.2621 14.1534C10.0849 14.0625 9.95303 13.9243 9.86424 13.742C9.78545 13.5824 9.75113 13.3853 9.76456 13.1499C9.77874 12.9182 9.86051 12.5274 10.0121 11.9801L10.6651 9.62113H12.3401L11.6884 11.9691C11.5932 12.3127 11.5705 12.5543 11.6169 12.6858C11.6653 12.8185 11.7943 12.887 12.0039 12.887C12.2149 12.887 12.3923 12.8106 12.5388 12.6546C12.6875 12.4999 12.8022 12.2693 12.8885 11.9624L13.5348 9.62113H15.2073Z" fill="#1B3281"/>
<path d="M14.6016 14.167L16.309 8.00665H18.6578C19.1761 8.00665 19.5772 8.03725 19.8633 8.10443C20.1488 8.16877 20.3726 8.27327 20.539 8.42062C20.7474 8.61334 20.8752 8.8519 20.9277 9.13808C20.9771 9.42426 20.9479 9.75761 20.8397 10.149C20.6484 10.8377 20.313 11.3654 19.8352 11.7341C19.3559 12.0981 18.7629 12.281 18.0551 12.281H16.9559L16.4338 14.167H14.6016ZM17.3721 10.7765H17.9627C18.3446 10.7765 18.6131 10.7293 18.7703 10.6382C18.9226 10.546 19.0307 10.3821 19.0967 10.149C19.1627 9.91286 19.1457 9.74776 19.046 9.6555C18.95 9.56369 18.7048 9.51726 18.3125 9.51726H17.7231L17.3721 10.7765Z" fill="#1B3281"/>
<path d="M22.8099 14.167L22.8269 13.7353C22.5568 13.9376 22.2833 14.0904 22.0082 14.186C21.7344 14.2833 21.4428 14.3327 21.1305 14.3327C20.6561 14.3327 20.3253 14.2037 20.1339 13.9541C19.945 13.7041 19.914 13.3451 20.0429 12.8871C20.1663 12.435 20.3858 12.1023 20.7025 11.8895C21.0174 11.6743 21.5432 11.5202 22.281 11.4217C22.3746 11.4065 22.4999 11.3942 22.6569 11.3753C23.2023 11.3121 23.5085 11.1667 23.5745 10.9295C23.6088 10.7996 23.5879 10.7038 23.5074 10.645C23.4296 10.5839 23.2843 10.5539 23.0744 10.5539C22.9003 10.5539 22.7602 10.59 22.6453 10.6651C22.5305 10.7409 22.4449 10.8517 22.3868 11.0076H20.7538C20.9013 10.4958 21.2026 10.1092 21.6549 9.85061C22.1055 9.58757 22.6997 9.46098 23.4357 9.46098C23.7818 9.46098 24.0917 9.49337 24.3657 9.56369C24.6401 9.63101 24.8407 9.727 24.9708 9.84315C25.1309 9.9881 25.2257 10.1534 25.2527 10.3361C25.2839 10.5184 25.2497 10.7796 25.1542 11.1215L24.4518 13.6559C24.4293 13.7389 24.4249 13.8129 24.4372 13.8802C24.4518 13.9444 24.4799 13.9994 24.5294 14.0386L24.4917 14.167H22.8099ZM23.217 12.1372C23.0391 12.2087 22.8079 12.2772 22.5207 12.3525C22.0696 12.4735 21.8157 12.6351 21.7608 12.835C21.7228 12.9635 21.7381 13.0625 21.801 13.1377C21.8629 13.2092 21.9705 13.2453 22.1221 13.2453C22.4001 13.2453 22.6233 13.175 22.7897 13.0362C22.9566 12.8956 23.0813 12.6748 23.1686 12.3702C23.1838 12.3054 23.1973 12.2589 23.2059 12.2241L23.217 12.1372Z" fill="#1B3281"/>
<path d="M24.5039 15.9583L24.8756 14.6128H25.3549C25.5151 14.6128 25.641 14.5811 25.7302 14.5235C25.8208 14.4636 25.8825 14.3627 25.918 14.2269C25.9357 14.167 25.9466 14.104 25.9541 14.0325C25.9589 13.9567 25.9589 13.8765 25.9541 13.7837L25.6983 9.62116H27.3937L27.3674 12.3793L28.8474 9.62116H30.424L27.8075 14.1451C27.5105 14.6507 27.2947 14.9981 27.1577 15.1877C27.0225 15.3749 26.8942 15.5204 26.7696 15.619C26.6081 15.7553 26.4279 15.8518 26.2333 15.9081C26.0383 15.9656 25.7413 15.9943 25.3421 15.9943C25.2272 15.9943 25.095 15.992 24.952 15.9846C24.8101 15.979 24.6587 15.9705 24.5039 15.9583Z" fill="#1B3281"/>
</g>
</g>
<defs>
<clipPath id="clip0_480_2352">
<rect width="38" height="24" fill="white"/>
</clipPath>
<clipPath id="clip1_480_2352">
<rect width="30.4" height="8" fill="white" transform="translate(3.80078 8)"/>
</clipPath>
</defs>
</svg>
