<svg width="17" height="17" viewBox="0 0 17 17" fill="none" xmlns="http://www.w3.org/2000/svg">
<g clip-path="url(#clip0_456_83)">
<path d="M8.33268 4H9.33268C9.33268 3.34863 9.10132 3.00153 8.91535 2.72267C8.76522 2.4974 8.66602 2.34863 8.66602 2C8.66602 1.65137 8.76522 1.5026 8.91535 1.27733C9.10132 0.998467 9.33268 0.6514 9.33268 0H8.33268C8.33268 0.3486 8.23345 0.4974 8.08335 0.722667C7.89738 1.00153 7.66602 1.3486 7.66602 2C7.66602 2.6514 7.89738 2.99847 8.08335 3.27733C8.23345 3.5026 8.33268 3.65137 8.33268 4Z" fill="black"/>
<path d="M11.5007 6H12.5007C12.5007 5.3486 12.2693 5.00153 12.0833 4.72267C11.9332 4.49743 11.834 4.34863 11.834 4C11.834 3.65137 11.9332 3.5026 12.0833 3.27733C12.2693 2.99847 12.5007 2.65137 12.5007 2H11.5007C11.5007 2.34863 11.4015 2.4974 11.2513 2.72267C11.0654 3.00153 10.834 3.34863 10.834 4C10.834 4.65137 11.0654 4.99847 11.2513 5.27733C11.4015 5.5026 11.5007 5.6514 11.5007 6Z" fill="black"/>
<path d="M4.5 6H5.5C5.5 5.6514 5.59923 5.5026 5.74937 5.27733C5.9353 4.99847 6.16667 4.6514 6.16667 4C6.16667 3.3486 5.9353 3.00153 5.74937 2.72267C5.59923 2.4974 5.5 2.34863 5.5 2H4.5C4.5 2.65137 4.73137 2.99847 4.91733 3.27733C5.06747 3.50257 5.16667 3.65137 5.16667 4C5.16667 4.34863 5.06743 4.4974 4.91733 4.72267C4.73137 5.00153 4.5 5.3486 4.5 6Z" fill="black"/>
<path d="M0 14V15H1.19097L2.19097 17H14.809L15.809 15H17V14C14.6653 14 2.34717 14 0 14Z" fill="black"/>
<path d="M9.99918 7.66153V7.5C9.99918 6.6729 9.32631 6 8.49918 6C7.67048 6 6.99918 6.67117 6.99918 7.5V7.66153C4.35498 8.2402 2.25161 10.3121 1.66211 13H15.3363C14.747 10.3135 12.6446 8.2405 9.99918 7.66153Z" fill="black"/>
</g>
<defs>
<clipPath id="clip0_456_83">
<rect width="17" height="17" fill="white"/>
</clipPath>
</defs>
</svg>
