<svg width="22" height="22" viewBox="0 0 22 22" fill="none" xmlns="http://www.w3.org/2000/svg">
<g clip-path="url(#clip0_746_2815)">
<mask id="mask0_746_2815" style="mask-type:luminance" maskUnits="userSpaceOnUse" x="0" y="0" width="22" height="22">
<path d="M11 22C17.0751 22 22 17.0751 22 11C22 4.92487 17.0751 0 11 0C4.92487 0 0 4.92487 0 11C0 17.0751 4.92487 22 11 22Z" fill="white"/>
</mask>
<g mask="url(#mask0_746_2815)">
<path d="M4.72656 44.5156C17.7786 44.5156 28.3594 33.9349 28.3594 20.8828C28.3594 7.83077 17.7786 -2.75 4.72656 -2.75C-8.32548 -2.75 -18.9062 7.83077 -18.9062 20.8828C-18.9062 33.9349 -8.32548 44.5156 4.72656 44.5156Z" fill="url(#paint0_radial_746_2815)"/>
</g>
<path d="M14.0938 8.76562C14.5684 8.76562 14.9531 8.38087 14.9531 7.90625C14.9531 7.43163 14.5684 7.04688 14.0938 7.04688C13.6191 7.04688 13.2344 7.43163 13.2344 7.90625C13.2344 8.38087 13.6191 8.76562 14.0938 8.76562Z" fill="white"/>
<path d="M11 8.25C10.4561 8.25 9.92442 8.41128 9.47218 8.71346C9.01995 9.01563 8.66747 9.44512 8.45933 9.94762C8.25119 10.4501 8.19673 11.0031 8.30284 11.5365C8.40895 12.0699 8.67086 12.5599 9.05546 12.9445C9.44005 13.3291 9.93006 13.5911 10.4635 13.6972C10.997 13.8033 11.5499 13.7488 12.0524 13.5407C12.5549 13.3325 12.9844 12.9801 13.2865 12.5278C13.5887 12.0756 13.75 11.5439 13.75 11C13.75 10.2707 13.4603 9.57118 12.9445 9.05546C12.4288 8.53973 11.7293 8.25 11 8.25ZM11 12.375C10.7281 12.375 10.4622 12.2944 10.2361 12.1433C10.01 11.9922 9.83374 11.7774 9.72967 11.5262C9.6256 11.2749 9.59837 10.9985 9.65142 10.7318C9.70448 10.465 9.83543 10.22 10.0277 10.0277C10.22 9.83543 10.465 9.70447 10.7318 9.65142C10.9985 9.59837 11.2749 9.62559 11.5262 9.72967C11.7774 9.83374 11.9922 10.01 12.1433 10.2361C12.2944 10.4622 12.375 10.7281 12.375 11C12.375 11.3647 12.2301 11.7144 11.9723 11.9723C11.7144 12.2301 11.3647 12.375 11 12.375Z" fill="white"/>
<path fill-rule="evenodd" clip-rule="evenodd" d="M7.5625 6.1875C6.80311 6.1875 6.1875 6.80311 6.1875 7.5625V14.4375C6.1875 15.1969 6.80311 15.8125 7.5625 15.8125H14.4375C15.1969 15.8125 15.8125 15.1969 15.8125 14.4375V7.5625C15.8125 6.80311 15.1969 6.1875 14.4375 6.1875H7.5625ZM4.8125 7.5625C4.8125 6.04372 6.04372 4.8125 7.5625 4.8125H14.4375C15.9563 4.8125 17.1875 6.04372 17.1875 7.5625V14.4375C17.1875 15.9563 15.9563 17.1875 14.4375 17.1875H7.5625C6.04372 17.1875 4.8125 15.9563 4.8125 14.4375V7.5625Z" fill="white"/>
</g>
<defs>
<radialGradient id="paint0_radial_746_2815" cx="0" cy="0" r="1" gradientUnits="userSpaceOnUse" gradientTransform="translate(4.72656 20.8828) scale(23.6328)">
<stop stop-color="#FFD676"/>
<stop offset="0.25" stop-color="#F2A454"/>
<stop offset="0.38" stop-color="#F05C3C"/>
<stop offset="0.7" stop-color="#C22F86"/>
<stop offset="0.96" stop-color="#6666AD"/>
<stop offset="0.99" stop-color="#5C6CB2"/>
</radialGradient>
<clipPath id="clip0_746_2815">
<rect width="22" height="22" fill="white"/>
</clipPath>
</defs>
</svg>
