<svg width="13" height="16" viewBox="0 0 13 16" fill="none" xmlns="http://www.w3.org/2000/svg">
<path d="M11.4823 4.82025C11.4601 4.82025 11.4376 4.81712 11.4152 4.81056C11.2892 4.77356 11.217 4.6414 11.254 4.51534C11.2639 4.48072 11.9199 2.14915 10.7408 0.369247C10.6682 0.259747 10.6982 0.112153 10.8077 0.0395904C10.9172 -0.0329721 11.0648 -0.00297211 11.1374 0.106528C12.4435 2.07812 11.741 4.54525 11.7104 4.64931C11.68 4.753 11.5852 4.82025 11.4823 4.82025Z" fill="black"/>
<path d="M11.5824 5.01994C10.6891 4.69894 9.93699 4.90453 9.45137 5.465C8.62458 6.41919 8.26802 8.0045 8.03027 8.79447C6.95308 12.3736 4.32011 14.1324 0.608271 14.6029C-0.506917 14.7442 0.0543334 15.3674 1.14102 15.6743C2.29896 16.0013 6.5559 16.6409 9.5989 14.1927C12.0202 12.2446 13.5733 8.26972 12.8011 6.166C12.6028 5.62569 12.1777 5.23382 11.5824 5.01994Z" fill="black"/>
<path d="M12.8016 6.16593C12.6032 5.62565 12.1781 5.23377 11.5829 5.0199C11.0508 4.82874 10.5689 4.8244 10.1636 4.97049C10.2133 4.98533 10.2636 5.00165 10.3143 5.0199C10.9096 5.23377 11.3347 5.62565 11.533 6.16593C12.3052 8.26965 10.7521 12.2446 8.33078 14.1926C6.76028 15.4562 4.8665 15.8972 3.24219 15.9833C5.06712 16.0778 7.59619 15.8043 9.59934 14.1926C12.0206 12.2446 13.5737 8.26965 12.8016 6.16593Z" fill="black"/>
<path d="M9.81306 4.58225C9.50228 4.79634 9.61162 5.29144 10.0335 5.24147C10.4897 5.18744 10.859 5.14422 11.4022 5.2955C11.8494 5.42009 12.1312 5.66788 12.3841 5.75138C12.7383 5.86828 12.9664 5.55488 12.806 5.22522C12.2487 4.07991 11.2262 3.60878 9.81306 4.58225Z" fill="black"/>
<path d="M12.8076 5.22521C12.3546 4.29418 11.5942 3.80871 10.5664 4.18249C10.9728 4.36418 11.2991 4.73211 11.539 5.22521C11.5603 5.26902 11.5746 5.31252 11.5828 5.3548C11.9294 5.48674 12.1683 5.67964 12.3857 5.75139C12.7399 5.86827 12.968 5.55486 12.8076 5.22521Z" fill="black"/>
<path d="M9.94362 6.10897C9.51359 6.67147 9.26678 7.38331 9.08534 8.06085C9.00606 8.35691 9.46484 8.48322 9.54406 8.18731C9.71609 7.54488 9.94647 6.88263 10.3544 6.3491C10.433 6.24625 10.3695 6.08385 10.269 6.02366C10.1475 5.95081 10.0212 6.00747 9.94362 6.10897Z" fill="white"/>
</svg>
