<svg width="55" height="62" viewBox="0 0 55 62" fill="none" xmlns="http://www.w3.org/2000/svg">
<path d="M25.9727 46.7128C26.6414 46.7128 27.1836 46.1706 27.1836 45.5018C27.1836 44.833 26.6414 44.2909 25.9727 44.2909C25.3039 44.2909 24.7617 44.833 24.7617 45.5018C24.7617 46.1706 25.3039 46.7128 25.9727 46.7128Z" fill="#111111"/>
<path d="M15.2055 23.8082H36.7413C37.4113 23.8082 37.9547 23.265 37.9547 22.5948C37.9547 21.9247 37.4115 21.3815 36.7413 21.3815H15.2055C14.5354 21.3815 13.9922 21.9247 13.9922 22.5948C13.9922 23.265 14.5354 23.8082 15.2055 23.8082Z" fill="#111111"/>
<path d="M44.8582 13.8978C45.0952 14.1347 45.4056 14.2533 45.7161 14.2533C46.0266 14.2533 46.3371 14.1347 46.5741 13.8978L53.595 6.87695C55.166 5.30576 55.166 2.74936 53.595 1.17817C53.595 1.17817 53.595 1.17817 53.5948 1.17817C52.0238 -0.392782 49.4672 -0.392661 47.8962 1.17817L40.8753 8.19918C40.6478 8.42683 40.5199 8.73538 40.5199 9.05712C40.5199 9.37899 40.6478 9.68766 40.8753 9.91507L42.0087 11.0485L36.5153 16.5419H10.9595C9.34528 16.5419 7.94411 17.4264 7.22808 18.7601H3.79459C1.70221 18.7601 0 20.4623 0 22.5547C0 24.6471 1.70221 26.3494 3.79459 26.3494H6.21961L5.82061 30.9246C5.46774 34.9712 6.83949 39.0093 9.58408 42.0036C9.92036 42.3705 10.2744 42.718 10.6436 43.0458V54.4692H5.76733C5.0972 54.4692 4.55397 55.0124 4.55397 55.6825V60.7866C4.55397 61.4567 5.0972 62 5.76733 62H46.1771C46.8471 62 47.3905 61.4568 47.3905 60.7866V55.6825C47.3905 55.0125 46.8473 54.4692 46.1771 54.4692H41.3008V43.0459C41.6701 42.7181 42.0241 42.3707 42.3605 42.0037C45.1051 39.0093 46.4767 34.9712 46.1239 30.9246L45.7248 26.3494H48.15C50.2424 26.3494 51.9447 24.6472 51.9447 22.5547C51.9447 20.4625 50.2425 18.7601 48.15 18.7601H44.7164C44.0005 17.4264 42.5993 16.5419 40.985 16.5419H39.9472L43.7247 12.7644L44.8582 13.8978ZM3.79459 23.9226C3.0403 23.9226 2.42672 23.3089 2.42672 22.5546C2.42672 21.8004 3.04042 21.1867 3.79459 21.1867H6.66984L6.43128 23.9226H3.79459ZM13.0704 44.7882C13.8132 45.2135 14.5921 45.5722 15.3974 45.8609C15.5941 48.6537 16.6719 51.2542 18.4779 53.2484C18.8842 53.6971 19.3182 54.1042 19.7747 54.4692H13.0704V44.7882ZM27.1786 54.1488C26.7823 54.2154 26.3794 54.2499 25.9723 54.2499C25.5652 54.2499 25.1622 54.2155 24.7658 54.1488V51.1515H27.1786V54.1488ZM44.9639 59.5732H6.98069V56.8958H44.9639V59.5732ZM38.8741 54.4691H32.1699C32.6246 54.1055 33.0568 53.7005 33.4617 53.2539C35.2703 51.2592 36.3505 48.6563 36.5473 45.8608C37.3524 45.5721 38.1314 45.2134 38.8741 44.7882V54.4691ZM49.5179 22.5547C49.5179 23.309 48.9042 23.9227 48.1499 23.9227H45.5132L45.2746 21.1868H48.15C48.9043 21.1868 49.5179 21.8004 49.5179 22.5547ZM42.7895 20.6227L43.7065 31.1354C44.0047 34.5556 42.8914 37.833 40.5716 40.3638C38.2519 42.8947 35.0837 44.2885 31.6505 44.2885H31.3956C30.7256 44.2885 30.1822 44.8317 30.1822 45.5018C30.1822 46.172 30.7255 46.7152 31.3956 46.7152H31.6505C32.4552 46.7152 33.2533 46.6468 34.0377 46.5154C33.748 48.4516 32.9288 50.2292 31.6641 51.624C31.0483 52.3031 30.3535 52.8574 29.6053 53.2808V49.9382C29.6053 49.2682 29.0621 48.7249 28.392 48.7249H23.5525C22.8823 48.7249 22.3391 49.2681 22.3391 49.9382V53.2807C21.5895 52.8565 20.8934 52.3006 20.2766 51.6196C19.014 50.2253 18.1965 48.4494 17.9071 46.5155C18.6914 46.6469 19.4895 46.7153 20.2941 46.7153H20.549C21.2191 46.7153 21.7623 46.1721 21.7623 45.502C21.7623 44.8318 21.2191 44.2886 20.549 44.2886H20.2941C16.861 44.2886 13.6928 42.8948 11.373 40.364C9.05321 37.8331 7.93987 34.5557 8.23824 31.1355L9.15504 20.6228C9.23727 19.6798 10.013 18.9688 10.9595 18.9688H40.985C41.9316 18.9686 42.7073 19.6797 42.7895 20.6227ZM49.6121 2.89406C50.237 2.2691 51.2539 2.26886 51.8791 2.89406C52.5042 3.51903 52.5042 4.53597 51.8791 5.16094L45.7161 11.324L43.4493 9.05712L49.6121 2.89406Z" fill="#111111"/>
</svg>
