<svg width="65" height="62" viewBox="0 0 65 62" fill="none" xmlns="http://www.w3.org/2000/svg">
<path d="M9.6565 10.6362L11.7161 14.8886L16.3884 15.5237C17.3145 15.648 17.6463 16.7939 17.0104 17.4014L13.5961 20.6736L14.4393 25.3126C14.6052 26.2238 13.6376 26.9141 12.8358 26.4723L8.67506 24.2357L4.51431 26.4723C3.71257 26.9003 2.70348 26.2376 2.92465 25.2435L3.75404 20.6598L0.339733 17.3876C-0.323776 16.7525 0.0356246 15.6204 0.975596 15.4961L5.63398 14.861L7.69362 10.6086C8.08067 9.79403 9.26946 9.80783 9.6565 10.6362ZM9.98826 16.3797L8.67506 13.6461L7.34805 16.3797C7.19599 16.6973 6.87806 16.9458 6.50484 17.001L3.50522 17.4014L5.7031 19.5C5.95191 19.7485 6.09014 20.1075 6.02103 20.4803L5.48193 23.4625L8.13596 22.0404C8.45389 21.8748 8.85476 21.8471 9.18652 22.0404L11.8544 23.4763L11.3291 20.5493C11.2462 20.1904 11.3429 19.79 11.6332 19.5L13.8311 17.4014L10.8591 17.001C10.4997 16.9596 10.1541 16.7249 9.98826 16.3797ZM33.1834 0.626483L35.2431 4.8789L39.9291 5.514C40.8552 5.63826 41.187 6.7842 40.5511 7.4055L37.1368 10.6776L37.98 15.3166C38.1459 16.2279 37.1783 16.9182 36.3766 16.4764L32.1882 14.2397L28.0274 16.4764C27.2257 16.9044 26.2166 16.2417 26.4377 15.2476L27.2671 10.6638L23.839 7.39169C23.1755 6.75659 23.5349 5.62445 24.4749 5.50019L29.1333 4.86509L31.1929 0.626483C31.6076 -0.215716 32.7826 -0.20191 33.1834 0.626483ZM33.5152 6.37L32.1882 3.63631L30.875 6.37C30.7229 6.68755 30.405 6.93607 30.0318 6.9913L27.0183 7.39169L29.2162 9.49028C29.4788 9.7388 29.6032 10.0978 29.5341 10.4705L28.995 13.4528L31.6629 12.0307C31.9808 11.865 32.3679 11.8374 32.7134 12.0307L35.3813 13.4666L34.856 10.5396C34.7731 10.1806 34.8698 9.78022 35.1601 9.49028L37.358 7.39169L34.386 6.97749C34.0128 6.94988 33.6811 6.71517 33.5152 6.37ZM56.6965 10.6362L58.7562 14.8886L63.4284 15.5237C64.3545 15.648 64.7001 16.7939 64.0504 17.4014L60.6361 20.6736L61.4793 25.3126C61.6452 26.2238 60.6776 26.9141 59.8758 26.4723L55.7151 24.2357L51.5543 26.4723C50.7526 26.9003 49.7435 26.2376 49.9508 25.2435L50.7802 20.6598L47.3659 17.3876C46.7024 16.7525 47.0618 15.6204 48.0018 15.4961L52.6602 14.861L54.7198 10.6086C55.1207 9.79403 56.3095 9.80783 56.6965 10.6362ZM57.0283 16.3797L55.7151 13.6461L54.3881 16.3797C54.236 16.6973 53.9319 16.9458 53.5449 17.001L50.5452 17.4014L52.7293 19.5C52.9781 19.7485 53.1163 20.1075 53.0472 20.4803L52.5081 23.4625L55.176 22.0404C55.4939 21.8748 55.8948 21.8471 56.2265 22.0404L58.9082 23.4763L58.3829 20.5493C58.3 20.1904 58.3968 19.79 58.687 19.5L60.8711 17.4014L57.8991 17.001C57.5397 16.9596 57.1942 16.7249 57.0283 16.3797ZM27.0598 38.8292C26.7557 38.3045 26.9354 37.628 27.4607 37.3243C27.9859 37.0205 28.6633 37.2 28.9674 37.7247L30.4188 40.2374L35.5748 35.0876C36.0033 34.6596 36.7083 34.6596 37.1368 35.0876C37.5653 35.5156 37.5653 36.2197 37.1368 36.6478L30.9579 42.8193C30.4464 43.3301 29.5894 43.2197 29.23 42.5984L27.0598 38.8292ZM32.1882 27.1627C38.2012 27.1627 43.0808 32.0364 43.0808 38.0422C43.0808 44.0481 38.2012 48.9218 32.1882 48.9218C26.1751 48.9218 21.2956 44.0481 21.2956 38.0422C21.2956 32.0364 26.1751 27.1627 32.1882 27.1627ZM38.3256 31.9121C34.939 28.5295 29.4374 28.5295 26.0507 31.9121C22.664 35.2947 22.664 40.7897 26.0507 44.1723C29.4374 47.5549 34.939 47.5549 38.3256 44.1723C41.7123 40.7759 41.7123 35.2947 38.3256 31.9121ZM32.1882 20.3284C41.9749 20.3284 49.9094 28.2534 49.9094 38.0284C49.9094 41.7286 48.7759 45.1664 46.8268 48.0105L52.1211 57.1643C52.6325 58.0203 51.9276 58.9867 51.0152 58.8487L45.5966 57.9927L42.6937 61.5548C42.1823 62.2175 41.2285 62.107 40.8552 61.4443L37.1507 55.0381C33.916 55.9769 30.4464 55.9769 27.2257 55.0381L23.5211 61.4443C23.1479 62.107 22.1941 62.2175 21.6826 61.5548L18.7798 57.9927L13.3611 58.8487C12.4349 59.0005 11.7853 57.9927 12.2276 57.2057L17.5495 48.0105C12.7391 40.983 13.6376 31.5255 19.6644 25.5059C22.8576 22.3166 27.2948 20.3284 32.1882 20.3284ZM45.3616 49.8744C43.6752 51.7521 41.6017 53.257 39.2518 54.2787L41.9611 58.9591L44.2834 56.115C44.546 55.7836 44.9469 55.6594 45.3339 55.7284L49.0662 56.3221L45.3616 49.8744ZM25.1107 54.2787C22.7746 53.257 20.7012 51.7521 19.0147 49.8882L15.2963 56.3221L19.0286 55.7284C19.4018 55.6594 19.8165 55.7974 20.0791 56.115L22.4014 58.9591L25.1107 54.2787ZM43.1637 27.0798C37.1092 21.0326 27.281 21.0326 21.2264 27.0798C15.1719 33.1271 15.1719 42.9435 21.2264 48.9908C27.2948 55.0381 37.1092 55.0381 43.1637 48.9908C49.2182 42.9435 49.2182 33.1271 43.1637 27.0798Z" fill="#111111"/>
</svg>
