<svg width="62" height="62" viewBox="0 0 62 62" fill="none" xmlns="http://www.w3.org/2000/svg">
<path d="M51.8715 29.3304C50.6907 29.3304 49.5199 29.5819 48.4186 30.064C48.7959 28.554 49.5404 27.1314 50.7869 25.5024C51.0818 25.1171 51.0085 24.5657 50.6231 24.2708C50.2379 23.9761 49.6866 24.0491 49.3916 24.4346C47.8862 26.4016 47.0059 28.187 46.6091 30.1025C45.4824 29.5951 44.281 29.3303 43.0689 29.3303C39.2489 29.3303 35.9165 31.9104 34.1916 35.7099L28.7388 18.7206C27.8655 15.9991 25.8082 13.8376 23.0946 12.7904C21.5009 12.1753 19.8116 11.9766 18.1638 12.1815C18.7261 11.1081 19.2264 9.80762 19.6015 8.40774C20.1029 6.53609 20.3282 4.6977 20.2357 3.23143C20.0919 0.950006 19.2239 0.246803 18.5213 0.0585461C17.819 -0.129585 16.7157 0.0453681 15.4502 1.94915C14.7488 3.00439 14.1141 4.41757 13.6309 5.98676C12.7581 4.59604 11.7793 3.39521 10.8287 2.55747C9.11393 1.04627 8.00297 1.16249 7.37294 1.5262C6.74292 1.88978 6.08678 2.7938 6.53822 5.03468C6.81408 6.40444 7.45502 8.02445 8.35024 9.62301C6.49868 9.13216 4.68214 8.91215 3.23144 9.00364C0.950035 9.14759 0.246837 10.0155 0.0585817 10.718C-0.129674 11.4207 0.0455293 12.5239 1.94917 13.7893C3.17271 14.6027 4.87743 15.3267 6.74907 15.8282C8.25185 16.231 9.70606 16.4488 10.9654 16.4778C10.3308 17.3587 9.83357 18.336 9.50061 19.383C8.85715 21.4065 8.87636 23.505 9.53726 25.4205H8.97588C8.72199 25.4205 8.48052 25.5303 8.31372 25.7217C8.1468 25.9131 8.07087 26.1674 8.10564 26.4189C8.18495 26.9942 8.30607 27.4469 8.41274 27.8464C8.62108 28.6255 8.7319 29.0403 8.39731 29.8267C6.09067 30.1317 4.12114 31.3093 2.53653 33.3326C2.38555 33.5254 2.32694 33.7663 2.35982 33.9979C0.250728 36.2373 -0.554128 39.879 0.40309 43.4519C0.959825 45.5293 2.19252 47.2926 3.93263 48.5798H0.879502C0.394304 48.5798 0.000975331 48.9731 0.000975331 49.4583C0.000975331 51.972 0.692627 53.8826 2.11546 55.2993C4.12177 57.297 7.46946 58.2315 12.6376 58.235V61.1215C12.6376 61.6067 13.0309 62 13.5161 62H48.4847C48.9699 62 49.3633 61.6067 49.3633 61.1215V58.2345C54.5347 58.2306 57.88 57.2961 59.8855 55.2993C61.3083 53.8826 62 51.972 62 49.4583C62 48.9731 61.6067 48.5798 61.1215 48.5798H60.2255C61.377 46.5448 62 44.1311 62 41.6223C61.9999 34.8447 57.4563 29.3304 51.8715 29.3304ZM18.0656 1.75939C18.4227 2.02696 18.8947 4.2568 17.9043 7.95317C17.4515 9.64384 16.795 11.1863 16.106 12.2248C16.0817 12.0007 16.045 11.7607 15.9929 11.5022C15.7934 10.5115 15.4031 9.38969 14.8635 8.23982C14.9357 7.89656 15.0156 7.55017 15.1085 7.2039C16.0987 3.50779 17.6226 1.8126 18.0656 1.75939ZM8.25336 3.0512C8.69086 2.99008 10.6054 4.23045 12.5189 7.54477C14.4323 10.8587 14.5533 13.1349 14.2777 13.4857C13.837 13.5458 11.9255 12.3064 10.0122 8.99197C8.09886 5.67814 7.97775 3.40212 8.25336 3.0512ZM1.75928 11.1739C2.02686 10.8168 4.25668 10.3447 7.95302 11.335C8.61957 11.5136 9.2619 11.7245 9.86997 11.9598C10.4687 12.7521 11.0914 13.4407 11.7023 13.9791C11.998 14.2398 12.2751 14.4505 12.5357 14.6215C11.2805 14.8606 9.25249 14.68 7.20389 14.131C3.50768 13.1408 1.8125 11.6169 1.75928 11.1739ZM15.1581 15.0107C17.401 13.7157 20.0631 13.5037 22.462 14.4297C24.4846 15.2103 26.0086 16.6783 26.8193 18.6001L19.5567 22.7932C19.1365 23.0358 18.9926 23.5731 19.2352 23.9933C19.398 24.2752 19.6932 24.4327 19.9969 24.4327C20.146 24.4327 20.297 24.3947 20.4353 24.3148L27.3985 20.2945L32.9938 37.7281L29.3829 39.813C28.9627 40.0556 28.8188 40.5929 29.0614 41.0131C29.2242 41.295 29.5194 41.4525 29.8231 41.4525C29.9722 41.4525 30.1232 41.4145 30.2615 41.3348L33.0621 39.7176C32.9821 40.3388 32.9402 40.975 32.9402 41.6229C32.9402 44.1319 33.5631 46.5455 34.7147 48.5804H31.8948L22.2618 37.9588C22.024 36.974 21.6459 36.0591 21.1455 35.2517L24.8932 33.0879C25.3133 32.8451 25.4573 32.3078 25.2147 31.8878C24.972 31.4676 24.4348 31.3238 24.0146 31.5662L20.2006 33.7683C20.1816 33.6133 20.1239 33.4624 20.0227 33.3335C18.5734 31.4827 16.8019 30.3396 14.7448 29.9245C15.006 28.7626 14.8974 27.5192 14.4197 26.0312C14.303 25.6678 13.965 25.4212 13.5833 25.4212H11.4253C9.81851 21.7449 11.4176 17.1702 15.1581 15.0107ZM22.1564 43.4522C22.3876 42.5893 22.5128 41.7281 22.5451 40.886L29.523 48.5802H18.627C20.3669 47.2929 21.5997 45.5296 22.1564 43.4522ZM9.04164 31.5261C9.34323 31.5034 9.61206 31.3272 9.75313 31.0595C10.6402 29.3754 10.3828 28.4124 10.1101 27.3928C10.0911 27.3218 10.0719 27.2503 10.0531 27.1778H12.9228C13.2345 28.4119 13.1859 29.3697 12.779 30.2971C12.6646 30.5582 12.6838 30.8584 12.8306 31.1026C12.9773 31.3469 13.2336 31.5047 13.5177 31.5261C14.5313 31.6021 15.471 31.886 16.3308 32.3741C15.8241 32.3243 15.3529 32.3105 14.9012 32.3313C14.5809 32.3459 14.294 32.5339 14.1527 32.8218C14.0113 33.1096 14.0381 33.4517 14.2226 33.7139C14.4008 33.9675 14.581 34.2425 14.7518 34.521C14.1903 34.3332 13.7336 34.2483 13.5638 34.2205C13.094 34.1441 12.649 34.4549 12.5594 34.9222C12.3959 35.7754 12.0427 36.9194 11.2799 37.9337C10.5171 36.9194 10.1636 35.7754 10.0002 34.9222C9.9198 34.5026 9.55257 34.2089 9.13841 34.2089C9.09134 34.2089 9.04365 34.2126 8.99571 34.2205C8.82603 34.2483 8.36907 34.3332 7.80757 34.521C7.97838 34.2426 8.1586 33.9678 8.33694 33.7139C8.52143 33.4516 8.54816 33.1096 8.40685 32.8218C8.26565 32.5339 7.97863 32.3459 7.65834 32.3313C7.20665 32.3105 6.73576 32.324 6.22885 32.3741C7.0883 31.886 8.02795 31.6021 9.04164 31.5261ZM2.10015 42.9975C1.17381 39.5399 2.16792 36.0527 4.51673 34.4513C5.04297 34.3288 5.52565 34.2371 5.97094 34.1756C5.51837 34.9837 5.08739 35.9359 5.07158 36.6523C5.06342 37.0254 5.29172 37.3629 5.64112 37.4942C5.99077 37.6254 6.38473 37.5216 6.62381 37.2352C7.06785 36.704 7.83166 36.3514 8.48742 36.1463C8.82653 37.3273 9.46597 38.7307 10.6707 39.889C10.8407 40.0525 11.0602 40.1342 11.2796 40.1342C11.499 40.1342 11.7185 40.0525 11.8886 39.889C13.0934 38.7307 13.7327 37.3273 14.0718 36.1462C14.7276 36.3512 15.4913 36.7039 15.9354 37.2352C16.1747 37.5216 16.5689 37.6256 16.9183 37.4941C17.2675 37.3629 17.496 37.0254 17.4877 36.6522C17.4719 35.9359 17.0408 34.9837 16.5882 34.1756C17.0339 34.2372 17.517 34.3291 18.0439 34.4517C20.3335 36.0133 21.4015 39.4804 20.4592 42.9975C19.5004 46.5759 16.5298 48.0239 14.7597 48.58H7.79966C6.02955 48.0239 3.059 46.5759 2.10015 42.9975ZM14.3946 60.2433V58.2351H47.6062V60.2433H14.3946ZM58.6458 54.0545C57.0082 55.6851 53.959 56.4784 49.3226 56.4784C49.2637 56.4784 49.2043 56.4783 49.1449 56.478H12.8523C12.7928 56.4783 12.734 56.4784 12.6749 56.4784C8.04251 56.4784 4.99276 55.685 3.35519 54.0545C2.4424 53.1456 1.92796 51.924 1.7938 50.3372H60.2072C60.073 51.924 59.5586 53.1456 58.6458 54.0545ZM36.7895 48.5802C35.4381 46.6535 34.6976 44.2013 34.6976 41.6227C34.6976 35.8136 38.453 31.0874 43.0689 31.0874C44.4507 31.0874 45.7672 31.4994 46.9818 32.3117C47.2773 32.5093 47.6628 32.5095 47.9586 32.3117C49.1734 31.4994 50.4899 31.0874 51.8716 31.0874C56.4876 31.0874 60.2429 35.8136 60.2429 41.6227C60.2429 44.201 59.5023 46.6534 58.151 48.5802H36.7895ZM41.2458 15.9092C41.2458 15.424 41.6391 15.0306 42.1243 15.0306H44.8626C45.3478 15.0306 45.7411 15.424 45.7411 15.9092C45.7411 16.3944 45.3478 16.7877 44.8626 16.7877H42.1243C41.6391 16.7877 41.2458 16.3944 41.2458 15.9092ZM38.7691 13.4326V10.6942C38.7691 10.209 39.1624 9.81566 39.6476 9.81566C40.1328 9.81566 40.5262 10.209 40.5262 10.6942V13.4326C40.5262 13.9178 40.1328 14.3111 39.6476 14.3111C39.1624 14.3111 38.7691 13.9178 38.7691 13.4326ZM38.7691 21.1243V18.386C38.7691 17.9008 39.1624 17.5075 39.6476 17.5075C40.1328 17.5075 40.5262 17.9008 40.5262 18.386V21.1243C40.5262 21.6095 40.1328 22.0028 39.6476 22.0028C39.1624 22.0028 38.7691 21.6095 38.7691 21.1243ZM33.5541 15.9092C33.5541 15.424 33.9474 15.0306 34.4326 15.0306H37.1708C37.656 15.0306 38.0493 15.424 38.0493 15.9092C38.0493 16.3944 37.656 16.7877 37.1708 16.7877H34.4326C33.9474 16.7877 33.5541 16.3944 33.5541 15.9092ZM57.5045 6.09469C57.5045 5.60949 57.8978 5.21616 58.383 5.21616H61.1213C61.6065 5.21616 61.9999 5.60949 61.9999 6.09469C61.9999 6.57989 61.6065 6.97323 61.1213 6.97323H58.383C57.8978 6.97323 57.5045 6.57977 57.5045 6.09469ZM55.0279 3.61798V0.879598C55.0279 0.394397 55.4212 0.00106495 55.9064 0.00106495C56.3916 0.00106495 56.7849 0.394397 56.7849 0.879598V3.61798C56.7849 4.10319 56.3916 4.49652 55.9064 4.49652C55.4212 4.49652 55.0279 4.10319 55.0279 3.61798ZM55.0279 11.3097V8.5714C55.0279 8.0862 55.4212 7.69287 55.9064 7.69287C56.3916 7.69287 56.7849 8.0862 56.7849 8.5714V11.3097C56.7849 11.7949 56.3916 12.1882 55.9064 12.1882C55.4212 12.1882 55.0279 11.7947 55.0279 11.3097ZM49.8129 6.09469C49.8129 5.60949 50.2063 5.21616 50.6915 5.21616H53.4296C53.9148 5.21616 54.3081 5.60949 54.3081 6.09469C54.3081 6.57989 53.9148 6.97323 53.4296 6.97323H50.6915C50.2063 6.97323 49.8129 6.57977 49.8129 6.09469Z" fill="#111111"/>
</svg>
