<svg width="62" height="62" viewBox="0 0 62 62" fill="none" xmlns="http://www.w3.org/2000/svg">
<path d="M25 26C25 25.4067 24.8241 24.8266 24.4944 24.3333C24.1648 23.8399 23.6962 23.4554 23.1481 23.2284C22.5999 23.0013 21.9967 22.9419 21.4147 23.0576C20.8328 23.1734 20.2982 23.4591 19.8787 23.8787C19.4591 24.2982 19.1734 24.8328 19.0576 25.4147C18.9419 25.9967 19.0013 26.5999 19.2284 27.1481C19.4554 27.6962 19.8399 28.1648 20.3333 28.4944C20.8266 28.8241 21.4067 29 22 29C22.7957 29 23.5587 28.6839 24.1213 28.1213C24.6839 27.5587 25 26.7957 25 26ZM21 26C21 25.8022 21.0587 25.6089 21.1685 25.4444C21.2784 25.28 21.4346 25.1518 21.6173 25.0761C21.8 25.0004 22.0011 24.9806 22.1951 25.0192C22.3891 25.0578 22.5673 25.153 22.7071 25.2929C22.847 25.4327 22.9422 25.6109 22.9808 25.8049C23.0194 25.9989 22.9996 26.2 22.9239 26.3827C22.8482 26.5654 22.72 26.7216 22.5556 26.8315C22.3911 26.9414 22.1978 27 22 27C21.7348 27 21.4804 26.8946 21.2929 26.7071C21.1054 26.5196 21 26.2652 21 26Z" fill="#111111"/>
<path d="M29 6C29.5933 6 30.1734 5.82406 30.6667 5.49441C31.1601 5.16477 31.5446 4.69623 31.7716 4.14805C31.9987 3.59987 32.0581 2.99667 31.9424 2.41473C31.8266 1.83279 31.5409 1.29824 31.1213 0.878681C30.7018 0.459124 30.1672 0.173401 29.5853 0.0576455C29.0033 -0.0581102 28.4001 0.00129986 27.8519 0.228363C27.3038 0.455426 26.8352 0.839943 26.5056 1.33329C26.1759 1.82664 26 2.40666 26 3C26 3.79565 26.3161 4.55871 26.8787 5.12132C27.4413 5.68393 28.2044 6 29 6ZM29 2C29.1978 2 29.3911 2.05865 29.5556 2.16853C29.72 2.27841 29.8482 2.43459 29.9239 2.61732C29.9996 2.80004 30.0194 3.00111 29.9808 3.19509C29.9422 3.38907 29.847 3.56726 29.7071 3.70711C29.5673 3.84696 29.3891 3.9422 29.1951 3.98079C29.0011 4.01937 28.8 3.99957 28.6173 3.92388C28.4346 3.84819 28.2784 3.72002 28.1685 3.55557C28.0586 3.39112 28 3.19778 28 3C28 2.73479 28.1054 2.48043 28.2929 2.29289C28.4804 2.10536 28.7348 2 29 2Z" fill="#111111"/>
<path d="M7 12C7.59334 12 8.17336 11.8241 8.66671 11.4944C9.16006 11.1648 9.54458 10.6962 9.77164 10.1481C9.9987 9.59987 10.0581 8.99667 9.94236 8.41473C9.8266 7.83279 9.54088 7.29824 9.12132 6.87868C8.70176 6.45912 8.16721 6.1734 7.58527 6.05765C7.00333 5.94189 6.40013 6.0013 5.85195 6.22836C5.30377 6.45543 4.83524 6.83994 4.50559 7.33329C4.17595 7.82664 4 8.40666 4 9C4 9.79565 4.31607 10.5587 4.87868 11.1213C5.44129 11.6839 6.20435 12 7 12ZM7 8C7.19778 8 7.39112 8.05865 7.55557 8.16853C7.72002 8.27841 7.84819 8.43459 7.92388 8.61732C7.99957 8.80004 8.01937 9.00111 7.98079 9.19509C7.9422 9.38907 7.84696 9.56726 7.70711 9.70711C7.56725 9.84696 7.38907 9.9422 7.19509 9.98079C7.00111 10.0194 6.80004 9.99957 6.61732 9.92388C6.43459 9.84819 6.27841 9.72002 6.16853 9.55557C6.05865 9.39112 6 9.19778 6 9C6 8.73479 6.10536 8.48043 6.29289 8.29289C6.48043 8.10536 6.73478 8 7 8Z" fill="#111111"/>
<path d="M45.6362 18C44.6687 17.9973 43.7103 18.1866 42.8165 18.5568C41.9227 18.9271 41.1113 19.471 40.4292 20.157C36.9126 23.6763 33.8952 27.661 31.4612 32H4.00015C3.73493 32 3.48058 32.1054 3.29304 32.2929C3.10551 32.4804 3.00015 32.7348 3.00015 33C2.98207 38.4892 4.58594 43.8614 7.61041 48.4422C10.6349 53.023 14.9452 56.6083 20.0002 58.748V61C20.0002 61.2652 20.1055 61.5196 20.293 61.7071C20.4806 61.8947 20.7349 62 21.0002 62H41.0002C41.2654 62 41.5197 61.8947 41.7073 61.7071C41.8948 61.5196 42.0002 61.2652 42.0002 61V58.748C47.0552 56.6083 51.3654 53.023 54.3899 48.4422C57.4144 43.8614 59.0182 38.4892 59.0002 33C59.0002 32.7348 58.8948 32.4804 58.7073 32.2929C58.5197 32.1054 58.2654 32 58.0002 32H49.3502C49.8572 31.53 50.3582 31.055 50.8432 30.571C51.7815 29.6344 52.4488 28.4612 52.7744 27.176C53.0999 25.8908 53.0715 24.5414 52.6922 23.271L61.3592 19.938C61.5042 19.8827 61.6344 19.7944 61.7394 19.68C61.8444 19.5657 61.9214 19.4285 61.9641 19.2793C62.0069 19.13 62.0144 18.9729 61.9859 18.8203C61.9575 18.6677 61.8939 18.5238 61.8002 18.4L58.8002 14.4C58.7205 14.2937 58.6205 14.2043 58.506 14.1371C58.3914 14.0699 58.2646 14.0262 58.133 14.0085C58.0014 13.9908 57.8675 13.9995 57.7393 14.0341C57.6111 14.0687 57.491 14.1285 57.3862 14.21L53.9942 16.849L58.7942 10.61C58.8885 10.4875 58.9532 10.3447 58.983 10.193C59.0129 10.0412 59.0071 9.88462 58.9662 9.73547C58.9253 9.58632 58.8504 9.44869 58.7473 9.33339C58.6442 9.2181 58.5158 9.12828 58.3722 9.07101L53.3722 7.07101C53.1342 6.97599 52.8689 6.97592 52.6309 7.07082C52.3929 7.16571 52.2004 7.34834 52.0932 7.58101L47.2002 18.172C46.6865 18.059 46.1621 18.0014 45.6362 18ZM40.6292 57.15C40.4434 57.2242 40.2842 57.3524 40.1721 57.518C40.06 57.6836 40.0001 57.879 40.0002 58.079V60H22.0002V58.079C22.0002 57.879 21.9403 57.6836 21.8282 57.518C21.7161 57.3524 21.5569 57.2242 21.3712 57.15C18.0796 55.8466 15.0906 53.8817 12.5889 51.3768C10.0873 48.8718 8.12625 45.8802 6.82715 42.587L11.0002 38.414L15.2932 42.707C15.4807 42.8945 15.735 42.9998 16.0002 42.9998C16.2653 42.9998 16.5196 42.8945 16.7072 42.707L21.0002 38.414L25.2932 42.707C25.4807 42.8945 25.735 42.9998 26.0002 42.9998C26.2653 42.9998 26.5196 42.8945 26.7072 42.707L31.0002 38.414L35.2932 42.707C35.4807 42.8945 35.735 42.9998 36.0002 42.9998C36.2653 42.9998 36.5196 42.8945 36.7072 42.707L41.0002 38.414L45.2932 42.707C45.4807 42.8945 45.735 42.9998 46.0002 42.9998C46.2653 42.9998 46.5196 42.8945 46.7072 42.707L51.0002 38.414L55.1732 42.587C53.8741 45.8802 51.913 48.8718 49.4114 51.3768C46.9097 53.8817 43.9207 55.8466 40.6292 57.15ZM55.9002 40.484L51.7092 36.293C51.5216 36.1055 51.2673 36.0002 51.0022 36.0002C50.737 36.0002 50.4827 36.1055 50.2952 36.293L46.0002 40.586L41.7072 36.293C41.5196 36.1055 41.2653 36.0002 41.0002 36.0002C40.735 36.0002 40.4807 36.1055 40.2932 36.293L36.0002 40.586L31.7072 36.293C31.5196 36.1055 31.2653 36.0002 31.0002 36.0002C30.735 36.0002 30.4807 36.1055 30.2932 36.293L26.0002 40.586L21.7072 36.293C21.5196 36.1055 21.2653 36.0002 21.0002 36.0002C20.735 36.0002 20.4807 36.1055 20.2932 36.293L16.0002 40.586L11.7072 36.293C11.5196 36.1055 11.2653 36.0002 11.0002 36.0002C10.735 36.0002 10.4807 36.1055 10.2932 36.293L6.10015 40.484C5.468 38.3769 5.10478 36.1983 5.01915 34H56.9812C56.8955 36.1983 56.5323 38.3769 55.9002 40.484ZM49.4292 29.157C48.4582 30.128 47.4292 31.067 46.3792 31.965L43.7072 29.293L42.2932 30.707L43.5862 32H33.7632C35.445 29.1535 37.392 26.4723 39.5782 23.992L42.2932 26.707L43.7072 25.293L40.9302 22.517C41.2302 22.199 41.5302 21.881 41.8432 21.571C42.8491 20.565 44.2135 19.9999 45.6362 19.9999C47.0588 19.9999 48.4232 20.565 49.4292 21.571C50.4351 22.577 51.0003 23.9414 51.0003 25.364C51.0003 26.7867 50.4351 28.151 49.4292 29.157ZM57.8112 16.414L59.4062 18.542L51.8592 21.442C51.8022 21.353 51.7472 21.263 51.6872 21.176L57.8112 16.414ZM53.5112 9.28101L56.4002 10.438L49.6582 19.2C49.4732 19.079 49.2842 18.965 49.0882 18.86L53.5112 9.28101Z" fill="#111111"/>
<path d="M46.7072 22.2927L45.293 23.7069L48.2932 26.7072L49.7074 25.2929L46.7072 22.2927Z" fill="#111111"/>
<path d="M36 9.118V11C35.9999 11.1858 36.0516 11.368 36.1493 11.5261C36.247 11.6842 36.3868 11.8119 36.553 11.895L39.44 13.338C40.4813 13.8588 41.6471 14.0792 42.8066 13.9747C43.9662 13.8701 45.0737 13.4447 46.005 12.746L48.6 10.8C48.7542 10.6844 48.8718 10.5267 48.9385 10.3458C49.0052 10.1649 49.0182 9.96866 48.9759 9.78059C48.9336 9.59251 48.8379 9.42067 48.7003 9.28573C48.5626 9.15079 48.3889 9.05851 48.2 9.02L46.391 8.658C47.5002 7.93732 48.4114 6.95061 49.0418 5.78773C49.6721 4.62484 50.0015 3.32274 50 2C50 1.73478 49.8946 1.48043 49.7071 1.29289C49.5196 1.10535 49.2652 0.999997 49 0.999997H48.324C46.7704 0.998475 45.2389 1.3679 43.8568 2.07754C42.4748 2.78718 41.2821 3.81654 40.378 5.08C40.0552 4.14192 39.521 3.29066 38.8166 2.59203C38.1123 1.89341 37.2567 1.36614 36.316 1.051C36.1657 1.00093 36.0056 0.987296 35.849 1.01123C35.6923 1.03516 35.5436 1.09597 35.4151 1.18865C35.2866 1.28133 35.1819 1.40323 35.1098 1.54429C35.0376 1.68535 35 1.84155 35 2V4.882C34.9991 5.77187 35.2045 6.64985 35.6 7.447C35.8606 7.96562 35.9975 8.53758 36 9.118ZM37 3.652C37.8472 4.30883 38.4294 5.24889 38.64 6.3L39.02 8.2C39.0637 8.41571 39.1773 8.61098 39.3433 8.75553C39.5093 8.90009 39.7183 8.98585 39.938 8.99952C40.1576 9.01319 40.3757 8.95401 40.5583 8.83116C40.7409 8.7083 40.8779 8.52863 40.948 8.32C41.4407 6.83759 42.369 5.53827 43.6118 4.59183C44.8546 3.64538 46.354 3.09583 47.914 3.015C47.7313 4.0721 47.2651 5.05983 46.5653 5.8729C45.8655 6.68598 44.9581 7.29394 43.94 7.632L42.684 8.051C42.4749 8.1208 42.2948 8.25773 42.1715 8.4405C42.0483 8.62326 41.9889 8.84162 42.0026 9.06162C42.0163 9.28162 42.1023 9.49093 42.2472 9.65702C42.3921 9.8231 42.5879 9.93664 42.804 9.98L45.611 10.542L44.811 11.142C44.1719 11.6075 43.4184 11.8906 42.6309 11.9611C41.8434 12.0315 41.0516 11.8867 40.34 11.542L38 10.382V9.118C38.0009 8.22812 37.7955 7.35015 37.4 6.553C37.1394 6.03437 37.0025 5.46242 37 4.882V3.652Z" fill="#111111"/>
<path d="M8.0003 27.95C9.05131 27.9529 10.0925 27.7473 11.0635 27.3451C12.0345 26.943 12.9161 26.3522 13.6573 25.607C13.8448 25.4195 13.9501 25.1652 13.9501 24.9C13.9501 24.6348 13.8448 24.3805 13.6573 24.193L3.7573 14.293C3.56635 14.1121 3.31332 14.0113 3.0503 14.0113C2.78727 14.0113 2.53424 14.1121 2.3433 14.293C1.22442 15.4118 0.462443 16.8373 0.153737 18.3892C-0.154969 19.9411 0.00345868 21.5497 0.608984 23.0115C1.21451 24.4734 2.23993 25.7228 3.55558 26.6019C4.87123 27.4809 6.418 27.9501 8.0003 27.95ZM7.0003 25.86C6.10964 25.7099 5.26472 25.3594 4.5293 24.835L7.0003 22.364V25.86ZM3.1153 23.421C2.59077 22.6857 2.24027 21.8407 2.0903 20.95H5.5903L3.1153 23.421ZM9.0003 25.863V22.363L11.4783 24.84C10.7412 25.3656 9.89353 25.7155 9.0003 25.863ZM3.1083 16.473L5.5863 18.95H2.0863C2.23433 18.0574 2.58385 17.2103 3.1083 16.473Z" fill="#111111"/>
<path d="M20.3114 13.608C21.8968 14.0072 23.3839 14.7264 24.6813 15.7215C25.9786 16.7165 27.0588 17.9662 27.8554 19.394L30.1274 23.485C30.2139 23.641 30.3405 23.771 30.4942 23.8616C30.6479 23.9521 30.823 23.9999 31.0014 24C31.0861 24.0001 31.1704 23.9894 31.2524 23.968C31.4668 23.9124 31.6567 23.7872 31.7923 23.612C31.9278 23.4368 32.0014 23.2215 32.0014 23V18.589C32.0007 14.7439 30.6253 11.0258 28.1234 8.106C27.2889 7.13121 26.2532 6.3488 25.0874 5.81262C23.9216 5.27643 22.6535 4.9992 21.3704 5C20.5218 5.00054 19.6917 5.24809 18.9814 5.71245C18.2711 6.1768 17.7113 6.83788 17.3704 7.615L13.1434 7.01L12.8594 8.99L17.0194 9.584C17.062 10.5197 17.4054 11.4166 17.9985 12.1416C18.5915 12.8666 19.4027 13.3808 20.3114 13.608ZM21.3704 7C22.3645 6.99975 23.3468 7.21487 24.2499 7.63056C25.1529 8.04625 25.9551 8.65264 26.6014 9.408C28.7939 11.9646 29.9998 15.221 30.0014 18.589V19.14L29.6014 18.423C28.6713 16.7561 27.4101 15.2969 25.8954 14.1353C24.3807 12.9736 22.6445 12.134 20.7934 11.668C20.2316 11.5283 19.7404 11.1878 19.4125 10.7107C19.0847 10.2336 18.9429 9.65291 19.0139 9.07838C19.0849 8.50386 19.3638 7.97522 19.798 7.5923C20.2321 7.20938 20.7915 6.99868 21.3704 7Z" fill="#111111"/>
</svg>
