<svg width="33" height="24" viewBox="0 0 33 24" fill="none" xmlns="http://www.w3.org/2000/svg">
<path d="M7.74245 21.5967C7.43596 21.5967 7.1875 21.3482 7.1875 21.0417V15.1403C7.1875 14.8338 7.43596 14.5854 7.74245 14.5854C8.04893 14.5854 8.29739 14.8338 8.29739 15.1403V21.0417C8.29739 21.3482 8.04893 21.5967 7.74245 21.5967Z" fill="#DB5353"/>
<path d="M23.2913 21.5966C22.9848 21.5966 22.7363 21.3481 22.7363 21.0416V16.1654C22.7363 15.8589 22.9848 15.6104 23.2913 15.6104C23.5978 15.6104 23.8462 15.8589 23.8462 16.1654V21.0416C23.8462 21.3481 23.5978 21.5966 23.2913 21.5966Z" fill="#DB5353"/>
<path d="M26.704 17.1727C25.9148 17.1727 25.1765 17.0602 24.563 16.9452C24.1801 16.8733 23.5895 16.7743 23.2041 16.7135C22.9014 16.6658 22.6946 16.3817 22.7423 16.079C22.79 15.7762 23.0742 15.5695 23.3769 15.6172C23.7581 15.6772 24.356 15.7771 24.7677 15.8543C26.7948 16.2345 29.3325 16.3388 30.976 13.7489C31.687 12.6284 31.9994 11.3182 31.8557 10.0597C31.7042 8.73351 31.1269 7.86498 30.1399 7.47824C29.5012 7.22796 28.7801 7.22287 28.1096 7.46395C27.7884 7.57943 26.0831 8.16158 24.0508 8.28239C23.0814 8.34005 22.1956 8.28057 21.4181 8.10564C20.4612 7.89035 19.6596 7.49809 19.0355 6.93971C18.8071 6.73535 18.7876 6.38452 18.992 6.15611C19.1963 5.9277 19.5472 5.90821 19.7756 6.11258C20.9121 7.12949 22.6921 7.25138 23.985 7.17446C25.4434 7.08776 26.9161 6.71359 27.7341 6.4195C28.6576 6.08752 29.6558 6.09651 30.5449 6.44486C31.9249 6.9856 32.7595 8.19205 32.9584 9.93377C33.1308 11.4435 32.7596 13.0096 31.9132 14.3436C30.9804 15.8134 29.6962 16.7211 28.0961 17.0414C27.6246 17.1358 27.1559 17.1727 26.704 17.1727Z" fill="#DB5353"/>
<path d="M7.74257 15.6953C7.74134 15.6953 7.74013 15.6953 7.73891 15.6952C6.753 15.6889 5.67833 15.445 4.71286 15.0086C3.64478 14.5258 2.77694 13.8429 2.20316 13.0337C2.18296 13.0051 2.1631 12.9769 2.14361 12.9489C1.33032 11.782 0.833814 10.442 0.707755 9.07385C0.561994 7.49184 0.900304 5.98837 1.7133 4.60516C2.36309 3.4996 3.2867 2.55082 4.38426 1.86138C5.46849 1.18032 6.72152 0.752183 8.00798 0.623227C9.0595 0.517839 10.1335 0.539032 11.2002 0.686162C12.0522 0.803707 12.9017 1.00151 13.7249 1.27402C15.0948 1.72754 15.934 2.23615 16.0128 2.28484C17.1629 2.97754 18.1772 3.88541 19.0278 4.98338C19.7048 5.85731 20.2795 6.8524 20.7359 7.94105C21.512 9.79228 21.6781 11.2696 21.6848 11.3316C21.7177 11.6364 21.4973 11.91 21.1926 11.9429C20.8881 11.9759 20.6147 11.7558 20.5814 11.4514C20.5799 11.4376 20.4201 10.0458 19.6987 8.33787C18.7445 6.07865 17.3108 4.36145 15.4375 3.23397C15.4348 3.23236 15.4321 3.23073 15.4295 3.22908C15.4224 3.22471 14.6357 2.74078 13.3417 2.31637C12.1568 1.9277 10.2887 1.51003 8.11867 1.72757C5.83869 1.95612 3.80188 3.24209 2.67017 5.16755C1.97737 6.34622 1.68899 7.62622 1.81298 8.972C1.92144 10.1491 2.35062 11.3048 3.05417 12.3143C3.07198 12.3398 3.09014 12.3656 3.10859 12.3917C4.12035 13.8187 6.20742 14.5754 7.74613 14.5853C8.0526 14.5873 8.29945 14.8374 8.29747 15.1439C8.29546 15.4492 8.04738 15.6952 7.74257 15.6953Z" fill="#DB5353"/>
<path d="M11.1637 12.3541C11.0292 12.3541 10.8943 12.3054 10.7876 12.2071C10.212 11.6763 9.48343 10.6397 9.2814 8.71499C9.2494 8.41017 9.47056 8.13714 9.77537 8.10514C10.0799 8.07306 10.3532 8.29431 10.3852 8.59911C10.5599 10.263 11.1837 11.0626 11.54 11.3911C11.7653 11.5989 11.7795 11.95 11.5718 12.1753C11.4624 12.2939 11.3132 12.3541 11.1637 12.3541Z" fill="#DB5353"/>
<path d="M8.83847 13.7918C8.76782 13.7918 8.69601 13.7782 8.62666 13.7495C8.52262 13.7065 6.0734 12.6448 5.60561 8.1869C5.57363 7.88208 5.7948 7.60904 6.0996 7.57706C6.40458 7.545 6.67744 7.76625 6.70944 8.07105C6.92177 10.0945 7.57881 11.2699 8.09261 11.8997C8.59688 12.5178 9.04642 12.722 9.05072 12.7238C9.33397 12.8409 9.46863 13.1654 9.35154 13.4487C9.26311 13.6626 9.05638 13.7918 8.83847 13.7918Z" fill="#DB5353"/>
<path d="M15.5167 23.4426C13.3982 23.4426 11.4004 23.2452 9.89127 22.8869C9.12711 22.7055 8.51828 22.4892 8.08173 22.2441C7.48837 21.911 7.1875 21.5065 7.1875 21.0417C7.1875 20.5769 7.48837 20.1723 8.08173 19.8392C8.51828 19.5941 9.12709 19.3779 9.89127 19.1964C11.4004 18.8381 13.3982 18.6407 15.5167 18.6407C17.6352 18.6407 19.633 18.8381 21.1421 19.1964C21.9063 19.3779 22.5151 19.5942 22.9517 19.8392C23.545 20.1723 23.8459 20.5769 23.8459 21.0417C23.8459 21.5065 23.545 21.911 22.9517 22.2441C22.5151 22.4892 21.9063 22.7055 21.1421 22.8869C19.633 23.2452 17.6352 23.4426 15.5167 23.4426ZM8.31373 21.0417C8.40082 21.1476 8.80855 21.5204 10.4038 21.8651C11.7998 22.1666 13.6156 22.3327 15.5167 22.3327C17.4178 22.3327 19.2336 22.1666 20.6296 21.8651C22.2249 21.5204 22.6326 21.1476 22.7197 21.0417C22.6326 20.9358 22.2249 20.5629 20.6296 20.2183C19.2336 19.9167 17.4178 19.7506 15.5167 19.7506C13.6156 19.7506 11.7998 19.9167 10.4038 20.2183C8.80855 20.5629 8.40084 20.9357 8.31373 21.0417Z" fill="#DB5353"/>
<path d="M22.8216 16.7476C22.3314 16.7476 21.8412 16.6696 21.3729 16.5152C19.4641 15.886 17.8502 14.7236 16.8325 13.8593C15.8073 12.9886 14.5789 12.4343 13.2801 12.2563C11.6142 12.028 10.2686 12.4711 9.28077 13.5735C8.53343 14.4075 8.27982 15.3003 8.27734 15.3092C8.19541 15.6046 7.88962 15.7776 7.59425 15.6956C7.29891 15.6137 7.12591 15.3079 7.20783 15.0125C7.22079 14.9659 7.53532 13.8582 8.45419 12.8328C9.31278 11.8747 10.8731 10.8061 13.4308 11.1567C14.9396 11.3635 16.3643 12.0055 17.551 13.0133C18.4934 13.8136 19.9817 14.888 21.7204 15.4611C22.8613 15.8372 24.0861 15.6134 24.9969 14.8625C25.2719 14.6357 25.4591 14.4077 25.5381 14.2031C25.6486 13.9172 25.9699 13.775 26.2558 13.8854C26.5417 13.9958 26.6839 14.3171 26.5734 14.603C26.4237 14.9906 26.1309 15.366 25.703 15.7188C25.1121 16.2061 24.3984 16.5364 23.6392 16.6742C23.3693 16.7232 23.0954 16.7475 22.8216 16.7476Z" fill="#DB5353"/>
</svg>
