<svg width="13" height="13" viewBox="0 0 13 13" fill="none" xmlns="http://www.w3.org/2000/svg">
<path d="M8.49275 6.54239L5.86187 9.17327L4.50642 7.81782C4.32506 7.63646 4.03125 7.63646 3.84989 7.81782C3.66853 7.99918 3.66853 8.29299 3.84989 8.47435L5.5336 10.1581C5.62428 10.2487 5.74308 10.2941 5.86187 10.2941C5.98066 10.2941 6.09945 10.2487 6.19013 10.1581L9.14927 7.19892C9.33064 7.01756 9.33064 6.72375 9.14927 6.54239C8.96791 6.36103 8.67411 6.36103 8.49275 6.54239Z" fill="black"/>
<path d="M10.6786 0.909982H9.98214V0.464286C9.98214 0.207886 9.77426 0 9.51786 0C9.26146 0 9.05357 0.207886 9.05357 0.464286V0.909982H3.94643V0.464286C3.94643 0.207886 3.73854 0 3.48214 0C3.22574 0 3.01786 0.207886 3.01786 0.464286V0.909982H2.32143C1.04147 0.909982 0 1.95145 0 3.23141V10.6786C0 11.9585 1.04147 13 2.32143 13H10.6786C11.9585 13 13 11.9585 13 10.6786V3.23141C13 1.95145 11.9585 0.909982 10.6786 0.909982ZM0.928571 3.23141C0.928571 2.46334 1.55336 1.83855 2.32143 1.83855H3.01786V2.28402C3.01786 2.54042 3.22574 2.74831 3.48214 2.74831C3.73854 2.74831 3.94643 2.54042 3.94643 2.28402V1.83855H9.05357V2.28402C9.05357 2.54042 9.26146 2.74831 9.51786 2.74831C9.77426 2.74831 9.98214 2.54042 9.98214 2.28402V1.83855H10.6786C11.4466 1.83855 12.0714 2.46334 12.0714 3.23141V3.70023H0.928571V3.23141ZM10.6786 12.0714H2.32143C1.55336 12.0714 0.928571 11.4466 0.928571 10.6786V4.6288H12.0714V10.6786C12.0714 11.4466 11.4466 12.0714 10.6786 12.0714Z" fill="black"/>
</svg>
