<svg width="269" height="265" viewBox="0 0 269 265" fill="none" xmlns="http://www.w3.org/2000/svg">
<g clip-path="url(#clip0_458_159)">
<path d="M134.668 259.003C197.951 259.003 249.178 207.713 249.178 144.493C249.178 81.2735 197.887 29.9832 134.668 29.9832C71.4479 29.9832 20.0938 81.2097 20.0938 144.493C20.0938 207.777 71.3841 259.003 134.668 259.003Z" fill="url(#paint0_linear_458_159)"/>
<path fill-rule="evenodd" clip-rule="evenodd" d="M132.371 199.292C132.371 194.571 136.199 190.744 140.92 190.744H190.615C197.377 190.744 203.884 192.785 208.924 196.422C213.9 200.122 217.855 205.863 217.855 213.008C217.855 220.153 213.9 225.958 208.924 229.594C203.948 233.294 197.441 235.272 190.615 235.272H72.5328C67.812 235.272 63.9844 231.444 63.9844 226.724C63.9844 222.003 67.812 218.175 72.5328 218.175H190.615C194.124 218.175 196.995 217.091 198.717 215.815C200.503 214.539 200.695 213.391 200.695 213.008C200.695 212.561 200.503 211.477 198.717 210.201C196.931 208.925 194.124 207.841 190.615 207.841L140.41 206.182C135.689 206.182 132.371 204.013 132.371 199.292Z" fill="url(#paint1_linear_458_159)"/>
<path fill-rule="evenodd" clip-rule="evenodd" d="M210.328 97.0306C211.476 92.8202 215.303 89.8857 219.641 89.8857H258.62C263.914 89.8857 268.252 94.2236 268.252 99.5185C268.252 104.813 263.914 109.151 258.62 109.151H227.042L215.814 151.192C214.41 156.359 209.179 159.357 204.012 158.018C198.845 156.614 195.846 151.383 197.186 146.216L210.328 97.0306Z" fill="url(#paint2_linear_458_159)"/>
<path d="M202.035 60.987H85.1642L75.9141 81.0821H192.785L202.035 60.987Z" fill="url(#paint3_linear_458_159)"/>
<path d="M143.153 57.9249H66.6641L75.9142 81.1459H152.339L143.153 57.9249Z" fill="url(#paint4_linear_458_159)"/>
<path d="M203.566 57.9249H161.59L152.34 81.1459H194.316L203.566 57.9249Z" fill="url(#paint5_linear_458_159)"/>
<path d="M194.38 81.0821H117.891V157.571H194.316V81.0821H194.38Z" fill="url(#paint6_linear_458_159)"/>
<path d="M152.339 81.0821H75.9141V157.571H152.339V81.0821Z" fill="url(#paint7_linear_458_159)"/>
<path d="M101.048 265C112.595 265 121.909 255.686 121.909 244.139C121.909 232.593 112.595 223.279 101.048 223.279C89.5014 223.279 80.1875 232.593 80.1875 244.139C80.1875 255.686 89.5652 265 101.048 265Z" fill="#DD6465"/>
<path d="M204.649 115.722H60.8578C50.0766 115.722 42.1024 124.845 44.5266 134.414L56.2646 190.68C58.0509 197.57 64.813 202.482 72.5959 202.482L199.418 210.711L221.044 134.478C226.339 118.848 215.431 115.722 204.649 115.722Z" fill="url(#paint8_linear_458_159)"/>
<path d="M100.474 254.602C106.279 254.602 110.936 249.881 110.936 244.139C110.936 238.398 106.215 233.677 100.474 233.677C94.6687 233.677 90.0117 238.398 90.0117 244.139C90.0117 249.881 94.7325 254.602 100.474 254.602Z" fill="url(#paint9_linear_458_159)"/>
<path d="M149.788 158.974C153.105 158.974 155.72 161.718 155.72 165.035L155.21 208.67C155.146 211.987 152.467 214.667 149.15 214.603C145.832 214.603 143.217 211.86 143.217 208.542L143.727 164.907C143.791 161.59 146.47 158.911 149.788 158.974Z" fill="url(#paint10_linear_458_159)"/>
<path d="M248.095 124.015V125.993C248.095 128.736 245.862 130.969 243.119 130.969L42.1042 131.479C39.361 131.479 37.1282 129.247 37.0645 126.503V124.526C37.0645 121.783 39.2972 119.55 42.0404 119.55L243.055 119.039C245.862 119.039 248.095 121.272 248.095 124.015Z" fill="#9B676A"/>
<path d="M183.663 159.102C186.98 159.102 189.595 161.845 189.595 165.163L189.085 208.798C189.021 212.115 186.342 214.794 183.025 214.73C179.707 214.73 177.092 211.987 177.092 208.67L177.602 165.035C177.666 161.718 180.345 159.102 183.663 159.102Z" fill="url(#paint11_linear_458_159)"/>
<path d="M115.915 158.783C119.232 158.783 121.847 161.526 121.847 164.844L121.337 208.479C121.273 211.796 118.594 214.475 115.277 214.411C111.959 214.411 109.344 211.668 109.344 208.351L109.854 164.716C109.918 161.462 112.597 158.783 115.915 158.783Z" fill="url(#paint12_linear_458_159)"/>
<path d="M81.7212 158.783C85.0385 158.783 87.654 161.526 87.654 164.844L87.1437 208.479C87.0799 211.796 84.4005 214.475 81.0832 214.411C77.7659 214.411 75.1504 211.668 75.1504 208.351L75.6607 164.716C75.6607 161.462 78.4039 158.783 81.7212 158.783Z" fill="url(#paint13_linear_458_159)"/>
<path fill-rule="evenodd" clip-rule="evenodd" d="M176.261 3.06211C174.794 0.510355 172.115 -0.701729 170.201 0.382767C168.287 1.46726 167.968 4.40178 169.435 6.95354C169.499 7.01734 169.499 7.08113 169.563 7.14492C168.606 7.33631 167.713 8.29321 167.33 9.56909C166.884 11.2277 167.522 12.8226 168.734 13.2053C169.946 13.5243 171.285 12.4398 171.796 10.7812C171.923 10.3346 171.987 9.88806 171.923 9.44151C173.135 10.0794 174.411 10.207 175.496 9.63289C176.389 9.12254 176.963 8.10183 177.155 6.95354C177.41 7.08113 177.665 7.20872 177.984 7.27251C179.642 7.71907 181.237 7.08113 181.62 5.86905C181.939 4.65696 180.855 3.31729 179.196 2.80694C178.111 2.48797 177.091 2.67935 176.389 3.12591C176.261 3.1897 176.261 3.12591 176.261 3.06211Z" fill="url(#paint14_linear_458_159)"/>
<path fill-rule="evenodd" clip-rule="evenodd" d="M89.8855 13.0778C89.0562 13.9709 87.9717 14.4174 86.8872 14.2261C85.6113 14.0347 84.6544 13.014 84.144 11.6743C83.8889 11.9933 83.6337 12.3122 83.2509 12.5036C81.8475 13.5243 80.125 13.5243 79.3595 12.5036C78.594 11.4829 79.1043 9.82427 80.5078 8.80357C81.5923 7.97425 82.932 7.84666 83.8251 8.29322C84.2716 5.42249 86.3768 3.31729 88.482 3.63626C90.5872 3.95523 91.9269 6.50699 91.5441 9.37771C92.3735 9.44151 93.2666 10.0157 93.9045 10.845C94.9252 12.2484 94.9252 13.9709 93.9045 14.7364C92.8838 15.5019 91.2252 14.9916 90.2045 13.5881C90.0769 13.4605 90.0131 13.2691 89.8855 13.0778Z" fill="url(#paint15_linear_458_159)"/>
<path d="M12.1202 126.248C12.6306 124.079 15.6927 124.079 16.203 126.248L17.9255 133.457C18.1168 134.222 18.691 134.797 19.4565 134.988L26.6652 136.71C28.8342 137.221 28.8342 140.283 26.6652 140.793L19.4565 142.516C18.691 142.707 18.1168 143.281 17.9255 144.047L16.203 151.255C15.6927 153.424 12.6306 153.424 12.1202 151.255L10.3978 144.047C10.2064 143.281 9.63224 142.707 8.86671 142.516L1.658 140.793C-0.510998 140.283 -0.510998 137.221 1.658 136.71L8.86671 134.988C9.63224 134.797 10.2064 134.222 10.3978 133.457L12.1202 126.248Z" fill="url(#paint16_linear_458_159)"/>
<path d="M233.741 198.144C234.252 195.975 237.314 195.975 237.824 198.144L239.547 205.353C239.738 206.118 240.312 206.692 241.078 206.884L248.286 208.606C250.455 209.117 250.455 212.179 248.286 212.689L241.078 214.411C240.312 214.603 239.738 215.177 239.547 215.942L237.824 223.151C237.314 225.32 234.252 225.32 233.741 223.151L232.019 215.942C231.827 215.177 231.253 214.603 230.488 214.411L223.279 212.689C221.11 212.179 221.11 209.117 223.279 208.606L230.488 206.884C231.253 206.692 231.827 206.118 232.019 205.353L233.741 198.144Z" fill="url(#paint17_linear_458_159)"/>
<path fill-rule="evenodd" clip-rule="evenodd" d="M42.7408 74.8941C45.165 74.8941 47.0788 72.9165 47.0788 70.5561C47.0788 68.1319 45.1012 66.2181 42.7408 66.2181C40.3166 66.2181 38.4028 68.1957 38.4028 70.5561C38.339 72.9165 40.3166 74.8941 42.7408 74.8941ZM42.7408 78.1476C46.9512 78.1476 50.3323 74.7665 50.3323 70.5561C50.3323 66.3457 46.9512 62.9646 42.7408 62.9646C38.5304 62.9646 35.1493 66.3457 35.1493 70.5561C35.0855 74.7027 38.5304 78.1476 42.7408 78.1476Z" fill="url(#paint18_linear_458_159)"/>
<path d="M25.1337 186.789C24.8147 185.513 26.0268 184.301 27.3027 184.683L36.0424 187.171C37.3183 187.554 37.7649 189.149 36.808 190.106L30.301 196.422C29.3441 197.378 27.7492 196.932 27.3665 195.592L25.1337 186.789Z" fill="url(#paint19_linear_458_159)"/>
<path d="M251.475 156.805C252.751 156.487 253.963 157.699 253.58 158.974L251.092 167.714C250.709 168.99 249.114 169.437 248.157 168.48L241.842 161.973C240.885 161.016 241.331 159.421 242.671 159.038L251.475 156.805Z" fill="url(#paint20_linear_458_159)"/>
<path fill-rule="evenodd" clip-rule="evenodd" d="M222.958 65.5164C224.872 65.5164 226.467 63.9215 226.467 62.0077C226.467 60.0939 224.872 58.499 222.958 58.499C221.044 58.499 219.45 60.0939 219.45 62.0077C219.45 63.9853 220.981 65.5164 222.958 65.5164ZM222.958 68.1319C226.339 68.1319 229.082 65.3888 229.082 62.0077C229.082 58.6266 226.339 55.8835 222.958 55.8835C219.577 55.8835 216.834 58.6266 216.834 62.0077C216.834 65.3888 219.577 68.1319 222.958 68.1319Z" fill="url(#paint21_linear_458_159)"/>
<path d="M44.591 113.808H220.343C223.916 113.808 226.85 116.743 226.85 120.315C226.85 123.888 223.916 126.822 220.343 126.822H44.591C41.0185 126.822 38.084 123.888 38.084 120.315C38.084 116.743 41.0185 113.808 44.591 113.808Z" fill="url(#paint22_linear_458_159)"/>
<path d="M86.1219 16.0761C84.3995 22.9658 89.9496 37.3833 98.5617 38.5315C114.446 40.6367 111.512 22.0727 102.07 25.5814C90.7789 29.728 102.07 47.5265 117.572 51.5455" stroke="#966569" stroke-width="1.5652" stroke-linecap="round" stroke-linejoin="round" stroke-dasharray="6.26 6.26"/>
<path d="M176.517 14.3536C185.959 32.7263 160.952 52.3748 153.998 56.0111" stroke="#966569" stroke-width="1.5652" stroke-linecap="round" stroke-linejoin="round" stroke-dasharray="6.26 6.26"/>
<path d="M167.458 265C179.005 265 188.319 255.686 188.319 244.139C188.319 232.593 179.005 223.279 167.458 223.279C155.912 223.279 146.598 232.593 146.598 244.139C146.598 255.686 155.912 265 167.458 265Z" fill="#DD6465"/>
<path d="M167.394 254.602C173.199 254.602 177.856 249.881 177.856 244.139C177.856 238.398 173.135 233.677 167.394 233.677C161.589 233.677 156.932 238.398 156.932 244.139C156.932 249.881 161.589 254.602 167.394 254.602Z" fill="url(#paint23_linear_458_159)"/>
</g>
<defs>
<linearGradient id="paint0_linear_458_159" x1="133.761" y1="-7.33853" x2="136.107" y2="394.875" gradientUnits="userSpaceOnUse">
<stop stop-color="white" stop-opacity="0"/>
<stop offset="1" stop-color="#F18583"/>
</linearGradient>
<linearGradient id="paint1_linear_458_159" x1="69.5675" y1="146.723" x2="116.143" y2="193.014" gradientUnits="userSpaceOnUse">
<stop stop-color="white"/>
<stop offset="1" stop-color="#F18583"/>
</linearGradient>
<linearGradient id="paint2_linear_458_159" x1="304.277" y1="122.377" x2="199.931" y2="124.322" gradientUnits="userSpaceOnUse">
<stop stop-color="white"/>
<stop offset="1" stop-color="#F18583"/>
</linearGradient>
<linearGradient id="paint3_linear_458_159" x1="75.6599" y1="68.4638" x2="202.375" y2="73.6111" gradientUnits="userSpaceOnUse">
<stop stop-color="#F2898E"/>
<stop offset="1" stop-color="#685B60"/>
</linearGradient>
<linearGradient id="paint4_linear_458_159" x1="109.521" y1="57.9138" x2="109.521" y2="81.1113" gradientUnits="userSpaceOnUse">
<stop stop-color="#F18181"/>
<stop offset="1" stop-color="#F7AFB0"/>
</linearGradient>
<linearGradient id="paint5_linear_458_159" x1="177.961" y1="57.9138" x2="177.961" y2="81.1113" gradientUnits="userSpaceOnUse">
<stop stop-color="#ED8C8E"/>
<stop offset="1" stop-color="#D76464"/>
</linearGradient>
<linearGradient id="paint6_linear_458_159" x1="115.927" y1="118.695" x2="226.364" y2="120.442" gradientUnits="userSpaceOnUse">
<stop offset="0.3922" stop-color="#E86A6B"/>
<stop offset="1" stop-color="#FBF5FF"/>
</linearGradient>
<linearGradient id="paint7_linear_458_159" x1="99.0644" y1="115.403" x2="140.548" y2="126.213" gradientUnits="userSpaceOnUse">
<stop stop-color="#FBF1FF"/>
<stop offset="1" stop-color="#F18181"/>
</linearGradient>
<linearGradient id="paint8_linear_458_159" x1="43.716" y1="161.299" x2="222.203" y2="163.432" gradientUnits="userSpaceOnUse">
<stop stop-color="#F18181"/>
<stop offset="1" stop-color="#E86565"/>
</linearGradient>
<linearGradient id="paint9_linear_458_159" x1="89.4674" y1="243.962" x2="119.762" y2="244.441" gradientUnits="userSpaceOnUse">
<stop stop-color="white"/>
<stop offset="1" stop-color="#F18181"/>
</linearGradient>
<linearGradient id="paint10_linear_458_159" x1="143.155" y1="186.704" x2="160.468" y2="186.976" gradientUnits="userSpaceOnUse">
<stop stop-color="#C36163"/>
<stop offset="1" stop-color="#C36163"/>
</linearGradient>
<linearGradient id="paint11_linear_458_159" x1="177.019" y1="186.848" x2="194.333" y2="187.12" gradientUnits="userSpaceOnUse">
<stop stop-color="#C36163"/>
<stop offset="1" stop-color="#C36163"/>
</linearGradient>
<linearGradient id="paint12_linear_458_159" x1="109.292" y1="186.56" x2="126.606" y2="186.832" gradientUnits="userSpaceOnUse">
<stop stop-color="#C36163"/>
<stop offset="1" stop-color="#C36163"/>
</linearGradient>
<linearGradient id="paint13_linear_458_159" x1="75.0661" y1="186.56" x2="92.3794" y2="186.832" gradientUnits="userSpaceOnUse">
<stop stop-color="#C36163"/>
<stop offset="1" stop-color="#C36163"/>
</linearGradient>
<linearGradient id="paint14_linear_458_159" x1="167.154" y1="6.61129" x2="181.642" y2="6.71336" gradientUnits="userSpaceOnUse">
<stop stop-color="#F2898E"/>
<stop offset="1" stop-color="#E86565"/>
</linearGradient>
<linearGradient id="paint15_linear_458_159" x1="82.881" y1="6.5318" x2="92.1672" y2="16.5291" gradientUnits="userSpaceOnUse">
<stop stop-color="#F2898E"/>
<stop offset="1" stop-color="#E86565"/>
</linearGradient>
<linearGradient id="paint16_linear_458_159" x1="-6.96299" y1="138.667" x2="35.271" y2="138.941" gradientUnits="userSpaceOnUse">
<stop stop-color="#F2898E"/>
<stop offset="1" stop-color="#E86565"/>
</linearGradient>
<linearGradient id="paint17_linear_458_159" x1="214.708" y1="210.56" x2="256.942" y2="210.834" gradientUnits="userSpaceOnUse">
<stop stop-color="#F2898E"/>
<stop offset="1" stop-color="#E86565"/>
</linearGradient>
<linearGradient id="paint18_linear_458_159" x1="35.0502" y1="70.4731" x2="50.3838" y2="70.573" gradientUnits="userSpaceOnUse">
<stop stop-color="#F2898E"/>
<stop offset="1" stop-color="#E86565"/>
</linearGradient>
<linearGradient id="paint19_linear_458_159" x1="23.2494" y1="195.263" x2="35.9228" y2="183.053" gradientUnits="userSpaceOnUse">
<stop stop-color="#F2898E"/>
<stop offset="1" stop-color="#E86565"/>
</linearGradient>
<linearGradient id="paint20_linear_458_159" x1="243" y1="154.901" x2="255.193" y2="167.59" gradientUnits="userSpaceOnUse">
<stop stop-color="#F2898E"/>
<stop offset="1" stop-color="#E86565"/>
</linearGradient>
<linearGradient id="paint21_linear_458_159" x1="216.788" y1="61.9957" x2="229.107" y2="62.0757" gradientUnits="userSpaceOnUse">
<stop stop-color="#F2898E"/>
<stop offset="1" stop-color="#E86565"/>
</linearGradient>
<linearGradient id="paint22_linear_458_159" x1="232.286" y1="137.908" x2="32.0505" y2="102.635" gradientUnits="userSpaceOnUse">
<stop stop-color="#E66565"/>
<stop offset="1" stop-color="#8E787E"/>
</linearGradient>
<linearGradient id="paint23_linear_458_159" x1="156.368" y1="243.962" x2="186.663" y2="244.441" gradientUnits="userSpaceOnUse">
<stop stop-color="white"/>
<stop offset="1" stop-color="#F18181"/>
</linearGradient>
<clipPath id="clip0_458_159">
<rect width="268.254" height="265" fill="white"/>
</clipPath>
</defs>
</svg>
