<svg width="22" height="22" viewBox="0 0 22 22" fill="none" xmlns="http://www.w3.org/2000/svg">
<path d="M21.689 10.8445C21.689 4.85512 16.8339 0 10.8445 0C4.85512 0 0 4.85512 0 10.8445C0 16.2571 3.96507 20.7443 9.14953 21.5572V13.9789H6.39584V10.8445H9.14953V8.45549C9.14953 5.73713 10.769 4.23658 13.2463 4.23658C14.4336 4.23658 15.6739 4.44865 15.6739 4.44865V7.1172H14.3067C12.9604 7.1172 12.5394 7.95263 12.5394 8.81055V10.8445H15.547L15.0666 13.9789H12.5394V21.5572C17.7239 20.7427 21.689 16.2571 21.689 10.8445Z" fill="#111111"/>
<path d="M15.0643 13.9792L15.5447 10.8447H12.5372V8.81078C12.5372 7.95286 12.9581 7.11743 14.3044 7.11743H15.6716V4.44889C15.6716 4.44889 14.4313 4.23682 13.2441 4.23682C10.7667 4.23682 9.14725 5.73737 9.14725 8.45572V10.8447H6.39355V13.9792H9.14725V21.5575C9.69992 21.6442 10.2654 21.6892 10.8422 21.6892C11.419 21.6892 11.9845 21.6442 12.5372 21.5575V13.9792H15.0643Z" fill="white"/>
</svg>
