<svg width="19" height="19" viewBox="0 0 19 19" fill="none" xmlns="http://www.w3.org/2000/svg">
<path d="M17.0433 10.3383C17.0054 10.3337 2.39587 10.3417 2.34432 10.3383H2.26696H1.54573C1.19278 14.1469 3.98241 17.536 7.87851 17.5365L11.1504 17.5365C12.8295 17.5352 14.4395 16.8676 15.6268 15.6802C16.8141 14.4929 17.4818 12.8829 17.4831 11.2038V10.3383H17.0433Z" fill="black"/>
<path d="M7.87914 18.2401C7.21468 18.2406 6.55357 18.1458 5.91602 17.9586V18.3632C5.91599 18.4468 5.93245 18.5297 5.96444 18.6069C5.99644 18.6842 6.04334 18.7544 6.10248 18.8135C6.16161 18.8727 6.23182 18.9196 6.30909 18.9516C6.38636 18.9836 6.46917 19 6.5528 19H12.4774C12.561 19 12.6439 18.9836 12.7211 18.9516C12.7984 18.9196 12.8686 18.8727 12.9277 18.8135C12.9869 18.7544 13.0338 18.6842 13.0658 18.6069C13.0978 18.5297 13.1142 18.4468 13.1142 18.3632V17.9586C11.8961 18.3968 9.18375 18.2005 7.87914 18.2401Z" fill="black"/>
<path d="M14.5668 8.46311C14.4806 8.47108 14.3944 8.44773 14.324 8.39733C14.2536 8.34694 14.2036 8.27287 14.1834 8.18868C13.9671 7.09373 12.3394 6.6313 11.2175 7.01017C11.1252 7.00978 11.0368 6.97312 10.9713 6.90808C10.0892 6.00554 8.01445 6.16659 7.42494 7.25643C7.39401 7.3094 7.34988 7.35344 7.29685 7.38426C7.24382 7.41509 7.18371 7.43163 7.12238 7.43229C6.03789 7.29844 4.76756 8.03942 4.80744 8.98382C4.80817 9.04157 4.79437 9.09857 4.76731 9.14959C4.74026 9.20061 4.70081 9.24402 4.65261 9.27581C4.58514 9.32349 4.50252 9.34477 4.42041 9.33561C4.00776 9.33643 3.60169 9.43916 3.23828 9.63468H16.5898C16.3541 8.96269 15.5308 8.46311 14.5668 8.46311Z" fill="black"/>
<path d="M6.60626 4.02511C6.55058 4.09851 6.5259 4.19082 6.53753 4.28221C6.54916 4.37361 6.59616 4.4568 6.66844 4.51392C6.74073 4.57104 6.83253 4.59754 6.92414 4.58773C7.01575 4.57791 7.09985 4.53256 7.15839 4.46142C7.42357 4.12702 7.56111 3.70918 7.54641 3.28265C7.53171 2.85613 7.36573 2.44875 7.07816 2.1334C6.8857 1.9226 6.78338 1.64485 6.79308 1.35958C6.80277 1.07431 6.92372 0.804154 7.13004 0.606905C7.19507 0.541644 7.23192 0.453479 7.23267 0.361347C7.23342 0.269214 7.198 0.180464 7.13403 0.114158C7.07005 0.0478526 6.98263 0.00928064 6.89053 0.00672713C6.79843 0.00417361 6.709 0.0378422 6.64145 0.100501C6.30266 0.424769 6.10431 0.868804 6.08886 1.33752C6.07342 1.80623 6.24212 2.26236 6.55884 2.60822C6.73355 2.80037 6.83425 3.04839 6.84293 3.30795C6.85162 3.56751 6.76773 3.8217 6.60626 4.02511Z" fill="black"/>
<path d="M9.30929 4.02512C9.25358 4.09852 9.22889 4.19084 9.24051 4.28224C9.25213 4.37365 9.29914 4.45685 9.37143 4.51398C9.44372 4.57111 9.53554 4.59761 9.62716 4.58779C9.71878 4.57796 9.80289 4.53259 9.86142 4.46143C10.1267 4.12711 10.2644 3.70925 10.2497 3.28269C10.235 2.85613 10.069 2.44872 9.78135 2.13341C9.58887 1.92263 9.48652 1.6449 9.49618 1.35963C9.50584 1.07435 9.62675 0.804187 9.83305 0.606916C9.89807 0.541696 9.93491 0.453583 9.93568 0.361496C9.93645 0.269409 9.90108 0.180693 9.83716 0.114397C9.77325 0.0481002 9.68588 0.00951085 9.59383 0.00691486C9.50178 0.00431887 9.41238 0.0379232 9.34482 0.100512C9.00595 0.424713 8.8075 0.86873 8.792 1.33746C8.77649 1.80618 8.94516 2.26234 9.26187 2.60823C9.43665 2.80034 9.5374 3.04837 9.54609 3.30796C9.55477 3.56754 9.47084 3.82175 9.30929 4.02512Z" fill="black"/>
<path d="M12.0126 4.0251C11.9569 4.0985 11.9323 4.1908 11.9439 4.28218C11.9555 4.37356 12.0025 4.45674 12.0748 4.51386C12.1471 4.57097 12.2389 4.59747 12.3305 4.58767C12.4221 4.57786 12.5062 4.53253 12.5647 4.46141C12.8299 4.12703 12.9675 3.70918 12.9528 3.28264C12.9381 2.85611 12.7721 2.44872 12.4845 2.13339C12.292 1.92261 12.1896 1.64488 12.1993 1.35961C12.209 1.07433 12.3299 0.804167 12.5362 0.606896C12.6012 0.54168 12.6381 0.453561 12.6389 0.361464C12.6396 0.269367 12.6043 0.180638 12.5403 0.114335C12.4764 0.0480311 12.389 0.00944111 12.297 0.00685295C12.2049 0.00426479 12.1155 0.0378848 12.048 0.100492C11.7091 0.424693 11.5106 0.868709 11.4951 1.33743C11.4796 1.80616 11.6483 2.26232 11.965 2.60821C12.1398 2.80032 12.2405 3.04833 12.2492 3.30791C12.258 3.56748 12.1741 3.82169 12.0126 4.0251Z" fill="black"/>
</svg>
