<svg width="17" height="17" viewBox="0 0 17 17" fill="none" xmlns="http://www.w3.org/2000/svg">
<path d="M6.92102 13.7697C6.46998 13.6413 6.06858 13.379 5.76998 13.0174C5.71636 12.9617 5.64063 12.8832 5.59643 12.8448C5.53867 12.8327 5.42937 12.8209 5.3533 12.8127C4.89119 12.7969 4.44474 12.6413 4.07292 12.3664C3.8765 12.2036 3.71587 12.002 3.60109 11.7742L2.22002 14.1667C2.15325 14.2822 2.12048 14.4143 2.1255 14.5476C2.13052 14.681 2.17311 14.8102 2.24838 14.9204C2.32364 15.0306 2.42851 15.1172 2.5509 15.1704C2.67329 15.2236 2.80821 15.2411 2.94011 15.2209L4.17311 15.0335L4.62758 16.1959C4.67567 16.3204 4.75822 16.4287 4.86558 16.508C4.97294 16.5873 5.10066 16.6344 5.2338 16.6438C5.25213 16.6452 5.27046 16.6459 5.28881 16.6459C5.41299 16.6462 5.53503 16.6136 5.64251 16.5513C5.74998 16.4891 5.83904 16.3995 5.90063 16.2917L7.33337 13.8099C7.32275 13.8101 7.31287 13.8122 7.30207 13.8122C7.17385 13.8124 7.04602 13.7981 6.92102 13.7697Z" fill="black"/>
<path d="M13.3978 11.7739C13.2832 12.0019 13.1227 12.2037 12.9264 12.3668C12.5545 12.6416 12.1081 12.7972 11.646 12.8131C11.5692 12.8213 11.4596 12.8331 11.4021 12.8452C11.3579 12.8836 11.2814 12.9628 11.2286 13.0182C10.9306 13.3787 10.5304 13.6404 10.0807 13.769C9.95441 13.7981 9.82523 13.8127 9.69566 13.8125C9.68542 13.8125 9.67614 13.8105 9.66602 13.8103L11.0985 16.2917C11.1601 16.3995 11.2491 16.4891 11.3566 16.5513C11.4641 16.6135 11.5861 16.6462 11.7103 16.6459C11.7286 16.6459 11.747 16.6452 11.7653 16.6438C11.8985 16.6343 12.0263 16.5872 12.1338 16.5078C12.2412 16.4284 12.3238 16.3201 12.372 16.1955L12.8261 15.0334L14.0586 15.2209C14.1905 15.2412 14.3255 15.2238 14.448 15.1706C14.5704 15.1175 14.6754 15.0308 14.7507 14.9206C14.826 14.8104 14.8687 14.6812 14.8737 14.5478C14.8788 14.4144 14.846 14.2823 14.7792 14.1667L13.3978 11.7739Z" fill="black"/>
<path d="M8.50065 3.1875C7.80018 3.1875 7.11543 3.39522 6.53301 3.78438C5.95058 4.17354 5.49664 4.72667 5.22858 5.37383C4.96052 6.02098 4.89038 6.7331 5.02704 7.42011C5.16369 8.10713 5.50101 8.73819 5.99632 9.2335C6.49163 9.72881 7.12269 10.0661 7.80971 10.2028C8.49672 10.3394 9.20884 10.2693 9.85599 10.0012C10.5031 9.73318 11.0563 9.27924 11.4454 8.69681C11.8346 8.11439 12.0423 7.42964 12.0423 6.72917C12.0412 5.7902 11.6677 4.89 11.0038 4.22605C10.3398 3.5621 9.43962 3.18861 8.50065 3.1875ZM10.212 5.86312L8.79532 7.98812C8.76624 8.03169 8.72786 8.06826 8.68295 8.09521C8.63803 8.12216 8.5877 8.1388 8.53557 8.14396C8.52382 8.14512 8.51206 8.14583 8.50065 8.14583C8.40673 8.14581 8.31666 8.10849 8.25026 8.04206L7.18776 6.97956C7.12324 6.91277 7.08754 6.8233 7.08835 6.73044C7.08916 6.63758 7.12641 6.54875 7.19207 6.48309C7.25774 6.41742 7.34657 6.38017 7.43943 6.37937C7.53229 6.37856 7.62175 6.41426 7.68855 6.47877L8.44565 7.23587L9.62262 5.47021C9.67476 5.39214 9.75576 5.33797 9.84783 5.3196C9.93989 5.30122 10.0355 5.32016 10.1136 5.37223C10.1917 5.4243 10.2459 5.50526 10.2644 5.59731C10.2828 5.68936 10.264 5.78497 10.212 5.86312Z" fill="black"/>
<path d="M9.92021 13.0789C10.2346 12.9773 10.5121 12.7853 10.718 12.5269C10.8236 12.4021 10.9478 12.2942 11.0861 12.207C11.2409 12.1492 11.4038 12.1161 11.5689 12.1088C11.894 12.1035 12.2102 12.0025 12.4782 11.8183C12.7138 11.5897 12.8792 11.2985 12.9548 10.979C12.9982 10.8158 13.0661 10.6601 13.1561 10.5172C13.2703 10.398 13.4023 10.2971 13.5473 10.2181C13.8397 10.0689 14.0824 9.83796 14.2459 9.55331C14.3599 9.24743 14.3851 8.91554 14.3186 8.59596C14.288 8.42597 14.2835 8.25232 14.3051 8.08097C14.3565 7.92501 14.4313 7.77773 14.5268 7.64414C14.7279 7.37868 14.8487 7.06117 14.875 6.72918C14.8486 6.39743 14.7279 6.08014 14.5271 5.81472C14.4314 5.68105 14.3565 5.53365 14.305 5.37754C14.2834 5.2063 14.288 5.03278 14.3185 4.8629C14.385 4.54334 14.36 4.2115 14.2462 3.90555C14.0826 3.62117 13.8401 3.39036 13.5479 3.24114C13.4028 3.1619 13.2707 3.06075 13.1564 2.94126C13.0663 2.79836 12.9984 2.6427 12.9547 2.47954C12.8794 2.16012 12.7141 1.86895 12.4785 1.64048C12.2106 1.45633 11.8943 1.35531 11.5692 1.35006C11.4041 1.34276 11.2412 1.30962 11.0864 1.25185C10.9482 1.16442 10.8242 1.05656 10.7184 0.931935C10.5124 0.673261 10.2348 0.480948 9.92021 0.378975C9.60195 0.333948 9.27747 0.38338 8.98705 0.521137C8.83239 0.589024 8.66805 0.632238 8.5 0.649204C8.33209 0.6323 8.16788 0.58912 8.01337 0.521243C7.72291 0.383262 7.39822 0.333985 7.0799 0.379577C6.76549 0.481178 6.48796 0.67313 6.28196 0.931475C6.17635 1.05629 6.05224 1.16418 5.91395 1.25139C5.75912 1.30916 5.5962 1.3423 5.43111 1.3496C5.10604 1.35485 4.78975 1.45587 4.52182 1.64002C4.28618 1.86865 4.12081 2.15989 4.04522 2.4794C4.00176 2.64257 3.93389 2.79823 3.84391 2.94112C3.72966 3.06035 3.59772 3.16125 3.45274 3.24029C3.16031 3.38944 2.91757 3.62041 2.75407 3.90506C2.64005 4.21094 2.61487 4.54283 2.68143 4.86241C2.71195 5.0324 2.7165 5.20604 2.69493 5.3774C2.64348 5.53336 2.56873 5.68063 2.47322 5.81423C2.27212 6.07968 2.15128 6.39719 2.125 6.72918C2.15143 7.06094 2.27215 7.37822 2.47293 7.64364C2.56862 7.77731 2.64349 7.92471 2.695 8.08082C2.71659 8.25212 2.71204 8.42571 2.6815 8.59564C2.61499 8.9152 2.64005 9.24704 2.75379 9.55299C2.91736 9.83737 3.15994 10.0682 3.4521 10.2174C3.59725 10.2966 3.72931 10.3978 3.84363 10.5173C3.93366 10.6602 4.00163 10.8158 4.04526 10.979C4.12063 11.2984 4.2859 11.5896 4.5215 11.8181C4.78943 12.0022 5.10573 12.1032 5.43079 12.1085C5.59588 12.1158 5.7588 12.1489 5.91363 12.2067C6.05176 12.2941 6.17584 12.402 6.28164 12.5266C6.48767 12.7852 6.76525 12.9775 7.07979 13.0794C7.39805 13.1243 7.72249 13.0749 8.01295 12.9372C8.16761 12.8693 8.33195 12.8261 8.5 12.8092C8.66791 12.8261 8.83212 12.8692 8.98663 12.9371C9.21138 13.0339 9.45137 13.0904 9.69567 13.1042C9.77124 13.1044 9.84658 13.096 9.92021 13.0789ZM8.5 10.9792C7.65943 10.9792 6.83774 10.7299 6.13883 10.2629C5.43992 9.79593 4.89518 9.13217 4.57351 8.35559C4.25184 7.579 4.16768 6.72447 4.33166 5.90005C4.49565 5.07563 4.90042 4.31835 5.4948 3.72398C6.08917 3.12961 6.84645 2.72483 7.67087 2.56085C8.49529 2.39686 9.34982 2.48102 10.1264 2.80269C10.903 3.12437 11.5667 3.6691 12.0337 4.36801C12.5007 5.06692 12.75 5.88861 12.75 6.72918C12.7488 7.85598 12.3006 8.93627 11.5038 9.73303C10.7071 10.5298 9.62679 10.978 8.5 10.9792Z" fill="black"/>
</svg>
