<svg width="23" height="22" viewBox="0 0 23 22" fill="none" xmlns="http://www.w3.org/2000/svg">
<path d="M11.5779 21.689C17.5671 21.689 22.4224 16.8337 22.4224 10.8445C22.4224 4.85524 17.5671 0 11.5779 0C5.58864 0 0.733398 4.85524 0.733398 10.8445C0.733398 16.8337 5.58864 21.689 11.5779 21.689Z" fill="#111111"/>
<g clip-path="url(#clip0_116_402)">
<path d="M7.99094 12.1384L7.53237 13.8503L5.8563 13.8858C5.35541 12.9567 5.07129 11.8937 5.07129 10.7642C5.07129 9.67189 5.33693 8.64184 5.8078 7.73486H5.80816L7.30033 8.00843L7.95399 9.49164C7.81718 9.89049 7.74261 10.3186 7.74261 10.7642C7.74266 11.2477 7.83025 11.711 7.99094 12.1384Z" fill="white"/>
<path d="M18.1299 9.53369C18.2055 9.93215 18.2449 10.3437 18.2449 10.7642C18.2449 11.2358 18.1954 11.6958 18.1009 12.1396C17.7803 13.6495 16.9424 14.968 15.7817 15.901L15.7813 15.9007L13.9019 15.8048L13.6359 14.1442C14.406 13.6926 15.0079 12.9857 15.325 12.1396H11.8027V9.53369H15.3764H18.1299Z" fill="white"/>
<path d="M15.7819 15.9009L15.7822 15.9012C14.6534 16.8086 13.2194 17.3515 11.6585 17.3515C9.14996 17.3515 6.96901 15.9494 5.85645 13.886L7.99108 12.1387C8.54735 13.6233 9.97948 14.6801 11.6585 14.6801C12.3801 14.6801 13.0562 14.485 13.6364 14.1444L15.7819 15.9009Z" fill="white"/>
<path d="M15.8626 5.6937L13.7287 7.4407C13.1283 7.0654 12.4185 6.84859 11.6581 6.84859C9.94115 6.84859 8.48223 7.9539 7.95383 9.49174L5.80798 7.73496H5.80762C6.90389 5.62132 9.11235 4.17725 11.6581 4.17725C13.2564 4.17725 14.7218 4.74656 15.8626 5.6937Z" fill="white"/>
</g>
<defs>
<clipPath id="clip0_116_402">
<rect width="13.174" height="13.174" fill="white" transform="translate(5.07129 4.17725)"/>
</clipPath>
</defs>
</svg>
