<svg width="30" height="30" viewBox="0 0 30 30" fill="none" xmlns="http://www.w3.org/2000/svg">
<rect width="30" height="30" rx="5" fill="#DB5353"/>
<path d="M18.5565 15.0708L13.6613 10.1757C13.5481 10.0624 13.397 10 13.2358 10C13.0747 10 12.9235 10.0624 12.8103 10.1757L12.4498 10.5361C12.2152 10.771 12.2152 11.1527 12.4498 11.3872L16.5604 15.4977L12.4453 19.6128C12.332 19.7262 12.2695 19.8772 12.2695 20.0383C12.2695 20.1995 12.332 20.3506 12.4453 20.464L12.8058 20.8243C12.9191 20.9376 13.0701 21 13.2313 21C13.3924 21 13.5436 20.9376 13.6568 20.8243L18.5565 15.9247C18.67 15.8111 18.7323 15.6593 18.7319 15.498C18.7323 15.336 18.67 15.1844 18.5565 15.0708Z" fill="white"/>
</svg>
