<svg width="22" height="22" viewBox="0 0 22 22" fill="none" xmlns="http://www.w3.org/2000/svg">
<path d="M10.9998 21.689C16.989 21.689 21.8442 16.8337 21.8442 10.8445C21.8442 4.85524 16.989 0 10.9998 0C5.01052 0 0.155273 4.85524 0.155273 10.8445C0.155273 16.8337 5.01052 21.689 10.9998 21.689Z" fill="#111111"/>
<path d="M10.8404 5.24564C12.6638 5.24564 12.8791 5.25207 13.5989 5.28581C14.264 5.31633 14.6255 5.42719 14.8665 5.52037C15.1846 5.64408 15.4127 5.79189 15.6521 6.03127C15.8915 6.27065 16.0393 6.49718 16.163 6.81689C16.2562 7.05788 16.367 7.41936 16.3976 8.08449C16.4297 8.80424 16.4377 9.02113 16.4377 10.843C16.4377 12.6665 16.4313 12.8818 16.3976 13.6015C16.367 14.2666 16.2562 14.6281 16.163 14.8691C16.0393 15.1872 15.8915 15.4154 15.6521 15.6547C15.4127 15.8941 15.1862 16.0419 14.8665 16.1656C14.6255 16.2588 14.264 16.3697 13.5989 16.4002C12.8791 16.4323 12.6638 16.4404 10.8404 16.4404C9.01688 16.4404 8.8016 16.4339 8.08185 16.4002C7.41672 16.3697 7.05523 16.2588 6.81424 16.1656C6.49614 16.0419 6.268 15.8941 6.02862 15.6547C5.78924 15.4154 5.64143 15.1888 5.51773 14.8691C5.42454 14.6281 5.31368 14.2666 5.28316 13.6015C5.25103 12.8818 5.24299 12.6649 5.24299 10.843C5.24299 9.01953 5.24942 8.80424 5.28316 8.08449C5.31368 7.41936 5.42454 7.05788 5.51773 6.81689C5.64143 6.49879 5.78924 6.27065 6.02862 6.03127C6.268 5.79189 6.49453 5.64408 6.81424 5.52037C7.05523 5.42719 7.41672 5.31633 8.08185 5.28581C8.8016 5.25368 9.01688 5.24564 10.8404 5.24564ZM10.8404 4.0166C8.98636 4.0166 8.7534 4.02464 8.02561 4.05837C7.29943 4.09211 6.80299 4.20618 6.36761 4.37648C5.91937 4.5516 5.53861 4.78455 5.15785 5.16371C4.77869 5.54286 4.54413 5.92362 4.37062 6.37347C4.20192 6.80725 4.08625 7.30369 4.05252 8.03147C4.01878 8.75926 4.01074 8.99221 4.01074 10.8462C4.01074 12.7002 4.01878 12.9332 4.05252 13.661C4.08625 14.3871 4.20032 14.8836 4.37062 15.319C4.54574 15.7672 4.77869 16.148 5.15785 16.5287C5.53701 16.9079 5.91776 17.1424 6.36761 17.316C6.80139 17.4847 7.29783 17.6003 8.02561 17.6341C8.7534 17.6678 8.98636 17.6758 10.8404 17.6758C12.6944 17.6758 12.9273 17.6678 13.6551 17.6341C14.3813 17.6003 14.8777 17.4863 15.3131 17.316C15.7614 17.1408 16.1421 16.9079 16.5229 16.5287C16.902 16.1496 17.1366 15.7688 17.3101 15.319C17.4788 14.8852 17.5945 14.3888 17.6282 13.661C17.6619 12.9332 17.67 12.7002 17.67 10.8462C17.67 8.99221 17.6619 8.75926 17.6282 8.03147C17.5945 7.30529 17.4804 6.80886 17.3101 6.37347C17.135 5.92523 16.902 5.54447 16.5229 5.16371C16.1437 4.78455 15.763 4.54999 15.3131 4.37648C14.8793 4.20779 14.3829 4.09211 13.6551 4.05837C12.9273 4.02303 12.6944 4.0166 10.8404 4.0166Z" fill="white"/>
<path d="M10.8405 7.3374C8.9046 7.3374 7.33496 8.90704 7.33496 10.843C7.33496 12.7789 8.9046 14.3486 10.8405 14.3486C12.7765 14.3486 14.3461 12.7789 14.3461 10.843C14.3461 8.90704 12.7765 7.3374 10.8405 7.3374ZM10.8405 13.1195C9.58419 13.1195 8.56401 12.1009 8.56401 10.843C8.56401 9.58502 9.58258 8.56644 10.8405 8.56644C12.0985 8.56644 13.1171 9.58502 13.1171 10.843C13.1171 12.1009 12.0969 13.1195 10.8405 13.1195Z" fill="white"/>
<path d="M14.4854 8.01811C14.9379 8.01811 15.3047 7.65128 15.3047 7.19875C15.3047 6.74623 14.9379 6.37939 14.4854 6.37939C14.0329 6.37939 13.666 6.74623 13.666 7.19875C13.666 7.65128 14.0329 8.01811 14.4854 8.01811Z" fill="white"/>
</svg>
