<svg width="15" height="15" viewBox="0 0 15 15" fill="none" xmlns="http://www.w3.org/2000/svg">
<g clip-path="url(#clip0_464_794)">
<path d="M14.25 6.75001H8.25004C8.25004 6.75001 7.91405 6.75 7.5 6.75C7.08609 6.75 6.75 6.75001 6.75 6.75001L0.749954 6.75001C0.336044 6.75001 0 7.08605 0 7.49996C0 7.91401 0.336044 8.25005 0.749954 8.25005H6.75C6.75 8.25005 7.032 8.25005 7.44591 8.25005C7.85996 8.25005 8.25004 8.25005 8.25004 8.25005L14.25 8.25005C14.664 8.25005 15 7.91401 15 7.49996C15 7.08605 14.664 6.75001 14.25 6.75001Z" fill="#DB5353"/>
</g>
<defs>
<clipPath id="clip0_464_794">
<rect width="15" height="15" fill="white"/>
</clipPath>
</defs>
</svg>
