<svg width="48" height="40" viewBox="0 0 48 40" fill="none" xmlns="http://www.w3.org/2000/svg">
<path fill-rule="evenodd" clip-rule="evenodd" d="M0 3.33333C0 2.44927 0.361235 1.60143 1.00419 0.9763C1.64719 0.3512 2.51925 0 3.42857 0H44.5714C45.4807 0 46.3529 0.3512 46.9958 0.9763C47.6386 1.60143 48 2.44927 48 3.33333C48 4.2174 47.6386 5.06523 46.9958 5.69037C46.3529 6.31547 45.4807 6.66667 44.5714 6.66667H3.42857C2.51925 6.66667 1.64719 6.31547 1.00419 5.69037C0.361235 5.06523 0 4.2174 0 3.33333ZM0 20C0 19.1159 0.361235 18.2681 1.00419 17.643C1.64719 17.0179 2.51925 16.6667 3.42857 16.6667H24C24.9093 16.6667 25.7815 17.0179 26.4243 17.643C27.0672 18.2681 27.4286 19.1159 27.4286 20C27.4286 20.884 27.0672 21.732 26.4243 22.357C25.7815 22.982 24.9093 23.3333 24 23.3333H3.42857C2.51925 23.3333 1.64719 22.982 1.00419 22.357C0.361235 21.732 0 20.884 0 20ZM0 36.6667C0 35.7827 0.361235 34.9347 1.00419 34.3097C1.64719 33.6847 2.51925 33.3333 3.42857 33.3333H44.5714C45.4807 33.3333 46.3529 33.6847 46.9958 34.3097C47.6386 34.9347 48 35.7827 48 36.6667C48 37.5507 47.6386 38.3987 46.9958 39.0237C46.3529 39.6487 45.4807 40 44.5714 40H3.42857C2.51925 40 1.64719 39.6487 1.00419 39.0237C0.361235 38.3987 0 37.5507 0 36.6667Z" fill="white"/>
</svg>
