<svg width="14" height="14" viewBox="0 0 14 14" fill="none" xmlns="http://www.w3.org/2000/svg">
<g clip-path="url(#clip0_459_203)">
<path d="M0.420009 6.15088C0.191278 6.15088 0.00585938 6.33632 0.00585938 6.56503V12.6479C0.00585938 12.8766 0.191305 13.062 0.420009 13.062H2.91521V6.15088H0.420009Z" fill="#464646"/>
<path d="M13.9939 8.43794C13.9939 7.9122 13.7114 7.45119 13.2903 7.1987C13.4516 6.9657 13.5463 6.68305 13.5463 6.37879C13.5463 5.58273 12.8986 4.93507 12.1025 4.93507H9.05484C9.14825 4.51178 9.276 3.87662 9.36495 3.2117C9.59644 1.48135 9.43823 0.521722 8.8671 0.191709C8.51103 -0.0139981 8.12712 -0.0557248 7.78609 0.0741036C7.52263 0.174455 7.16683 0.421178 6.96408 1.02671L6.16307 3.124C5.75699 4.12689 4.51342 5.17977 3.74219 5.76194V13.2453C5.17156 13.7462 6.66311 14 8.18479 14H11.5056C12.3016 14 12.9493 13.3524 12.9493 12.5563C12.9493 12.2775 12.8699 12.0169 12.7325 11.796C13.2138 11.5616 13.5462 11.0674 13.5462 10.4971C13.5462 10.1928 13.4516 9.91024 13.2902 9.67722C13.7114 9.42473 13.9939 8.96368 13.9939 8.43794Z" fill="#464646"/>
</g>
<defs>
<clipPath id="clip0_459_203">
<rect width="14" height="14" fill="white"/>
</clipPath>
</defs>
</svg>
