<svg width="22" height="22" viewBox="0 0 22 22" fill="none" xmlns="http://www.w3.org/2000/svg">
<path d="M10.78 21.56C16.7336 21.56 21.56 16.7336 21.56 10.78C21.56 4.82637 16.7336 0 10.78 0C4.82637 0 0 4.82637 0 10.78C0 16.7336 4.82637 21.56 10.78 21.56Z" fill="#010201"/>
<path d="M7.90406 15.108C7.91683 15.1192 7.92961 15.132 7.94239 15.1432C8.06216 15.2278 8.1484 15.3492 8.26179 15.4402C8.61634 15.7245 9.0156 15.8794 9.47235 15.9081C10.5551 15.9752 11.499 15.1607 11.622 14.0891C11.6283 14.0364 11.6252 13.9837 11.6252 13.9326C11.6252 10.7082 11.6252 7.48378 11.6252 4.25776C11.6252 4.04057 11.6252 4.04057 11.8424 4.04057C12.3326 4.04057 12.8229 4.04057 13.3132 4.04057C13.3595 4.04057 13.4074 4.03258 13.449 4.06133C13.4522 4.06453 13.4538 4.06612 13.457 4.06772C13.4809 4.09167 13.4873 4.12361 13.4937 4.15396C13.6821 5.02275 14.1389 5.71586 14.856 6.23969C14.9007 6.27163 14.939 6.31315 14.9805 6.34828C15.0125 6.37543 15.0428 6.40099 15.0748 6.42814C15.1897 6.49361 15.2728 6.59902 15.3734 6.68366C15.7695 7.01425 16.2182 7.24262 16.7181 7.37039C16.7628 7.38157 16.8123 7.38157 16.8443 7.42309C16.8459 7.42629 16.8491 7.42788 16.8523 7.42948C16.881 7.45982 16.8762 7.49975 16.8762 7.53648C16.8762 8.10502 16.8778 8.67357 16.8762 9.24211C16.8762 9.37147 16.8586 9.37946 16.7277 9.37946C16.3109 9.37946 15.902 9.32357 15.498 9.23094C14.8017 9.07123 14.1597 8.78856 13.564 8.39728C13.5336 8.37652 13.5001 8.3334 13.4665 8.34778C13.425 8.36694 13.4458 8.42124 13.4458 8.45957C13.4442 10.0598 13.4522 11.66 13.4426 13.2619C13.4362 14.3814 13.0801 15.3811 12.347 16.2339C11.5693 17.1395 10.5807 17.6649 9.39409 17.8102C8.47899 17.922 7.6118 17.7559 6.78773 17.3503C6.65517 17.2848 6.52741 17.2081 6.40764 17.1187C6.36931 17.0852 6.33257 17.0516 6.29424 17.0181C6.00997 16.7833 5.81354 16.4799 5.62828 16.1701C5.34401 15.6909 5.16035 15.1735 5.07091 14.6241C5.01981 14.3095 4.99266 13.9933 5.01023 13.6755C5.06612 12.6502 5.41108 11.7367 6.07226 10.9462C6.62643 10.2834 7.31954 9.82025 8.13563 9.54076C8.47579 9.42418 8.82714 9.35231 9.18807 9.32676C9.25515 9.32197 9.32063 9.306 9.3877 9.31079C9.41964 9.31239 9.45159 9.30919 9.48033 9.33155C9.48353 9.33475 9.48672 9.33634 9.48991 9.33794C9.50908 9.36988 9.50429 9.40661 9.50429 9.44015C9.50429 10.0167 9.50429 10.5948 9.50429 11.1713C9.50429 11.1921 9.50429 11.2129 9.50269 11.232C9.4995 11.2895 9.47075 11.3087 9.41645 11.2943C9.25835 11.2496 9.09704 11.2288 8.93414 11.2208C8.68181 11.2081 8.43268 11.2432 8.19472 11.331C7.40099 11.6233 6.92028 12.1918 6.81967 13.0287C6.72065 13.8528 7.04645 14.5123 7.73158 14.9883C7.79067 15.025 7.84976 15.0617 7.90406 15.108Z" fill="white"/>
</svg>
