<svg width="1920" height="884" viewBox="0 0 1920 884" fill="none" xmlns="http://www.w3.org/2000/svg">
<rect width="1920" height="884" fill="url(#paint0_radial_139_1404)"/>
<mask id="mask0_139_1404" style="mask-type:luminance" maskUnits="userSpaceOnUse" x="0" y="3" width="1920" height="881">
<path d="M1920 3.4306H0V884H1920V3.4306Z" fill="white"/>
</mask>
<g mask="url(#mask0_139_1404)">
<path d="M44.7952 884.237C19.8727 881.921 -5.69706 888.928 -31.2668 886.612C-15.925 774.151 -10.811 664.006 -28.7422 549.169C-46.6087 441.34 -69.5892 335.885 -73.279 227.7C-74.25 198.248 -74.5089 168.322 -74.7031 138.336C-74.7031 -313.824 -74.7031 -800.72 -74.7031 -800.72H-10.811C-10.811 -800.72 -10.811 -313.764 -10.811 138.396C-10.4226 168.322 -9.84001 198.189 -7.76853 227.403C-3.17244 263.267 -3.17244 298.418 4.46613 333.57C35.1499 488.248 73.4722 635.861 57.5477 787.689C50.7507 848.373 44.7952 884.237 44.7952 884.237Z" fill="#FEC754"/>
<path d="M194.848 880.259C170.508 881.921 147.528 881.921 122.023 881.921C145.003 788.164 150.117 692.091 134.775 596.018C109.206 439.024 53.0167 293.727 55.5413 136.674C55.5413 106.629 55.5413 76.5241 55.5413 46.5385C55.5413 16.5528 55.5413 -13.3735 55.5413 -43.0623C55.5413 -73.226 55.5413 -103.212 55.5413 -132.901C55.5413 -489.047 55.5413 -800.72 55.5413 -800.72H119.498C119.498 -800.72 119.498 -776.672 119.498 -734.276C119.498 -691.881 119.498 -631.197 119.498 -557.925C119.498 -484.653 119.498 -398.734 119.498 -305.986C119.498 -278.138 119.498 -249.696 119.498 -220.839C118.203 -117.047 117.556 -13.611 117.556 89.9435C117.556 124.442 117.945 158.881 120.987 192.845C122.023 211.727 124.612 230.431 127.137 249.194C160.345 422.636 229.351 586.637 212.067 759.425C203.781 834.597 194.848 880.259 194.848 880.259Z" fill="#FEC754"/>
<path d="M328.523 879.665C308.585 879.546 285.605 879.546 265.149 879.546C323.927 670.953 244.693 471.801 193.618 260.832C183.39 218.674 180.866 178.832 180.089 137.683C179.118 99.5034 179.247 61.0861 179.571 22.6689C180.154 -54.1657 181.513 -131 183.325 -207.657C184.102 -240.492 185.009 -273.328 185.98 -306.105C185.915 -432.876 185.915 -557.094 186.368 -683.152C185.98 -756.958 185.915 -800.779 185.915 -800.779L250.39 -800.423C254.856 -599.252 259.97 -397.724 241.197 -197.681C238.867 -161.817 237.313 -125.834 236.278 -89.8516C235.242 -53.8688 234.724 -17.8267 234.595 18.2155C234.465 54.2577 234.724 90.2999 235.371 126.342C239.579 277.28 303.406 413.195 334.09 563.183C351.957 652.249 351.957 736.625 339.139 823.256C332.601 859.358 328.523 879.665 328.523 879.665Z" fill="#FEC754"/>
<path d="M449.51 883.228C428.601 879.547 395.393 881.922 397.982 881.922C449.057 640.552 359.66 436.649 295.768 214.043C288.129 185.898 285.54 157.812 283.08 129.667C281.332 100.75 280.944 71.9523 281.591 43.1542C282.174 14.356 283.792 -14.3828 285.993 -43.1215C288.194 -71.8602 290.977 -100.48 294.149 -129.041C334.22 -350.757 341.858 -575.738 318.878 -798.345C341.858 -798.345 380.18 -803.035 382.77 -796.029C418.567 -671.811 428.731 -547.593 408.34 -418.744C390.473 -313.289 352.151 -214.841 338.492 -108.852C334.543 -78.6886 331.371 -48.3466 329.3 -17.8266C327.228 12.6935 326.128 43.2729 326.387 74.0898C326.646 104.907 328.394 135.843 332.795 166.956C354.675 281.971 410.864 385.11 446.662 499.946C479.87 607.775 482.46 717.921 460.903 827.947C453.783 863.277 449.51 883.228 449.51 883.228Z" fill="#FEC754"/>
<path d="M575.805 893.144C556.32 893.619 533.34 886.613 512.949 886.613C594.707 661.631 489.968 439.025 397.982 230.431C380.115 185.898 372.412 136.674 369.564 89.944C365.874 42.0856 366.068 -6.24768 372.412 -55.4717C377.526 -97.6298 382.64 -137.472 400.506 -177.315C495.018 -376.526 538.454 -587.435 466.923 -796.029C495.018 -796.029 535.929 -805.41 541.043 -789.022C589.593 -678.877 630.44 -552.343 576.841 -435.132C518.063 -306.223 423.552 -191.387 408.21 -50.7809C405.62 -23.8234 403.096 1.94641 402.125 27.7162C401.154 53.4861 401.801 79.2559 405.62 106.213C420.962 246.819 510.359 364.031 569.138 492.88C612.574 591.328 635.554 699.098 600.598 801.228C585.839 859.24 575.805 893.144 575.805 893.144Z" fill="#FEC754"/>
<path d="M725.08 905.732C699.446 905.316 673.876 900.625 648.306 900.625C694.267 785.789 732.589 659.255 668.762 542.044C597.231 410.82 489.903 300.674 451.775 160.009C442.647 125.273 437.857 91.1904 436.239 57.5233C434.944 29.4971 435.915 1.82721 438.893 -25.4865C451.581 -177.434 566.548 -292.27 650.831 -421.178C730.065 -543.021 673.811 -674.305 630.375 -793.773C658.469 -796.088 696.792 -798.464 704.495 -786.766C781.14 -678.936 809.234 -543.021 719.837 -423.494C635.554 -306.342 528.225 -217.276 482.718 -87.5953C471.195 -43.6559 464.333 0.105286 464.333 43.4509C464.333 86.7965 470.742 129.548 487.702 171.766C500.131 204.602 517.997 232.687 535.864 263.148C648.306 436.59 878.24 598.275 762.237 816.784C739.969 873.133 725.08 905.732 725.08 905.732Z" fill="#FEC754"/>
<path d="M1042.21 913.57C1018.84 917.014 995.798 912.323 972.817 912.323C1090.37 767.026 1105.65 549.051 919.153 436.59C885.103 416.58 850.276 396.332 816.291 375.194C721.78 316.232 621.313 249.729 569.721 140.89C560.593 121.592 549.912 98.5537 545.963 66.2523C536.707 -9.15723 571.986 -70.4348 592.119 -102.439C729.03 -320.117 973.27 -449.204 973.141 -636.6C973.141 -685.29 959.935 -736.71 929.381 -791.457C949.837 -789.141 977.931 -800.838 983.045 -791.457C1052.05 -671.93 1036.71 -526.633 942.198 -411.796C829.756 -273.506 666.239 -186.815 596.067 -29.7613C579.237 13.9406 574.187 59.2457 582.862 103.66C589.659 133.408 602.605 162.741 625.068 191.361C655.169 229.719 699.576 254.36 737.769 277.221C774.862 299.428 809.624 324.723 846.328 347.524C981.88 431.602 1052.18 475.185 1090.37 551.248C1148.5 667.034 1100.28 794.815 1088.76 825.335C1074.32 863.693 1056.19 893.5 1042.21 913.57Z" fill="#FEC754"/>
<path d="M892.741 912.382C865.489 914.698 839.919 910.007 811.824 910.007C919.153 757.704 911.449 556.117 747.932 429.584C666.433 366.347 590.112 298.419 539.425 214.399C511.46 168.026 494.759 116.426 492.493 63.4616C492.493 63.1647 492.493 62.8085 492.429 62.5116C491.134 31.0415 493.723 -0.844299 500.326 -32.4332C535.865 -191.446 678.991 -287.579 783.73 -418.803C875.716 -535.955 855.261 -674.245 791.369 -791.397C814.349 -791.397 847.557 -798.404 855.261 -789.081C937.019 -681.252 939.544 -547.712 855.261 -435.191C732.655 -275.822 525.702 -172.742 517.416 28.7258C517.416 29.0226 517.416 29.379 517.416 29.6758C515.474 90.7753 534.7 150.747 570.433 202.346C643.452 307.682 765.54 381.903 865.553 471.742C888.534 492.821 908.99 513.9 926.403 537.888C947.312 566.568 963.236 597.503 972.688 629.448C982.203 661.453 985.246 694.467 980.391 727.362C975.536 760.257 962.848 792.915 940.774 824.266C911.967 880.141 892.741 912.382 892.741 912.382Z" fill="#FEC754"/>
<path d="M1165.92 911.017C1149.09 914.758 1128.7 912.382 1110.76 912.382C1248.71 720.237 1187.41 443.656 949.772 338.202C847.558 291.353 727.477 260.892 657.435 170.163C657.241 169.925 657.046 169.629 656.917 169.391C624.485 122.423 614.646 65.421 627.334 11.0905C663.39 -143.469 850.276 -235.445 959.935 -360.138C1069.79 -489.047 1095.36 -646.041 1057.04 -796.029C1072.38 -796.029 1097.88 -798.344 1097.88 -793.713C1169.41 -613.265 1095.36 -416.428 936.955 -282.828C838.301 -202.431 707.733 -125.419 671.417 -7.13837C657.629 37.751 661.837 86.025 686.435 126.758C687.471 128.421 688.507 130.083 689.543 131.746C704.496 154.784 724.887 175.329 750.457 192.905C913.974 298.359 1123.45 345.208 1202.69 518.65C1253.76 628.795 1233.37 753.013 1189.22 859.655C1174.98 892.669 1165.92 911.017 1165.92 911.017Z" fill="#FEC754"/>
<path d="M1265.48 906.147C1251.3 910.007 1233.43 907.691 1218.09 907.691C1327.95 696.782 1287.1 387.425 1031.6 279.655C943.428 241 810.724 214.162 752.075 139.94C741.33 126.342 733.044 111.142 728.059 93.9221C720.938 69.4586 721.974 43.6887 729.289 19.2845C739.517 -14.6201 757.707 -46.1496 783.795 -71.9194C990.748 -280.513 1230.91 -482.04 1164.49 -798.404C1164.49 -803.095 1200.29 -798.404 1200.29 -796.088C1287.16 -517.192 1077.69 -292.21 880.895 -97.6892C855.973 -74.8289 832.539 -49.1778 817.068 -20.439C789.038 31.6945 800.431 94.9316 845.939 135.368C846.133 135.546 846.392 135.783 846.586 135.961C914.039 195.398 1030.95 211.608 1113.35 260.832C1312.67 380.359 1340.76 624.104 1294.28 815.716C1277.71 873.015 1265.48 906.147 1265.48 906.147Z" fill="#FEC754"/>
<path d="M1357.79 900.744C1343.29 900.626 1327.95 905.316 1312.67 903.001C1414.88 617.098 1335.65 237.438 990.749 124.977C947.312 110.904 916.629 75.7525 911.45 32.585C908.99 -3.93219 924.332 -39.0837 949.902 -67.2286C1131.29 -289.835 1307.62 -519.507 1264.18 -800.779C1279.53 -800.779 1305.03 -803.095 1305.03 -800.779C1366.33 -535.955 1215.63 -318.039 1075.1 -100.064C1034.25 -36.7679 1044.41 47.5482 1113.42 87.3906C1146.63 106.451 1176.28 128.302 1202.56 152.468C1386.85 321.813 1409.64 605.4 1373.13 836.023C1363.81 877.409 1357.79 900.744 1357.79 900.744Z" fill="#FEC754"/>
<path d="M1454.31 896.766C1437.8 900.626 1419.93 898.31 1404.59 898.31C1446.34 701.295 1432.36 490.089 1373.52 294.5C1349.31 214.102 1311.7 137.802 1263.99 66.846C1259.78 60.552 1255.64 54.258 1251.69 47.9046C1210.39 -15.6888 1184.82 -92.9983 1215.5 -165.676C1304.97 -369.52 1394.36 -578.113 1368.86 -800.719C1386.72 -800.719 1414.82 -803.035 1417.41 -798.404C1471.07 -603.883 1386.72 -421.119 1333.12 -231.289C1312.67 -156.295 1330.6 -81.301 1353.84 -10.701C1363.55 18.3346 1374.42 47.192 1385.11 76.1683C1385.17 76.4058 1385.3 76.6434 1385.36 76.8809C1400.64 118.267 1411.65 160.841 1418.18 204.127C1449.13 407.792 1491.46 613.179 1464.53 817.972C1458.38 868.027 1454.31 896.766 1454.31 896.766Z" fill="#FEC754"/>
<path d="M1564.03 895.638C1545.13 895.935 1527.2 895.935 1509.33 895.935C1537.42 673.328 1499.1 450.662 1492.95 228.768C1492.5 195.755 1489.39 163.394 1484.67 131.389C1477.61 83.3529 1466.99 36.0291 1456.96 -11.5918C1451.98 -35.4022 1447.06 -59.272 1442.85 -83.3199C1430.1 -142.222 1427.57 -203.144 1437.8 -264.065C1465.89 -444.513 1504.22 -620.271 1494.12 -800.719H1557.88C1557.88 -800.719 1557.88 -766.102 1557.62 -706.547C1560.47 -552.284 1532.37 -399.98 1524.74 -247.677C1523.44 -218.998 1524.09 -190.378 1525.84 -161.936C1531.21 -76.4915 1547 8.35907 1552.77 94.4565C1555.29 138.99 1557.88 183.523 1557.88 228.115C1555.35 424.893 1580.86 619.354 1568.04 815.953C1565.58 866.543 1564.03 895.638 1564.03 895.638Z" fill="#FEC754"/>
<path d="M1688.32 895.935C1667.8 895.994 1647.34 895.994 1626.89 895.994C1632 703.849 1626.89 509.328 1624.36 316.113C1624.36 287.196 1624.36 257.864 1624.36 228.175C1611.61 -83.6166 1611.61 -395.289 1624.36 -706.725C1624.36 -766.102 1624.36 -800.719 1624.36 -800.719H1688.25C1688.25 -800.719 1688.25 -766.102 1688.25 -706.725C1688.25 -677.036 1688.25 -641.172 1688.12 -600.32C1683.14 -383.592 1683.14 -167.992 1687.93 47.8453C1688.06 78.0685 1688.12 108.292 1688.25 138.396C1688.25 187.383 1688.25 235.953 1688.25 283.455C1688.25 330.957 1688.25 377.391 1688.25 422.102C1688.25 558.552 1688.25 696.842 1688.64 832.698C1688.38 873.075 1688.32 895.935 1688.32 895.935Z" fill="#FEC754"/>
<path d="M1948.81 -800.719H1884.91V895.994H1948.81V-800.719Z" fill="#FEC754"/>
<path d="M1818.5 895.994H1754.61C1754.61 895.994 1754.61 869.511 1754.61 823.078C1754.61 715.545 1754.61 610.091 1754.61 502.439C1754.61 456.897 1754.61 408.801 1754.61 359.102C1754.61 259.704 1754.61 153.656 1754.61 47.6074C1754.54 -12.9578 1754.54 -73.5229 1754.41 -132.841C1754.61 -243.046 1754.61 -353.191 1754.54 -464.346C1754.61 -513.867 1754.61 -559.647 1754.67 -600.439C1754.67 -722.876 1754.67 -800.779 1754.67 -800.779H1818.56V895.994H1818.5Z" fill="#FEC754"/>
</g>
<defs>
<radialGradient id="paint0_radial_139_1404" cx="0" cy="0" r="1" gradientUnits="userSpaceOnUse" gradientTransform="translate(960 442) rotate(90) scale(442 960)">
<stop stop-color="#FFE871"/>
<stop offset="1" stop-color="#FEC754"/>
</radialGradient>
</defs>
</svg>
