<svg width="44" height="36" viewBox="0 0 44 36" fill="none" xmlns="http://www.w3.org/2000/svg">
<path d="M4.66536 35.3333C3.4737 35.3333 2.45392 34.9094 1.60603 34.0615C0.758142 33.2136 0.333476 32.1931 0.332031 31V5C0.332031 3.80833 0.756698 2.78855 1.60603 1.94066C2.45536 1.09277 3.47514 0.668109 4.66536 0.666664H39.332C40.5237 0.666664 41.5442 1.09133 42.3935 1.94066C43.2429 2.79 43.6668 3.80978 43.6654 5V31C43.6654 32.1917 43.2414 33.2122 42.3935 34.0615C41.5456 34.9108 40.5251 35.3348 39.332 35.3333H4.66536ZM21.9987 20.1667L39.332 9.33333V5L21.9987 15.8333L4.66536 5V9.33333L21.9987 20.1667Z" fill="#F38181"/>
</svg>
