<svg width="18" height="18" viewBox="0 0 18 18" fill="none" xmlns="http://www.w3.org/2000/svg">
<g clip-path="url(#clip0_673_5748)">
<path d="M17.4333 3.03953C17.7581 2.83126 17.6385 2.3299 17.2549 2.29028C16.735 2.23663 15.9168 2.19205 14.9944 2.28796C13.3432 0.812247 11.2177 0 9 0C4.02569 0 0 4.02527 0 9C0 13.9743 4.02527 18 9 18C13.9743 18 18 13.9748 18 9C18 7.21692 17.4805 5.4981 16.497 4.02059C16.7311 3.63841 17.0246 3.30155 17.4333 3.03953ZM17.4727 9C17.4727 13.6718 13.6719 17.4727 9 17.4727C4.32814 17.4727 0.527342 13.6718 0.527342 9C0.527342 4.32817 4.32814 0.527342 9 0.527342C10.9352 0.527342 12.7957 1.18434 14.2952 2.38664C14.0681 2.42756 13.8378 2.47844 13.6069 2.54042C12.4386 1.70581 11.0668 1.2048 9.63612 1.09121C9.49092 1.0795 9.3639 1.18803 9.3524 1.33319C9.34087 1.47835 9.44922 1.60537 9.59438 1.6169C10.7951 1.71224 11.9515 2.10012 12.9653 2.74372C10.878 3.51255 9.70411 5.07433 9.35487 7.18763C9.28336 7.61988 9.81678 7.8852 10.1167 7.56517C10.4234 7.2378 10.9564 6.66911 11.694 6.26739C10.3031 7.66885 9.50695 9.93593 9.06205 11.8586C8.57335 9.75733 7.86207 8.11913 6.94404 6.98257C6.09122 5.92672 5.2435 5.53048 4.68251 5.38398C4.28673 5.2808 4.02671 5.78923 4.34062 6.051C4.70709 6.35647 5.40212 7.0501 5.94015 8.26334C6.636 9.83236 7.5432 13.7824 7.80466 14.9557C7.88745 15.3273 8.21124 15.5868 8.59205 15.5868H9.53265H9.53318C9.91364 15.5864 10.2371 15.327 10.3198 14.9557C10.4377 14.4264 10.6295 13.4541 10.8652 12.3851C10.8965 12.2429 10.8067 12.1022 10.6645 12.0709C10.5219 12.0396 10.3816 12.1294 10.3502 12.2716C10.1149 13.3389 9.92144 14.319 9.80515 14.841C9.77649 14.9696 9.66434 15.0594 9.53244 15.0594H8.59208C8.46018 15.0594 8.34807 14.9696 8.31938 14.841C7.00932 8.96235 6.33805 7.40124 5.22226 6.17021C6.26503 6.75015 7.82297 8.32982 8.68915 12.6273C8.72543 12.8073 8.87896 12.933 9.06254 12.933C9.24581 12.9329 9.39906 12.8074 9.43527 12.6278C10.4188 7.74795 12.237 6.33228 12.9731 5.95014C13.1174 5.87518 13.1846 5.70893 13.1329 5.55481C13.0812 5.40082 12.9275 5.30875 12.7672 5.33617C11.4271 5.56469 10.4505 6.45863 9.92612 6.99983C10.798 2.80461 15.1138 2.66202 16.8802 2.78707C15.5931 3.80611 15.4626 5.4582 14.6525 6.83368C14.2345 7.54324 13.3815 7.95249 12.0445 8.08482C11.712 8.11772 11.4245 8.34262 11.312 8.65779C11.0993 9.25358 10.8778 10.0314 10.6347 11.0359C10.6005 11.1774 10.6875 11.32 10.829 11.3542C10.9704 11.3885 11.113 11.3015 11.1473 11.16C11.3826 10.1874 11.6051 9.40521 11.8087 8.83512C11.853 8.71105 11.9659 8.62256 12.0965 8.60963C12.6538 8.55447 14.3498 8.38656 15.1068 7.10136C15.3511 6.68673 15.5338 6.26 15.6993 5.83897C16.1631 6.82211 16.4068 7.90482 16.4068 9.00004C16.4068 13.0842 13.0842 16.4068 9.00004 16.4068C4.91595 16.4068 1.59327 13.0842 1.59327 9.00004C1.59327 5.16324 4.58562 1.92023 8.40565 1.61704C8.55081 1.60551 8.65916 1.47849 8.64763 1.33333C8.63613 1.18821 8.50992 1.07971 8.36392 1.09135C4.25596 1.41735 1.0659 4.85566 1.0659 9C1.0659 13.3852 4.61442 16.9341 9 16.9341C13.3852 16.9341 16.9341 13.3856 16.9341 9C16.9341 7.66294 16.5953 6.34287 15.9542 5.17828C16.037 4.96573 16.1217 4.75743 16.2143 4.55655C17.0386 5.891 17.4727 7.41857 17.4727 9Z" fill="black"/>
</g>
<defs>
<clipPath id="clip0_673_5748">
<rect width="18" height="18" fill="white"/>
</clipPath>
</defs>
</svg>
