<svg width="20" height="20" viewBox="0 0 20 20" fill="none" xmlns="http://www.w3.org/2000/svg">
<path d="M10 0C6.12297 0 2.96875 3.15422 2.96875 7.03125C2.96875 8.34117 3.3316 9.61953 4.01832 10.7286L9.59977 19.723C9.70668 19.8953 9.89504 20 10.0976 20C10.0992 20 10.1007 20 10.1023 20C10.3066 19.9984 10.4954 19.8905 10.6003 19.7152L16.0395 10.6336C16.6883 9.54797 17.0312 8.30231 17.0312 7.03125C17.0312 3.15422 13.877 0 10 0ZM15.0338 10.032L10.0887 18.2885L5.01434 10.1112C4.44273 9.18805 4.13281 8.12305 4.13281 7.03125C4.13281 3.80039 6.76914 1.16406 10 1.16406C13.2309 1.16406 15.8633 3.80039 15.8633 7.03125C15.8633 8.09066 15.5738 9.12844 15.0338 10.032Z" fill="black"/>
<path d="M8.36469 2.85718C7.54993 2.85718 6.93848 4.02069 6.93848 5.06239C6.93848 5.84328 7.29659 6.46798 7.87677 6.69288L7.92682 6.71318L7.76574 12.5401C7.76509 12.5814 7.77263 12.6224 7.78793 12.6607C7.80323 12.699 7.82599 12.734 7.85488 12.7635C7.88322 12.7934 7.91743 12.8171 7.95536 12.8332C7.9933 12.8494 8.03415 12.8575 8.07538 12.8572H8.66182C8.7032 12.857 8.74413 12.8486 8.78225 12.8325C8.82037 12.8165 8.85491 12.793 8.88388 12.7635C8.91316 12.7343 8.93606 12.6994 8.95113 12.661C8.96621 12.6225 8.97313 12.5814 8.97145 12.5401L8.81507 6.71786L8.86511 6.69756C9.43904 6.47267 9.79559 5.84796 9.79559 5.06708C9.80028 4.02069 9.18883 2.85718 8.36469 2.85718Z" fill="black"/>
<path d="M12.8008 5.48116L12.6047 3.04798C12.5996 2.9954 12.5741 2.94686 12.5338 2.91253C12.4934 2.8782 12.4413 2.86074 12.3883 2.86381C12.3352 2.8682 12.2859 2.89328 12.2512 2.93362C12.2166 2.97395 12.1993 3.02627 12.2032 3.07919L12.393 5.42029H11.8331V3.06359C11.8331 3.0106 11.8119 2.95979 11.7743 2.92233C11.7366 2.88486 11.6856 2.86381 11.6323 2.86381C11.5791 2.86381 11.528 2.88486 11.4904 2.92233C11.4527 2.95979 11.4316 3.0106 11.4316 3.06359V5.42185H10.8701L11.0599 3.08076C11.0631 3.05402 11.0608 3.02691 11.0533 3.00106C11.0457 2.97521 11.033 2.95115 11.0158 2.93032C10.9987 2.9095 10.9774 2.89233 10.9535 2.87987C10.9295 2.86741 10.9032 2.85989 10.8762 2.85779C10.8493 2.85568 10.8221 2.85903 10.7965 2.86762C10.7708 2.87621 10.7472 2.88987 10.727 2.90778C10.7068 2.92569 10.6904 2.94748 10.6789 2.97184C10.6674 2.9962 10.6609 3.02263 10.6599 3.04954L10.4623 5.48428C10.4623 5.48428 10.4623 5.48428 10.4623 5.49209L10.4105 6.11638C10.4037 6.17897 10.412 6.24229 10.435 6.30097C10.4579 6.35966 10.4947 6.41198 10.5423 6.4535L11.0928 6.92952C11.1196 6.95279 11.1409 6.98162 11.1553 7.01398C11.1696 7.04634 11.1767 7.08144 11.1759 7.11681L11.0363 12.5403C11.0355 12.5815 11.0428 12.6224 11.0579 12.6607C11.0729 12.699 11.0955 12.7339 11.1242 12.7635C11.1532 12.793 11.1879 12.8165 11.2261 12.8326C11.2643 12.8486 11.3054 12.857 11.3469 12.8572H11.9335C12.0167 12.8572 12.0964 12.8243 12.1553 12.7658C12.2141 12.7072 12.2471 12.6278 12.2471 12.545L12.0997 7.12617C12.0951 7.08886 12.0991 7.05099 12.1117 7.01552C12.1242 6.98004 12.1448 6.94794 12.1719 6.92172L12.7224 6.4535C12.7691 6.41293 12.8055 6.36196 12.8287 6.30473C12.8518 6.2475 12.8611 6.18564 12.8557 6.12418L12.8039 5.49052C12.8036 5.48721 12.8025 5.484 12.8008 5.48116Z" fill="black"/>
</svg>
