<svg width="20" height="20" viewBox="0 0 20 20" fill="none" xmlns="http://www.w3.org/2000/svg">
<path d="M14.2081 16.9C13.3915 17.6917 12.4998 17.5667 11.6415 17.1917C10.7331 16.8083 9.89981 16.7917 8.94148 17.1917C7.74148 17.7083 7.10814 17.5583 6.39148 16.9C2.32481 12.7083 2.92481 6.325 7.54148 6.09167C8.66648 6.15 9.44981 6.70833 10.1081 6.75833C11.0915 6.55833 12.0331 5.98333 13.0831 6.05833C14.3415 6.15833 15.2915 6.65833 15.9165 7.55833C13.3165 9.11667 13.9331 12.5417 16.3165 13.5C15.8415 14.75 15.2248 15.9917 14.1998 16.9083L14.2081 16.9ZM10.0248 6.04167C9.89981 4.18333 11.4081 2.65 13.1415 2.5C13.3831 4.65 11.1915 6.25 10.0248 6.04167Z" fill="black"/>
</svg>
