<svg width="20" height="20" viewBox="0 0 20 20" fill="none" xmlns="http://www.w3.org/2000/svg">
<path d="M16.1373 15.7273H3.86775C3.64204 15.7273 3.45906 15.9103 3.45864 16.136L3.45703 17.3289C3.45665 17.7751 3.63 18.1946 3.94522 18.5102C4.26082 18.8262 4.67989 19 5.12616 19H14.8772C15.7977 19 16.5464 18.2513 16.5464 17.3309V16.1364C16.5464 15.9103 16.3634 15.7273 16.1373 15.7273Z" fill="black"/>
<path d="M14.5 2.63638C14.2495 2.63638 13.9922 2.66154 13.7198 2.71228C12.7837 1.62081 11.4422 1 10 1C7.293 1 5.09093 3.20207 5.09093 5.90909C5.09093 6.1348 4.90756 6.3182 4.68182 6.3182C4.45612 6.3182 4.27272 6.13484 4.27272 5.90909C4.27272 5.02339 4.47648 4.16644 4.87838 3.36227C4.9499 3.21926 4.93149 3.04786 4.83163 2.92321C4.73176 2.79937 4.56834 2.74422 4.41335 2.78219C2.40346 3.28357 1 5.07413 1 7.13637C1 8.83664 1.95881 10.3823 3.46414 11.1466L3.45973 14.4996C3.45973 14.6079 3.50249 14.7121 3.57919 14.7892C3.65628 14.8659 3.76018 14.9091 3.86883 14.9091H16.1364C16.3625 14.9091 16.5455 14.7261 16.5455 14.5V11.1405C18.0452 10.3743 19 8.831 19 7.13633C19 4.65505 16.9813 2.63638 14.5 2.63638ZM6.98695 12.3619C6.91063 12.4242 6.81877 12.4546 6.72769 12.4546C6.60945 12.4546 6.49197 12.4034 6.4109 12.3051C6.27586 12.1402 5.09093 10.6652 5.09093 9.59091C5.09093 9.36479 5.2739 9.18181 5.50003 9.18181C5.72615 9.18181 5.90913 9.36479 5.90913 9.59091C5.90913 10.183 6.60507 11.2513 7.04371 11.7858C7.18669 11.9608 7.16153 12.2184 6.98695 12.3619ZM10.4091 12.0455C10.4091 12.2716 10.2261 12.4546 9.99998 12.4546C9.77386 12.4546 9.59092 12.2716 9.59092 12.0455V9.59091C9.59092 9.36479 9.7739 9.18181 10 9.18181C10.2261 9.18181 10.4091 9.36479 10.4091 9.59091V12.0455H10.4091ZM13.5891 12.3051C13.508 12.4034 13.391 12.4546 13.2727 12.4546C13.1813 12.4546 13.0894 12.4242 13.0135 12.3619C12.8389 12.2184 12.8133 11.9608 12.9563 11.7862C13.395 11.2505 14.0909 10.181 14.0909 9.59091C14.0909 9.36479 14.2739 9.18181 14.5 9.18181C14.7261 9.18181 14.9091 9.36479 14.9091 9.59091C14.9091 10.6652 13.7242 12.1402 13.5891 12.3051Z" fill="black"/>
</svg>
