<svg width="28" height="28" viewBox="0 0 28 28" fill="none" xmlns="http://www.w3.org/2000/svg">
<g clip-path="url(#clip0_1139_2260)">
<path d="M27.5843 10.1208C27.2146 9.65689 26.6599 9.39078 26.0624 9.39078H20.67L17.7459 2.69523C17.5646 2.2801 17.081 2.09039 16.6659 2.27179C16.2507 2.45307 16.0611 2.93668 16.2424 3.35186L18.8797 9.39084H9.12029L11.7576 3.35186C11.9389 2.93668 11.7493 2.45313 11.3342 2.27179C10.919 2.09039 10.4354 2.27999 10.2541 2.69523L7.33004 9.39084H1.93764C1.34012 9.39084 0.785425 9.65689 0.415683 10.1208C0.0527222 10.5762 -0.0812075 11.1617 0.0482378 11.7273L2.92792 24.3054C3.129 25.1837 3.90595 25.7971 4.81732 25.7971H23.1827C24.0941 25.7971 24.871 25.1837 25.0721 24.3054L27.9518 11.7273C28.0812 11.1617 27.9473 10.5762 27.5843 10.1208ZM23.1827 24.1564H4.81732C4.67803 24.1564 4.55602 24.0651 4.5272 23.9392L1.64752 11.3612C1.62493 11.2625 1.66283 11.1882 1.69871 11.1433C1.73196 11.1015 1.80726 11.0315 1.93764 11.0315H6.61358L6.39871 11.5235C6.21742 11.9387 6.40697 12.4222 6.82216 12.6036C6.92902 12.6503 7.04036 12.6724 7.15001 12.6724C7.46621 12.6724 7.76754 12.4884 7.90218 12.1802L8.40383 11.0316H19.5963L20.0979 12.1802C20.2326 12.4885 20.5339 12.6724 20.8501 12.6724C20.9597 12.6724 21.0711 12.6503 21.178 12.6036C21.5931 12.4223 21.7827 11.9387 21.6014 11.5235L21.3865 11.0315H26.0625C26.1929 11.0315 26.2682 11.1015 26.3014 11.1433C26.3372 11.1883 26.3752 11.2625 26.3526 11.3611L23.4729 23.9392C23.444 24.0651 23.322 24.1564 23.1827 24.1564Z" fill="white"/>
<path d="M9.07812 14.5861C8.62509 14.5861 8.25781 14.9534 8.25781 15.4064V21.422C8.25781 21.8751 8.62509 22.2423 9.07812 22.2423C9.53116 22.2423 9.89844 21.8751 9.89844 21.422V15.4064C9.89844 14.9534 9.53121 14.5861 9.07812 14.5861Z" fill="white"/>
<path d="M14 14.5861C13.547 14.5861 13.1797 14.9534 13.1797 15.4064V21.422C13.1797 21.8751 13.547 22.2423 14 22.2423C14.453 22.2423 14.8203 21.8751 14.8203 21.422V15.4064C14.8203 14.9534 14.453 14.5861 14 14.5861Z" fill="white"/>
<path d="M18.9219 14.5861C18.4688 14.5861 18.1016 14.9534 18.1016 15.4064V21.422C18.1016 21.8751 18.4688 22.2423 18.9219 22.2423C19.3749 22.2423 19.7422 21.8751 19.7422 21.422V15.4064C19.7421 14.9534 19.3749 14.5861 18.9219 14.5861Z" fill="white"/>
</g>
<defs>
<clipPath id="clip0_1139_2260">
<rect width="28" height="28" fill="white"/>
</clipPath>
</defs>
</svg>
