<svg width="20" height="20" viewBox="0 0 20 20" fill="none" xmlns="http://www.w3.org/2000/svg">
<path d="M13.125 5H17.5V4.0625H13.75V3.4375H17.5V2.8125H13.75V2.1875H17.5V1.25H13.125C12.6277 1.25 12.1508 1.44754 11.7992 1.79917C11.4475 2.15081 11.25 2.62772 11.25 3.125C11.25 3.62228 11.4475 4.09919 11.7992 4.45083C12.1508 4.80246 12.6277 5 13.125 5Z" fill="black"/>
<path d="M16.582 16.25H3.02851C2.97609 16.2503 2.92556 16.2696 2.88633 16.3044C2.84709 16.3391 2.82181 16.387 2.8152 16.439C2.80859 16.491 2.8211 16.5436 2.85039 16.5871C2.87968 16.6306 2.92377 16.6619 2.97445 16.6753L10.2341 18.5575C10.2803 18.5695 10.3287 18.5707 10.3754 18.5611C10.4221 18.5515 10.4661 18.5314 10.5038 18.5022C10.5416 18.473 10.5721 18.4355 10.5931 18.3927C10.6141 18.3498 10.6251 18.3027 10.6251 18.255V17.1875C10.6251 17.1437 10.6343 17.1004 10.6521 17.0604C10.6699 17.0204 10.696 16.9846 10.7285 16.9553C10.7611 16.9262 10.7994 16.9041 10.841 16.8906C10.8826 16.877 10.9266 16.8722 10.9701 16.8766L16.5763 17.4619C16.6559 17.4622 16.7348 17.4469 16.8084 17.4168C16.8821 17.3867 16.9491 17.3424 17.0056 17.2864C17.0621 17.2304 17.1071 17.1638 17.1379 17.0904C17.1687 17.017 17.1847 16.9383 17.1851 16.8588C17.1854 16.7792 17.1701 16.7003 17.14 16.6267C17.1099 16.553 17.0656 16.486 17.0096 16.4295C16.9536 16.3729 16.887 16.328 16.8136 16.2972C16.7402 16.2664 16.6615 16.2504 16.582 16.25Z" fill="black"/>
<path d="M3.43772 3.75L10.6524 3.47375C10.6353 3.35827 10.6262 3.24174 10.6252 3.125C10.6262 3.00826 10.6353 2.89173 10.6524 2.77625L3.42584 2.5C3.26402 2.50204 3.10956 2.56798 2.99616 2.68344C2.9089 2.77084 2.8495 2.88214 2.82544 3.00328C2.80139 3.12442 2.81377 3.24996 2.86101 3.36407C2.90825 3.47819 2.98824 3.57574 3.09088 3.64443C3.19353 3.71311 3.31422 3.74985 3.43772 3.75Z" fill="black"/>
<path d="M10 13.75C12.0711 13.75 13.75 12.0711 13.75 10C13.75 7.92893 12.0711 6.25 10 6.25C7.92893 6.25 6.25 7.92893 6.25 10C6.25 12.0711 7.92893 13.75 10 13.75Z" fill="black"/>
<path d="M7.63834 4.21437C6.51981 4.67061 5.55752 5.44131 4.86796 6.43316C4.17841 7.42501 3.79116 8.59549 3.7531 9.80289C3.71504 11.0103 4.0278 12.2028 4.65352 13.2361C5.27924 14.2695 6.19108 15.0992 7.27865 15.625H12.7246C13.7792 15.1106 14.6686 14.3109 15.2917 13.3166C15.9149 12.3224 16.247 11.1734 16.2502 10C16.2547 8.36148 15.609 6.7881 14.4549 5.625H13.1252C12.633 5.62453 12.1519 5.47904 11.742 5.2067C11.332 4.93437 11.0114 4.54726 10.8202 4.09375L7.63834 4.21437ZM14.3752 10C14.3752 10.8653 14.1186 11.7112 13.6379 12.4306C13.1572 13.1501 12.4739 13.7108 11.6745 14.042C10.875 14.3731 9.99536 14.4597 9.14669 14.2909C8.29803 14.1221 7.51848 13.7054 6.90662 13.0936C6.29477 12.4817 5.87809 11.7022 5.70928 10.8535C5.54047 10.0049 5.62711 9.12519 5.95824 8.32576C6.28937 7.52633 6.85013 6.84305 7.56959 6.36232C8.28906 5.88159 9.13492 5.625 10.0002 5.625C11.1602 5.62624 12.2722 6.08758 13.0924 6.90778C13.9126 7.72798 14.374 8.84006 14.3752 10Z" fill="black"/>
</svg>
