<svg width="20" height="20" viewBox="0 0 20 20" fill="none" xmlns="http://www.w3.org/2000/svg">
<path d="M4.0625 16.5625H15.9375C16.4348 16.5625 16.9117 16.365 17.2633 16.0133C17.615 15.6617 17.8125 15.1848 17.8125 14.6875H2.1875C2.1875 15.1848 2.38504 15.6617 2.73667 16.0133C3.08831 16.365 3.56522 16.5625 4.0625 16.5625Z" fill="black"/>
<path d="M17.8125 12.8124H16.975C16.6324 11.5564 15.8864 10.4478 14.852 9.65728C13.8175 8.86676 12.5519 8.43815 11.25 8.43745H10.3125V7.4437C10.521 7.36998 10.6967 7.22493 10.8086 7.03417C10.9205 6.84342 10.9614 6.61925 10.924 6.40128C10.8866 6.18331 10.7734 5.98558 10.6043 5.84304C10.4352 5.7005 10.2212 5.62231 10 5.62231C9.77885 5.62231 9.56482 5.7005 9.39573 5.84304C9.22665 5.98558 9.1134 6.18331 9.076 6.40128C9.0386 6.61925 9.07947 6.84342 9.19137 7.03417C9.30326 7.22493 9.479 7.36998 9.6875 7.4437V8.43745H8.75C7.44807 8.43815 6.18247 8.86676 5.14801 9.65728C4.11356 10.4478 3.36761 11.5564 3.025 12.8124H2.1875C2.02174 12.8124 1.86277 12.8783 1.74556 12.9955C1.62835 13.1127 1.5625 13.2717 1.5625 13.4374C1.5625 13.6032 1.62835 13.7622 1.74556 13.8794C1.86277 13.9966 2.02174 14.0624 2.1875 14.0624H17.8125C17.9783 14.0624 18.1372 13.9966 18.2544 13.8794C18.3717 13.7622 18.4375 13.6032 18.4375 13.4374C18.4375 13.2717 18.3717 13.1127 18.2544 12.9955C18.1372 12.8783 17.9783 12.8124 17.8125 12.8124ZM14.7375 12.1874H14.6875C14.6126 12.1884 14.5398 12.1624 14.4825 12.1143C14.4251 12.0661 14.387 11.9989 14.375 11.9249C14.3124 11.5575 14.1205 11.2245 13.834 10.9862C13.5475 10.7478 13.1852 10.6197 12.8125 10.6249C12.7296 10.6249 12.6501 10.592 12.5915 10.5334C12.5329 10.4748 12.5 10.3953 12.5 10.3124C12.5 10.2296 12.5329 10.1501 12.5915 10.0915C12.6501 10.0329 12.7296 9.99995 12.8125 9.99995C13.335 9.99273 13.8428 10.1728 14.2441 10.5075C14.6453 10.8423 14.9135 11.3096 15 11.8249C15.0071 11.866 15.0059 11.9082 14.9965 11.9488C14.9871 11.9894 14.9697 12.0278 14.9452 12.0615C14.9207 12.0953 14.8897 12.1239 14.8541 12.1455C14.8184 12.1671 14.7788 12.1814 14.7375 12.1874Z" fill="black"/>
<path d="M7.1875 7.8125C7.27038 7.8125 7.34987 7.77958 7.40847 7.72097C7.46708 7.66237 7.5 7.58288 7.5 7.5V6.5625C7.5 6.23098 7.3683 5.91304 7.13388 5.67862C6.89946 5.4442 6.58152 5.3125 6.25 5.3125C6.08424 5.3125 5.92527 5.24665 5.80806 5.12944C5.69085 5.01223 5.625 4.85326 5.625 4.6875V3.75C5.625 3.66712 5.59208 3.58763 5.53347 3.52903C5.47487 3.47042 5.39538 3.4375 5.3125 3.4375C5.22962 3.4375 5.15013 3.47042 5.09153 3.52903C5.03292 3.58763 5 3.66712 5 3.75V4.6875C5 5.01902 5.1317 5.33696 5.36612 5.57138C5.60054 5.8058 5.91848 5.9375 6.25 5.9375C6.41576 5.9375 6.57473 6.00335 6.69194 6.12056C6.80915 6.23777 6.875 6.39674 6.875 6.5625V7.5C6.875 7.58288 6.90792 7.66237 6.96653 7.72097C7.02513 7.77958 7.10462 7.8125 7.1875 7.8125Z" fill="black"/>
<path d="M3.125 7.5C3.29076 7.5 3.44973 7.56585 3.56694 7.68306C3.68415 7.80027 3.75 7.95924 3.75 8.125V9.0625C3.75 9.14538 3.78292 9.22487 3.84153 9.28347C3.90013 9.34208 3.97962 9.375 4.0625 9.375C4.14538 9.375 4.22487 9.34208 4.28347 9.28347C4.34208 9.22487 4.375 9.14538 4.375 9.0625V8.125C4.375 7.79348 4.2433 7.47554 4.00888 7.24112C3.77446 7.0067 3.45652 6.875 3.125 6.875C2.95924 6.875 2.80027 6.80915 2.68306 6.69194C2.56585 6.57473 2.5 6.41576 2.5 6.25V5.3125C2.5 5.22962 2.46708 5.15013 2.40847 5.09153C2.34987 5.03292 2.27038 5 2.1875 5C2.10462 5 2.02513 5.03292 1.96653 5.09153C1.90792 5.15013 1.875 5.22962 1.875 5.3125V6.25C1.875 6.58152 2.0067 6.89946 2.24112 7.13388C2.47554 7.3683 2.79348 7.5 3.125 7.5Z" fill="black"/>
<path d="M14.375 3.75V4.6875C14.375 4.85326 14.3092 5.01223 14.1919 5.12944C14.0747 5.24665 13.9158 5.3125 13.75 5.3125C13.4185 5.3125 13.1005 5.4442 12.8661 5.67862C12.6317 5.91304 12.5 6.23098 12.5 6.5625V7.5C12.5 7.58288 12.5329 7.66237 12.5915 7.72097C12.6501 7.77958 12.7296 7.8125 12.8125 7.8125C12.8954 7.8125 12.9749 7.77958 13.0335 7.72097C13.0921 7.66237 13.125 7.58288 13.125 7.5V6.5625C13.125 6.39674 13.1908 6.23777 13.3081 6.12056C13.4253 6.00335 13.5842 5.9375 13.75 5.9375C14.0815 5.9375 14.3995 5.8058 14.6339 5.57138C14.8683 5.33696 15 5.01902 15 4.6875V3.75C15 3.66712 14.9671 3.58763 14.9085 3.52903C14.8499 3.47042 14.7704 3.4375 14.6875 3.4375C14.6046 3.4375 14.5251 3.47042 14.4665 3.52903C14.4079 3.58763 14.375 3.66712 14.375 3.75Z" fill="black"/>
<path d="M17.5 5.3125V6.25C17.5 6.41576 17.4342 6.57473 17.3169 6.69194C17.1997 6.80915 17.0408 6.875 16.875 6.875C16.5435 6.875 16.2255 7.0067 15.9911 7.24112C15.7567 7.47554 15.625 7.79348 15.625 8.125V9.0625C15.625 9.14538 15.6579 9.22487 15.7165 9.28347C15.7751 9.34208 15.8546 9.375 15.9375 9.375C16.0204 9.375 16.0999 9.34208 16.1585 9.28347C16.2171 9.22487 16.25 9.14538 16.25 9.0625V8.125C16.25 7.95924 16.3158 7.80027 16.4331 7.68306C16.5503 7.56585 16.7092 7.5 16.875 7.5C17.2065 7.5 17.5245 7.3683 17.7589 7.13388C17.9933 6.89946 18.125 6.58152 18.125 6.25V5.3125C18.125 5.22962 18.0921 5.15013 18.0335 5.09153C17.9749 5.03292 17.8954 5 17.8125 5C17.7296 5 17.6501 5.03292 17.5915 5.09153C17.5329 5.15013 17.5 5.22962 17.5 5.3125Z" fill="black"/>
</svg>
