<svg width="17" height="17" viewBox="0 0 17 17" fill="none" xmlns="http://www.w3.org/2000/svg">
<g clip-path="url(#clip0_480_2466)">
<path fill-rule="evenodd" clip-rule="evenodd" d="M8.37807 14.2925V15.1397C8.37807 15.8191 8.03947 16.4056 7.45108 16.7453C7.16799 16.9087 6.85203 16.9999 6.52444 17C6.19656 17.0002 5.8807 16.9089 5.59741 16.7453L1.83032 14.5703C1.24186 14.2306 0.90332 13.6442 0.90332 12.9647V1.854C0.90332 0.831639 1.73499 0 2.75732 0H11.0538C12.0762 0 12.9079 0.831572 12.9079 1.854V4.19611C12.9079 4.53209 12.6351 4.80489 12.2992 4.80489C11.9631 4.80489 11.6905 4.53213 11.6905 4.19611V1.854C11.6905 1.50294 11.4049 1.21729 11.0538 1.21729H3.78392L7.45108 3.33489C8.03927 3.67456 8.37807 4.26092 8.37807 4.94016V13.075H11.0538C11.4048 13.075 11.6905 12.7895 11.6905 12.4385V10.3853C11.6905 10.0491 11.9629 9.77653 12.2992 9.77653C12.6353 9.77653 12.9079 10.0492 12.9079 10.3853V12.4385C12.9079 13.4609 12.0762 14.2925 11.0538 14.2925H8.37807ZM14.0187 7.75486L13.3483 8.42526C13.1106 8.66296 13.1107 9.04832 13.3483 9.28605C13.4627 9.40054 13.6169 9.46415 13.7787 9.46415C13.9407 9.46415 14.0947 9.4007 14.2093 9.28605L15.9186 7.57649C16.1562 7.33882 16.1562 6.95366 15.9186 6.716L14.2093 5.0067C13.9716 4.76896 13.5862 4.76906 13.3483 5.00667C13.1107 5.24413 13.1108 5.62966 13.3483 5.86719L14.0187 6.53743H9.52767C9.19135 6.53743 8.91902 6.80996 8.91902 7.14624C8.91902 7.48252 9.19138 7.75489 9.52767 7.75489H14.0187V7.75486Z" fill="#DB5353"/>
</g>
<defs>
<clipPath id="clip0_480_2466">
<rect width="17" height="17" fill="white"/>
</clipPath>
</defs>
</svg>
