<svg width="48" height="48" viewBox="0 0 48 48" fill="none" xmlns="http://www.w3.org/2000/svg">
<g clip-path="url(#clip0_928_2590)">
<path d="M48 3.27019C48.0037 2.39372 47.6654 1.57088 47.0476 0.953067C46.4298 0.335255 45.6053 -0.00243272 44.7306 0.000754783C43.8566 0.00441103 43.0339 0.347817 42.4139 0.967692C42.1514 1.23019 41.6739 1.79719 41.4128 2.11191C41.1384 2.44238 41.1838 2.93269 41.5143 3.20691C41.8447 3.48122 42.335 3.43585 42.6093 3.10538C43.0184 2.61263 43.3566 2.2246 43.5136 2.06747C43.8415 1.73963 44.276 1.55794 44.737 1.55597C44.7396 1.55597 44.7419 1.55597 44.7444 1.55597C45.2002 1.55597 45.6275 1.73222 45.9479 2.05275C46.2701 2.37497 46.4467 2.80501 46.4447 3.26363C46.4427 3.7246 46.261 4.15904 45.9332 4.48707C45.6397 4.7806 44.6307 5.58094 43.1852 6.59072C42.3301 5.12879 40.7442 4.14394 38.9318 4.14394H27.5445C26.0074 4.14394 24.5623 4.74254 23.4753 5.82938L0.713719 28.5912C0.2535 29.0514 0 29.6634 0 30.3142C0 30.965 0.2535 31.577 0.713719 32.0371L15.9637 47.2871C16.4389 47.7622 17.0627 47.9996 17.6867 47.9996C18.3107 47.9996 18.9347 47.7621 19.4096 47.2871L42.1714 24.5255C43.2582 23.4385 43.8568 21.9935 43.8568 20.4563V9.0691C43.8568 8.73301 43.8228 8.40488 43.7583 8.08754C45.4037 6.95532 46.6116 6.00816 47.0329 5.58685C47.6529 4.96697 47.9963 4.14422 48 3.27019ZM42.3016 20.4563C42.3016 21.578 41.8647 22.6326 41.0717 23.4256L18.3099 46.1874C17.9664 46.531 17.4071 46.531 17.0635 46.1874L1.8135 30.9374C1.64709 30.771 1.55531 30.5497 1.55531 30.3142C1.55531 30.0787 1.647 29.8574 1.8135 29.691L24.5752 6.92935C25.3684 6.13622 26.4229 5.69944 27.5445 5.69944H38.9317C40.2104 5.69944 41.3251 6.41541 41.8958 7.46747C40.9773 8.07572 39.9487 8.72251 38.8576 9.35851C38.8236 9.32119 38.7888 9.28426 38.7527 9.24816C37.4792 7.97466 35.4071 7.97466 34.1336 9.24816C32.8601 10.5217 32.8601 12.5937 34.1336 13.8672C34.7704 14.504 35.6068 14.8223 36.4432 14.8223C37.2795 14.8223 38.1159 14.504 38.7527 13.8672C39.6027 13.0172 39.8844 11.8117 39.5998 10.725C40.5488 10.1725 41.4602 9.60788 42.3012 9.0616C42.3013 9.06422 42.3015 9.06666 42.3015 9.06919V20.4563H42.3016ZM35.7487 11.9071C35.8853 12.1787 36.1594 12.3354 36.444 12.3354C36.5615 12.3354 36.6808 12.3087 36.7929 12.2523C37.2488 12.023 37.703 11.7845 38.1527 11.5402C38.1572 11.9841 37.9912 12.4294 37.6532 12.7674C36.9861 13.4345 35.9008 13.4345 35.2337 12.7674C34.5667 12.1003 34.5667 11.0151 35.2337 10.3479C35.5672 10.0144 36.0053 9.84769 36.4434 9.84769C36.7903 9.84769 37.1362 9.95401 37.4312 10.163C36.991 10.4022 36.5443 10.6365 36.094 10.8631C35.7101 11.0559 35.5555 11.5235 35.7487 11.9071Z" fill="black"/>
<path d="M23.1712 15.8402C22.7417 15.8402 22.3936 16.1883 22.3936 16.6179V33.0409C22.3936 33.4704 22.7417 33.8186 23.1712 33.8186C23.6007 33.8186 23.9489 33.4704 23.9489 33.0409V16.6179C23.9489 16.1883 23.6007 15.8402 23.1712 15.8402Z" fill="black"/>
<path d="M19.6155 22.5199C18.3421 21.2463 16.2699 21.2463 14.9966 22.5198C13.7231 23.7933 13.7231 25.8654 14.9966 27.1389C15.6335 27.7758 16.4697 28.094 17.3062 28.0939C18.1424 28.0939 18.9789 27.7755 19.6156 27.1389C20.2326 26.5219 20.5723 25.7018 20.5723 24.8294C20.5723 23.9569 20.2325 23.1367 19.6155 22.5199ZM18.5158 26.039C17.8487 26.7062 16.7634 26.7061 16.0964 26.039C15.4294 25.3719 15.4294 24.2867 16.0964 23.6195C16.43 23.286 16.8681 23.1193 17.3062 23.1193C17.7443 23.1193 18.1823 23.286 18.5159 23.6195C18.8391 23.9427 19.017 24.3723 19.017 24.8293C19.0169 25.2863 18.839 25.7159 18.5158 26.039Z" fill="black"/>
<path d="M31.3465 22.5199C30.073 21.2463 28.0008 21.2464 26.7276 22.5199C25.4541 23.7934 25.4541 25.8654 26.7276 27.1389C27.3643 27.7757 28.2007 28.094 29.0371 28.094C29.8735 28.094 30.7099 27.7757 31.3466 27.1389C32.62 25.8654 32.62 23.7934 31.3465 22.5199ZM30.2467 26.039C29.5796 26.7062 28.4943 26.7061 27.8273 26.039C27.1602 25.3719 27.1602 24.2867 27.8273 23.6195C28.1608 23.286 28.5989 23.1193 29.037 23.1193C29.4751 23.1193 29.9132 23.286 30.2468 23.6195C30.9138 24.2867 30.9138 25.3719 30.2467 26.039Z" fill="black"/>
</g>
<defs>
<clipPath id="clip0_928_2590">
<rect width="48" height="48" fill="white"/>
</clipPath>
</defs>
</svg>
