<svg width="20" height="20" viewBox="0 0 20 20" fill="none" xmlns="http://www.w3.org/2000/svg">
<g clip-path="url(#clip0_480_2414)">
<path d="M10 10.625C9.25832 10.625 8.5333 10.4051 7.91661 9.99301C7.29993 9.58096 6.81928 8.99529 6.53545 8.31006C6.25162 7.62484 6.17736 6.87084 6.32206 6.14341C6.46675 5.41598 6.8239 4.7478 7.34835 4.22335C7.8728 3.6989 8.54098 3.34175 9.26841 3.19706C9.99584 3.05236 10.7498 3.12662 11.4351 3.41045C12.1203 3.69428 12.706 4.17493 13.118 4.79161C13.5301 5.4083 13.75 6.13332 13.75 6.875C13.75 7.86956 13.3549 8.82339 12.6517 9.52665C11.9484 10.2299 10.9946 10.625 10 10.625ZM10 4.375C9.50555 4.375 9.0222 4.52162 8.61108 4.79633C8.19995 5.07103 7.87952 5.46148 7.6903 5.91829C7.50108 6.37511 7.45158 6.87777 7.54804 7.36273C7.6445 7.84768 7.8826 8.29314 8.23223 8.64277C8.58187 8.9924 9.02732 9.2305 9.51228 9.32697C9.99723 9.42343 10.4999 9.37392 10.9567 9.1847C11.4135 8.99548 11.804 8.67505 12.0787 8.26393C12.3534 7.8528 12.5 7.36945 12.5 6.875C12.5 6.21196 12.2366 5.57608 11.7678 5.10723C11.2989 4.63839 10.663 4.375 10 4.375Z" fill="black"/>
<path d="M10.0004 19.375C8.61442 19.374 7.24589 19.0658 5.99333 18.4725C4.74077 17.8792 3.63535 17.0155 2.75664 15.9437L2.43164 15.5437L2.75664 15.15C3.63609 14.0795 4.74184 13.2173 5.99436 12.6253C7.24687 12.0334 8.61502 11.7263 10.0004 11.7263C11.3858 11.7263 12.7539 12.0334 14.0064 12.6253C15.2589 13.2173 16.3647 14.0795 17.2441 15.15L17.5691 15.5437L17.2441 15.9437C16.3654 17.0155 15.26 17.8792 14.0075 18.4725C12.7549 19.0658 11.3864 19.374 10.0004 19.375ZM4.06914 15.55C4.82929 16.3637 5.7486 17.0125 6.77 17.4561C7.79139 17.8997 8.89307 18.1286 10.0066 18.1286C11.1202 18.1286 12.2219 17.8997 13.2433 17.4561C14.2647 17.0125 15.184 16.3637 15.9441 15.55C15.184 14.7362 14.2647 14.0874 13.2433 13.6438C12.2219 13.2002 11.1202 12.9713 10.0066 12.9713C8.89307 12.9713 7.79139 13.2002 6.77 13.6438C5.7486 14.0874 4.82929 14.7362 4.06914 15.55Z" fill="black"/>
<path d="M10.0004 19.375C7.87086 19.3764 5.8043 18.6528 4.14083 17.3232C2.47736 15.9936 1.31612 14.1373 0.848233 12.0598C0.380346 9.98232 0.633695 7.80743 1.56658 5.8931C2.49947 3.97877 4.0563 2.43909 5.98084 1.52747C7.90538 0.615841 10.0829 0.386598 12.1551 0.877468C14.2273 1.36834 16.0707 2.55007 17.3817 4.22816C18.6928 5.90625 19.3935 7.98071 19.3685 10.1101C19.3435 12.2395 18.5943 14.2969 17.2441 15.9438C16.3654 17.0156 15.26 17.8792 14.0075 18.4726C12.7549 19.0659 11.3864 19.3741 10.0004 19.375ZM10.0004 1.87501C8.39343 1.87501 6.82254 2.35153 5.48639 3.24432C4.15024 4.1371 3.10884 5.40605 2.49388 6.8907C1.87892 8.37535 1.71801 10.009 2.03152 11.5851C2.34502 13.1612 3.11886 14.6089 4.25516 15.7453C5.39146 16.8816 6.83919 17.6554 8.41529 17.9689C9.99139 18.2824 11.6251 18.1215 13.1097 17.5065C14.5943 16.8916 15.8633 15.8502 16.7561 14.514C17.6489 13.1779 18.1254 11.607 18.1254 10C18.1254 7.84512 17.2694 5.7785 15.7456 4.25476C14.2219 2.73103 12.1553 1.87501 10.0004 1.87501Z" fill="black"/>
<path d="M3.23828 15.5501C3.23828 15.5501 9.53203 22.5813 15.9383 16.2501L16.7633 15.5501C16.7633 15.5501 11.4133 10.0001 5.98203 13.3313L3.23828 15.5501Z" fill="black"/>
<path d="M10 10C11.7259 10 13.125 8.60089 13.125 6.875C13.125 5.14911 11.7259 3.75 10 3.75C8.27411 3.75 6.875 5.14911 6.875 6.875C6.875 8.60089 8.27411 10 10 10Z" fill="black"/>
</g>
<defs>
<clipPath id="clip0_480_2414">
<rect width="20" height="20" fill="white"/>
</clipPath>
</defs>
</svg>
