<svg width="122" height="122" viewBox="0 0 122 122" fill="none" xmlns="http://www.w3.org/2000/svg">
<g clip-path="url(#clip0_893_2694)">
<path d="M61 122C94.6894 122 122 94.6894 122 61C122 27.3106 94.6894 0 61 0C27.3106 0 0 27.3106 0 61C0 94.6894 27.3106 122 61 122Z" fill="#1DD882"/>
<path d="M121.566 68.2938C118.795 91.5643 102.923 110.813 81.5351 118.457L30.3046 67.2263L28.3555 61.3884L28.913 56.1081L32.1989 53.1868L38.8398 52.4576L43.086 54.4187L53.0104 64.3359L78.914 38.4371L85.9314 36.6643L91.7097 38.4371L121.566 68.2938Z" fill="url(#paint0_linear_893_2694)"/>
<path d="M78.9135 38.4371L53.01 64.3359L43.0856 54.4115C41.3879 52.7164 39.0868 51.7642 36.6877 51.7642C34.2886 51.7642 31.9876 52.7164 30.2899 54.4115C28.5947 56.1092 27.6426 58.4103 27.6426 60.8094C27.6426 63.2085 28.5947 65.5095 30.2899 67.2072L46.0474 82.9648C46.2166 83.1673 46.3953 83.3651 46.5859 83.5557C48.2927 85.2528 50.6019 86.2053 53.0088 86.2053C55.4157 86.2053 57.7248 85.2528 59.4317 83.5557C59.6223 83.3651 59.801 83.1673 59.9702 82.9648L91.7092 51.2305C93.4044 49.5328 94.3565 47.2317 94.3565 44.8326C94.3565 42.4335 93.4044 40.1325 91.7092 38.4348C90.0112 36.7399 87.71 35.7882 85.3109 35.7887C82.9118 35.7891 80.6109 36.7417 78.9135 38.4371Z" fill="white"/>
</g>
<defs>
<linearGradient id="paint0_linear_893_2694" x1="46.5983" y1="38.4228" x2="108.22" y2="100.047" gradientUnits="userSpaceOnUse">
<stop stop-color="#068C46"/>
<stop offset="1" stop-color="#068C46" stop-opacity="0"/>
</linearGradient>
<clipPath id="clip0_893_2694">
<rect width="122" height="122" fill="white"/>
</clipPath>
</defs>
</svg>
